# cut_gemstone_table - original low-poly mesh generated by tools/make_artifact_meshes.py (studs, +Y up, front +Z)
o cut_gemstone_table
v 0.0000 0.8250 0.0000
v 0.3536 0.8250 0.3536
v 0.5000 0.8250 0.0000
vn 0.0000 1.0000 0.0000
v 0.0000 0.8250 0.0000
v 0.0000 0.8250 0.5000
v 0.3536 0.8250 0.3536
vn 0.0000 1.0000 0.0000
v 0.0000 0.8250 0.0000
v -0.3536 0.8250 0.3536
v 0.0000 0.8250 0.5000
vn 0.0000 1.0000 -0.0000
v 0.0000 0.8250 0.0000
v -0.5000 0.8250 0.0000
v -0.3536 0.8250 0.3536
vn 0.0000 1.0000 0.0000
v 0.0000 0.8250 0.0000
v -0.3536 0.8250 -0.3536
v -0.5000 0.8250 0.0000
vn 0.0000 1.0000 0.0000
v 0.0000 0.8250 0.0000
v -0.0000 0.8250 -0.5000
v -0.3536 0.8250 -0.3536
vn 0.0000 1.0000 0.0000
v 0.0000 0.8250 0.0000
v 0.3536 0.8250 -0.3536
v -0.0000 0.8250 -0.5000
vn 0.0000 1.0000 0.0000
v 0.0000 0.8250 0.0000
v 0.5000 0.8250 0.0000
v 0.3536 0.8250 -0.3536
vn -0.0000 1.0000 0.0000
f 1//1 2//1 3//1
f 4//2 5//2 6//2
f 7//3 8//3 9//3
f 10//4 11//4 12//4
f 13//5 14//5 15//5
f 16//6 17//6 18//6
f 19//7 20//7 21//7
f 22//8 23//8 24//8
