# golden_scarab_inlay - original low-poly mesh generated by tools/make_artifact_meshes.py (studs, +Y up, front +Z)
o golden_scarab_inlay
v -0.2200 0.0900 -1.7400
v -0.2013 0.0550 -1.6823
v -0.1594 0.0550 -1.7400
vn 0.4700 0.8140 0.3414
v -0.2200 0.0900 -1.7400
v -0.2690 0.0550 -1.7044
v -0.2013 0.0550 -1.6823
vn -0.1795 0.8140 0.5525
v -0.2200 0.0900 -1.7400
v -0.2690 0.0550 -1.7756
v -0.2690 0.0550 -1.7044
vn -0.5809 0.8140 0.0000
v -0.2200 0.0900 -1.7400
v -0.2013 0.0550 -1.7977
v -0.2690 0.0550 -1.7756
vn -0.1795 0.8140 -0.5525
v -0.2200 0.0900 -1.7400
v -0.1594 0.0550 -1.7400
v -0.2013 0.0550 -1.7977
vn 0.4700 0.8140 -0.3414
v -0.1594 0.0550 -1.7400
v -0.2013 0.0550 -1.6823
v -0.2013 -0.0150 -1.6823
vn 0.8090 0.0000 0.5878
v -0.1594 0.0550 -1.7400
v -0.2013 -0.0150 -1.6823
v -0.1594 -0.0150 -1.7400
vn 0.8090 0.0000 0.5878
v -0.2013 0.0550 -1.6823
v -0.2690 0.0550 -1.7044
v -0.2690 -0.0150 -1.7044
vn -0.3090 0.0000 0.9511
v -0.2013 0.0550 -1.6823
v -0.2690 -0.0150 -1.7044
v -0.2013 -0.0150 -1.6823
vn -0.3090 0.0000 0.9511
v -0.2690 0.0550 -1.7044
v -0.2690 0.0550 -1.7756
v -0.2690 -0.0150 -1.7756
vn -1.0000 0.0000 -0.0000
v -0.2690 0.0550 -1.7044
v -0.2690 -0.0150 -1.7756
v -0.2690 -0.0150 -1.7044
vn -1.0000 -0.0000 0.0000
v -0.2690 0.0550 -1.7756
v -0.2013 0.0550 -1.7977
v -0.2013 -0.0150 -1.7977
vn -0.3090 -0.0000 -0.9511
v -0.2690 0.0550 -1.7756
v -0.2013 -0.0150 -1.7977
v -0.2690 -0.0150 -1.7756
vn -0.3090 -0.0000 -0.9511
v -0.2013 0.0550 -1.7977
v -0.1594 0.0550 -1.7400
v -0.1594 -0.0150 -1.7400
vn 0.8090 0.0000 -0.5878
v -0.2013 0.0550 -1.7977
v -0.1594 -0.0150 -1.7400
v -0.2013 -0.0150 -1.7977
vn 0.8090 0.0000 -0.5878
v -0.1594 -0.0150 -1.7400
v -0.2013 -0.0150 -1.6823
v -0.2200 -0.0500 -1.7400
vn 0.4700 -0.8140 0.3414
v -0.2013 -0.0150 -1.6823
v -0.2690 -0.0150 -1.7044
v -0.2200 -0.0500 -1.7400
vn -0.1795 -0.8140 0.5525
v -0.2690 -0.0150 -1.7044
v -0.2690 -0.0150 -1.7756
v -0.2200 -0.0500 -1.7400
vn -0.5809 -0.8140 -0.0000
v -0.2690 -0.0150 -1.7756
v -0.2013 -0.0150 -1.7977
v -0.2200 -0.0500 -1.7400
vn -0.1795 -0.8140 -0.5525
v -0.2013 -0.0150 -1.7977
v -0.1594 -0.0150 -1.7400
v -0.2200 -0.0500 -1.7400
vn 0.4700 -0.8140 -0.3414
v 0.2200 0.0900 -1.7400
v 0.2387 0.0550 -1.6823
v 0.2806 0.0550 -1.7400
vn 0.4700 0.8140 0.3414
v 0.2200 0.0900 -1.7400
v 0.1710 0.0550 -1.7044
v 0.2387 0.0550 -1.6823
vn -0.1795 0.8140 0.5525
v 0.2200 0.0900 -1.7400
v 0.1710 0.0550 -1.7756
v 0.1710 0.0550 -1.7044
vn -0.5809 0.8140 0.0000
v 0.2200 0.0900 -1.7400
v 0.2387 0.0550 -1.7977
v 0.1710 0.0550 -1.7756
vn -0.1795 0.8140 -0.5525
v 0.2200 0.0900 -1.7400
v 0.2806 0.0550 -1.7400
v 0.2387 0.0550 -1.7977
vn 0.4700 0.8140 -0.3414
v 0.2806 0.0550 -1.7400
v 0.2387 0.0550 -1.6823
v 0.2387 -0.0150 -1.6823
vn 0.8090 0.0000 0.5878
v 0.2806 0.0550 -1.7400
v 0.2387 -0.0150 -1.6823
v 0.2806 -0.0150 -1.7400
vn 0.8090 0.0000 0.5878
v 0.2387 0.0550 -1.6823
v 0.1710 0.0550 -1.7044
v 0.1710 -0.0150 -1.7044
vn -0.3090 0.0000 0.9511
v 0.2387 0.0550 -1.6823
v 0.1710 -0.0150 -1.7044
v 0.2387 -0.0150 -1.6823
vn -0.3090 0.0000 0.9511
v 0.1710 0.0550 -1.7044
v 0.1710 0.0550 -1.7756
v 0.1710 -0.0150 -1.7756
vn -1.0000 0.0000 0.0000
v 0.1710 0.0550 -1.7044
v 0.1710 -0.0150 -1.7756
v 0.1710 -0.0150 -1.7044
vn -1.0000 0.0000 0.0000
v 0.1710 0.0550 -1.7756
v 0.2387 0.0550 -1.7977
v 0.2387 -0.0150 -1.7977
vn -0.3090 -0.0000 -0.9511
v 0.1710 0.0550 -1.7756
v 0.2387 -0.0150 -1.7977
v 0.1710 -0.0150 -1.7756
vn -0.3090 -0.0000 -0.9511
v 0.2387 0.0550 -1.7977
v 0.2806 0.0550 -1.7400
v 0.2806 -0.0150 -1.7400
vn 0.8090 0.0000 -0.5878
v 0.2387 0.0550 -1.7977
v 0.2806 -0.0150 -1.7400
v 0.2387 -0.0150 -1.7977
vn 0.8090 0.0000 -0.5878
v 0.2806 -0.0150 -1.7400
v 0.2387 -0.0150 -1.6823
v 0.2200 -0.0500 -1.7400
vn 0.4700 -0.8140 0.3414
v 0.2387 -0.0150 -1.6823
v 0.1710 -0.0150 -1.7044
v 0.2200 -0.0500 -1.7400
vn -0.1795 -0.8140 0.5525
v 0.1710 -0.0150 -1.7044
v 0.1710 -0.0150 -1.7756
v 0.2200 -0.0500 -1.7400
vn -0.5809 -0.8140 0.0000
v 0.1710 -0.0150 -1.7756
v 0.2387 -0.0150 -1.7977
v 0.2200 -0.0500 -1.7400
vn -0.1795 -0.8140 -0.5525
v 0.2387 -0.0150 -1.7977
v 0.2806 -0.0150 -1.7400
v 0.2200 -0.0500 -1.7400
vn 0.4700 -0.8140 -0.3414
f 1//1 2//1 3//1
f 4//2 5//2 6//2
f 7//3 8//3 9//3
f 10//4 11//4 12//4
f 13//5 14//5 15//5
f 16//6 17//6 18//6
f 19//7 20//7 21//7
f 22//8 23//8 24//8
f 25//9 26//9 27//9
f 28//10 29//10 30//10
f 31//11 32//11 33//11
f 34//12 35//12 36//12
f 37//13 38//13 39//13
f 40//14 41//14 42//14
f 43//15 44//15 45//15
f 46//16 47//16 48//16
f 49//17 50//17 51//17
f 52//18 53//18 54//18
f 55//19 56//19 57//19
f 58//20 59//20 60//20
f 61//21 62//21 63//21
f 64//22 65//22 66//22
f 67//23 68//23 69//23
f 70//24 71//24 72//24
f 73//25 74//25 75//25
f 76//26 77//26 78//26
f 79//27 80//27 81//27
f 82//28 83//28 84//28
f 85//29 86//29 87//29
f 88//30 89//30 90//30
f 91//31 92//31 93//31
f 94//32 95//32 96//32
f 97//33 98//33 99//33
f 100//34 101//34 102//34
f 103//35 104//35 105//35
f 106//36 107//36 108//36
f 109//37 110//37 111//37
f 112//38 113//38 114//38
f 115//39 116//39 117//39
f 118//40 119//40 120//40
