# golden_scarab_legs - original low-poly mesh generated by tools/make_artifact_meshes.py (studs, +Y up, front +Z)
o golden_scarab_legs
v -0.6837 -0.1168 -1.0198
v -0.6614 -0.1884 -0.9609
v -1.1183 -0.3763 -1.0191
vn 0.3212 -0.5402 -0.7778
v -0.6837 -0.1168 -1.0198
v -1.1183 -0.3763 -1.0191
v -1.1458 -0.3162 -1.0687
vn 0.3080 -0.5181 -0.7980
v -0.6614 -0.1884 -0.9609
v -0.6777 -0.1884 -0.8521
v -1.1325 -0.3768 -0.9302
vn 0.3740 -0.9257 0.0559
v -0.6614 -0.1884 -0.9609
v -1.1325 -0.3768 -0.9302
v -1.1183 -0.3763 -1.0191
vn 0.3739 -0.9259 0.0542
v -0.6777 -0.1884 -0.8521
v -0.7163 -0.1168 -0.8023
v -1.1742 -0.3173 -0.8909
vn 0.0753 -0.5421 0.8370
v -0.6777 -0.1884 -0.8521
v -1.1742 -0.3173 -0.8909
v -1.1325 -0.3768 -0.9302
vn 0.0672 -0.5161 0.8539
v -0.7163 -0.1168 -0.8023
v -0.7386 -0.0452 -0.8612
v -1.2017 -0.2573 -0.9405
vn -0.3697 0.5191 0.7706
v -0.7163 -0.1168 -0.8023
v -1.2017 -0.2573 -0.9405
v -1.1742 -0.3173 -0.8909
vn -0.3667 0.4869 0.7928
v -0.7386 -0.0452 -0.8612
v -0.7223 -0.0452 -0.9700
v -1.1875 -0.2567 -1.0294
vn -0.4068 0.9115 -0.0608
v -0.7386 -0.0452 -0.8612
v -1.1875 -0.2567 -1.0294
v -1.2017 -0.2573 -0.9405
vn -0.4071 0.9114 -0.0596
v -0.7223 -0.0452 -0.9700
v -0.6837 -0.1168 -1.0198
v -1.1458 -0.3162 -1.0687
vn -0.1337 0.5167 -0.8457
v -0.7223 -0.0452 -0.9700
v -1.1458 -0.3162 -1.0687
v -1.1875 -0.2567 -1.0294
vn -0.1128 0.4908 -0.8639
v -1.1458 -0.3162 -1.0687
v -1.1183 -0.3763 -1.0191
v -1.5122 -0.6507 -1.0692
vn 0.4183 -0.4569 -0.7851
v -1.1458 -0.3162 -1.0687
v -1.5122 -0.6507 -1.0692
v -1.5342 -0.6161 -1.0979
vn 0.3906 -0.4265 -0.8158
v -1.1183 -0.3763 -1.0191
v -1.1325 -0.3768 -0.9302
v -1.5205 -0.6514 -1.0199
vn 0.5623 -0.8225 0.0849
v -1.1183 -0.3763 -1.0191
v -1.5205 -0.6514 -1.0199
v -1.5122 -0.6507 -1.0692
vn 0.5624 -0.8226 0.0843
v -1.1325 -0.3768 -0.9302
v -1.1742 -0.3173 -0.8909
v -1.5508 -0.6174 -0.9993
vn 0.1325 -0.4794 0.8675
v -1.1325 -0.3768 -0.9302
v -1.5508 -0.6174 -0.9993
v -1.5205 -0.6514 -1.0199
vn 0.1087 -0.4443 0.8892
v -1.1742 -0.3173 -0.8909
v -1.2017 -0.2573 -0.9405
v -1.5728 -0.5828 -1.0279
vn -0.5204 0.3893 0.7600
v -1.1742 -0.3173 -0.8909
v -1.5728 -0.5828 -1.0279
v -1.5508 -0.6174 -0.9993
vn -0.5003 0.3405 0.7961
v -1.2017 -0.2573 -0.9405
v -1.1875 -0.2567 -1.0294
v -1.5645 -0.5822 -1.0772
vn -0.6432 0.7594 -0.0982
v -1.2017 -0.2573 -0.9405
v -1.5645 -0.5822 -1.0772
v -1.5728 -0.5828 -1.0279
vn -0.6430 0.7595 -0.0988
v -1.1875 -0.2567 -1.0294
v -1.1458 -0.3162 -1.0687
v -1.5342 -0.6161 -1.0979
vn -0.2478 0.4064 -0.8795
v -1.1875 -0.2567 -1.0294
v -1.5342 -0.6161 -1.0979
v -1.5645 -0.5822 -1.0772
vn -0.2042 0.3695 -0.9065
v -0.7000 -0.1168 -0.9111
v -0.6614 -0.1884 -0.9609
v -0.6837 -0.1168 -1.0198
vn 0.9086 0.3950 0.1358
v -0.7000 -0.1168 -0.9111
v -0.6777 -0.1884 -0.8521
v -0.6614 -0.1884 -0.9609
vn 0.9086 0.3950 0.1358
v -0.7000 -0.1168 -0.9111
v -0.7163 -0.1168 -0.8023
v -0.6777 -0.1884 -0.8521
vn 0.9086 0.3950 0.1358
v -0.7000 -0.1168 -0.9111
v -0.7386 -0.0452 -0.8612
v -0.7163 -0.1168 -0.8023
vn 0.9086 0.3950 0.1358
v -0.7000 -0.1168 -0.9111
v -0.7223 -0.0452 -0.9700
v -0.7386 -0.0452 -0.8612
vn 0.9086 0.3950 0.1358
v -0.7000 -0.1168 -0.9111
v -0.6837 -0.1168 -1.0198
v -0.7223 -0.0452 -0.9700
vn 0.9086 0.3950 0.1358
v -1.5425 -0.6168 -1.0486
v -1.5342 -0.6161 -1.0979
v -1.5122 -0.6507 -1.0692
vn -0.7791 -0.6111 -0.1400
v -1.5425 -0.6168 -1.0486
v -1.5122 -0.6507 -1.0692
v -1.5205 -0.6514 -1.0199
vn -0.7791 -0.6111 -0.1400
v -1.5425 -0.6168 -1.0486
v -1.5205 -0.6514 -1.0199
v -1.5508 -0.6174 -0.9993
vn -0.7791 -0.6111 -0.1400
v -1.5425 -0.6168 -1.0486
v -1.5508 -0.6174 -0.9993
v -1.5728 -0.5828 -1.0279
vn -0.7791 -0.6111 -0.1400
v -1.5425 -0.6168 -1.0486
v -1.5728 -0.5828 -1.0279
v -1.5645 -0.5822 -1.0772
vn -0.7791 -0.6111 -0.1400
v -1.5425 -0.6168 -1.0486
v -1.5645 -0.5822 -1.0772
v -1.5342 -0.6161 -1.0979
vn -0.7791 -0.6111 -0.1400
v 0.7163 -0.1168 -0.8023
v 0.6777 -0.1884 -0.8521
v 1.1325 -0.3768 -0.9302
vn -0.0800 -0.5401 0.8378
v 0.7163 -0.1168 -0.8023
v 1.1325 -0.3768 -0.9302
v 1.1742 -0.3173 -0.8909
vn -0.0621 -0.5189 0.8526
v 0.6777 -0.1884 -0.8521
v 0.6614 -0.1884 -0.9609
v 1.1183 -0.3763 -1.0191
vn -0.3737 -0.9259 0.0559
v 0.6777 -0.1884 -0.8521
v 1.1183 -0.3763 -1.0191
v 1.1325 -0.3768 -0.9302
vn -0.3743 -0.9257 0.0543
v 0.6614 -0.1884 -0.9609
v 0.6837 -0.1168 -1.0198
v 1.1458 -0.3162 -1.0687
vn -0.3163 -0.5422 -0.7784
v 0.6614 -0.1884 -0.9609
v 1.1458 -0.3162 -1.0687
v 1.1183 -0.3763 -1.0191
vn -0.3135 -0.5153 -0.7976
v 0.6837 -0.1168 -1.0198
v 0.7223 -0.0452 -0.9700
v 1.1875 -0.2567 -1.0294
vn 0.1282 0.5192 -0.8450
v 0.6837 -0.1168 -1.0198
v 1.1875 -0.2567 -1.0294
v 1.1458 -0.3162 -1.0687
vn 0.1189 0.4873 -0.8651
v 0.7223 -0.0452 -0.9700
v 0.7386 -0.0452 -0.8612
v 1.2017 -0.2573 -0.9405
vn 0.4069 0.9114 -0.0608
v 0.7223 -0.0452 -0.9700
v 1.2017 -0.2573 -0.9405
v 1.1875 -0.2567 -1.0294
vn 0.4069 0.9115 -0.0596
v 0.7386 -0.0452 -0.8612
v 0.7163 -0.1168 -0.8023
v 1.1742 -0.3173 -0.8909
vn 0.3752 0.5166 0.7696
v 0.7386 -0.0452 -0.8612
v 1.1742 -0.3173 -0.8909
v 1.2017 -0.2573 -0.9405
vn 0.3605 0.4903 0.7935
v 1.1742 -0.3173 -0.8909
v 1.1325 -0.3768 -0.9302
v 1.5205 -0.6514 -1.0199
vn -0.1366 -0.4769 0.8683
v 1.1742 -0.3173 -0.8909
v 1.5205 -0.6514 -1.0199
v 1.5508 -0.6174 -0.9993
vn -0.1025 -0.4490 0.8876
v 1.1325 -0.3768 -0.9302
v 1.1183 -0.3763 -1.0191
v 1.5122 -0.6507 -1.0692
vn -0.5623 -0.8226 0.0849
v 1.1325 -0.3768 -0.9302
v 1.5122 -0.6507 -1.0692
v 1.5205 -0.6514 -1.0199
vn -0.5625 -0.8225 0.0843
v 1.1183 -0.3763 -1.0191
v 1.1458 -0.3162 -1.0687
v 1.5342 -0.6161 -1.0979
vn -0.4139 -0.4595 -0.7859
v 1.1183 -0.3763 -1.0191
v 1.5342 -0.6161 -1.0979
v 1.5122 -0.6507 -1.0692
vn -0.3975 -0.4216 -0.8150
v 1.1458 -0.3162 -1.0687
v 1.1875 -0.2567 -1.0294
v 1.5645 -0.5822 -1.0772
vn 0.2425 0.4100 -0.8793
v 1.1458 -0.3162 -1.0687
v 1.5645 -0.5822 -1.0772
v 1.5342 -0.6161 -1.0979
vn 0.2121 0.3630 -0.9073
v 1.1875 -0.2567 -1.0294
v 1.2017 -0.2573 -0.9405
v 1.5728 -0.5828 -1.0279
vn 0.6431 0.7594 -0.0982
v 1.1875 -0.2567 -1.0294
v 1.5728 -0.5828 -1.0279
v 1.5645 -0.5822 -1.0772
vn 0.6431 0.7594 -0.0988
v 1.2017 -0.2573 -0.9405
v 1.1742 -0.3173 -0.8909
v 1.5508 -0.6174 -0.9993
vn 0.5254 0.3857 0.7584
v 1.2017 -0.2573 -0.9405
v 1.5508 -0.6174 -0.9993
v 1.5728 -0.5828 -1.0279
vn 0.4924 0.3472 0.7981
v 0.7000 -0.1168 -0.9111
v 0.6777 -0.1884 -0.8521
v 0.7163 -0.1168 -0.8023
vn -0.9086 0.3950 0.1358
v 0.7000 -0.1168 -0.9111
v 0.6614 -0.1884 -0.9609
v 0.6777 -0.1884 -0.8521
vn -0.9086 0.3950 0.1358
v 0.7000 -0.1168 -0.9111
v 0.6837 -0.1168 -1.0198
v 0.6614 -0.1884 -0.9609
vn -0.9086 0.3950 0.1358
v 0.7000 -0.1168 -0.9111
v 0.7223 -0.0452 -0.9700
v 0.6837 -0.1168 -1.0198
vn -0.9086 0.3950 0.1358
v 0.7000 -0.1168 -0.9111
v 0.7386 -0.0452 -0.8612
v 0.7223 -0.0452 -0.9700
vn -0.9086 0.3950 0.1358
v 0.7000 -0.1168 -0.9111
v 0.7163 -0.1168 -0.8023
v 0.7386 -0.0452 -0.8612
vn -0.9086 0.3950 0.1358
v 1.5425 -0.6168 -1.0486
v 1.5508 -0.6174 -0.9993
v 1.5205 -0.6514 -1.0199
vn 0.7791 -0.6111 -0.1400
v 1.5425 -0.6168 -1.0486
v 1.5205 -0.6514 -1.0199
v 1.5122 -0.6507 -1.0692
vn 0.7791 -0.6111 -0.1400
v 1.5425 -0.6168 -1.0486
v 1.5122 -0.6507 -1.0692
v 1.5342 -0.6161 -1.0979
vn 0.7791 -0.6111 -0.1400
v 1.5425 -0.6168 -1.0486
v 1.5342 -0.6161 -1.0979
v 1.5645 -0.5822 -1.0772
vn 0.7791 -0.6111 -0.1400
v 1.5425 -0.6168 -1.0486
v 1.5645 -0.5822 -1.0772
v 1.5728 -0.5828 -1.0279
vn 0.7791 -0.6111 -0.1400
v 1.5425 -0.6168 -1.0486
v 1.5728 -0.5828 -1.0279
v 1.5508 -0.6174 -0.9993
vn 0.7791 -0.6111 -0.1400
v -0.7228 -0.1168 -0.2187
v -0.6850 -0.1899 -0.1705
v -1.2095 -0.3790 -0.0489
vn 0.0041 -0.5489 -0.8359
v -0.7228 -0.1168 -0.2187
v -1.2095 -0.3790 -0.0489
v -1.2501 -0.3175 -0.0863
vn -0.0133 -0.5258 -0.8505
v -0.6850 -0.1899 -0.1705
v -0.6622 -0.1899 -0.0629
v -1.1894 -0.3783 0.0388
vn 0.3239 -0.9436 -0.0687
v -0.6850 -0.1899 -0.1705
v -1.1894 -0.3783 0.0388
v -1.2095 -0.3790 -0.0489
vn 0.3247 -0.9435 -0.0666
v -0.6622 -0.1899 -0.0629
v -0.6772 -0.1168 -0.0035
v -1.2099 -0.3160 0.0892
vn 0.3386 -0.5506 0.7630
v -0.6622 -0.1899 -0.0629
v -1.2099 -0.3160 0.0892
v -1.1894 -0.3783 0.0388
vn 0.3377 -0.5224 0.7830
v -0.6772 -0.1168 -0.0035
v -0.7150 -0.0436 -0.0517
v -1.2505 -0.2546 0.0518
vn -0.0466 0.5328 0.8449
v -0.6772 -0.1168 -0.0035
v -1.2505 -0.2546 0.0518
v -1.2099 -0.3160 0.0892
vn -0.0371 0.5011 0.8646
v -0.7150 -0.0436 -0.0517
v -0.7378 -0.0436 -0.1593
v -1.2706 -0.2553 -0.0359
vn -0.3531 0.9326 0.0750
v -0.7150 -0.0436 -0.0517
v -1.2706 -0.2553 -0.0359
v -1.2505 -0.2546 0.0518
vn -0.3532 0.9327 0.0732
v -0.7378 -0.0436 -0.1593
v -0.7228 -0.1168 -0.2187
v -1.2501 -0.3175 -0.0863
vn -0.3909 0.5308 -0.7520
v -0.7378 -0.0436 -0.1593
v -1.2501 -0.3175 -0.0863
v -1.2706 -0.2553 -0.0359
vn -0.3796 0.5032 -0.7763
v -1.2501 -0.3175 -0.0863
v -1.2095 -0.3790 -0.0489
v -1.6474 -0.6532 0.0846
vn 0.0466 -0.4963 -0.8669
v -1.2501 -0.3175 -0.0863
v -1.6474 -0.6532 0.0846
v -1.6769 -0.6177 0.0654
vn 0.0136 -0.4663 -0.8845
v -1.2095 -0.3790 -0.0489
v -1.1894 -0.3783 0.0388
v -1.6355 -0.6523 0.1331
vn 0.5036 -0.8571 -0.1082
v -1.2095 -0.3790 -0.0489
v -1.6355 -0.6523 0.1331
v -1.6474 -0.6532 0.0846
vn 0.5040 -0.8570 -0.1074
v -1.1894 -0.3783 0.0388
v -1.2099 -0.3160 0.0892
v -1.6531 -0.6158 0.1625
vn 0.4444 -0.4705 0.7623
v -1.1894 -0.3783 0.0388
v -1.6531 -0.6158 0.1625
v -1.6355 -0.6523 0.1331
vn 0.4319 -0.4303 0.7926
v -1.2099 -0.3160 0.0892
v -1.2505 -0.2546 0.0518
v -1.6826 -0.5803 0.1433
vn -0.1457 0.4419 0.8851
v -1.2099 -0.3160 0.0892
v -1.6826 -0.5803 0.1433
v -1.6531 -0.6158 0.1625
vn -0.1166 0.3952 0.9112
v -1.2505 -0.2546 0.0518
v -1.2706 -0.2553 -0.0359
v -1.6945 -0.5812 0.0948
vn -0.5800 0.8048 0.1261
v -1.2505 -0.2546 0.0518
v -1.6945 -0.5812 0.0948
v -1.6826 -0.5803 0.1433
vn -0.5798 0.8048 0.1270
v -1.2706 -0.2553 -0.0359
v -1.2501 -0.3175 -0.0863
v -1.6769 -0.6177 0.0654
vn -0.5475 0.4100 -0.7295
v -1.2706 -0.2553 -0.0359
v -1.6769 -0.6177 0.0654
v -1.6945 -0.5812 0.0948
vn -0.5210 0.3689 -0.7697
v -0.7000 -0.1168 -0.1111
v -0.6850 -0.1899 -0.1705
v -0.7228 -0.1168 -0.2187
vn 0.9177 0.3463 -0.1948
v -0.7000 -0.1168 -0.1111
v -0.6622 -0.1899 -0.0629
v -0.6850 -0.1899 -0.1705
vn 0.9177 0.3463 -0.1948
v -0.7000 -0.1168 -0.1111
v -0.6772 -0.1168 -0.0035
v -0.6622 -0.1899 -0.0629
vn 0.9177 0.3463 -0.1948
v -0.7000 -0.1168 -0.1111
v -0.7150 -0.0436 -0.0517
v -0.6772 -0.1168 -0.0035
vn 0.9177 0.3463 -0.1948
v -0.7000 -0.1168 -0.1111
v -0.7378 -0.0436 -0.1593
v -0.7150 -0.0436 -0.0517
vn 0.9177 0.3463 -0.1948
v -0.7000 -0.1168 -0.1111
v -0.7228 -0.1168 -0.2187
v -0.7378 -0.0436 -0.1593
vn 0.9177 0.3463 -0.1948
v -1.6650 -0.6168 0.1139
v -1.6769 -0.6177 0.0654
v -1.6474 -0.6532 0.0846
vn -0.8052 -0.5553 0.2082
v -1.6650 -0.6168 0.1139
v -1.6474 -0.6532 0.0846
v -1.6355 -0.6523 0.1331
vn -0.8052 -0.5553 0.2082
v -1.6650 -0.6168 0.1139
v -1.6355 -0.6523 0.1331
v -1.6531 -0.6158 0.1625
vn -0.8052 -0.5553 0.2082
v -1.6650 -0.6168 0.1139
v -1.6531 -0.6158 0.1625
v -1.6826 -0.5803 0.1433
vn -0.8052 -0.5553 0.2082
v -1.6650 -0.6168 0.1139
v -1.6826 -0.5803 0.1433
v -1.6945 -0.5812 0.0948
vn -0.8052 -0.5553 0.2082
v -1.6650 -0.6168 0.1139
v -1.6945 -0.5812 0.0948
v -1.6769 -0.6177 0.0654
vn -0.8052 -0.5553 0.2082
v 0.6772 -0.1168 -0.0035
v 0.6622 -0.1899 -0.0629
v 1.1894 -0.3783 0.0388
vn -0.3431 -0.5489 0.7622
v 0.6772 -0.1168 -0.0035
v 1.1894 -0.3783 0.0388
v 1.2099 -0.3160 0.0892
vn -0.3325 -0.5247 0.7837
v 0.6622 -0.1899 -0.0629
v 0.6850 -0.1899 -0.1705
v 1.2095 -0.3790 -0.0489
vn -0.3242 -0.9435 -0.0688
v 0.6622 -0.1899 -0.0629
v 1.2095 -0.3790 -0.0489
v 1.1894 -0.3783 0.0388
vn -0.3243 -0.9436 -0.0665
v 0.6850 -0.1899 -0.1705
v 0.7228 -0.1168 -0.2187
v 1.2501 -0.3175 -0.0863
vn 0.0001 -0.5504 -0.8349
v 0.6850 -0.1899 -0.1705
v 1.2501 -0.3175 -0.0863
v 1.2095 -0.3790 -0.0489
vn 0.0087 -0.5236 -0.8519
v 0.7228 -0.1168 -0.2187
v 0.7378 -0.0436 -0.1593
v 1.2706 -0.2553 -0.0359
vn 0.3860 0.5328 -0.7531
v 0.7228 -0.1168 -0.2187
v 1.2706 -0.2553 -0.0359
v 1.2501 -0.3175 -0.0863
vn 0.3852 0.5005 -0.7753
v 0.7378 -0.0436 -0.1593
v 0.7150 -0.0436 -0.0517
v 1.2505 -0.2546 0.0518
vn 0.3529 0.9327 0.0749
v 0.7378 -0.0436 -0.1593
v 1.2505 -0.2546 0.0518
v 1.2706 -0.2553 -0.0359
vn 0.3535 0.9326 0.0733
v 0.7150 -0.0436 -0.0517
v 0.6772 -0.1168 -0.0035
v 1.2099 -0.3160 0.0892
vn 0.0515 0.5309 0.8459
v 0.7150 -0.0436 -0.0517
v 1.2099 -0.3160 0.0892
v 1.2505 -0.2546 0.0518
vn 0.0317 0.5039 0.8632
v 1.2099 -0.3160 0.0892
v 1.1894 -0.3783 0.0388
v 1.6355 -0.6523 0.1331
vn -0.4486 -0.4683 0.7612
v 1.2099 -0.3160 0.0892
v 1.6355 -0.6523 0.1331
v 1.6531 -0.6158 0.1625
vn -0.4253 -0.4345 0.7939
v 1.1894 -0.3783 0.0388
v 1.2095 -0.3790 -0.0489
v 1.6474 -0.6532 0.0846
vn -0.5037 -0.8571 -0.1083
v 1.1894 -0.3783 0.0388
v 1.6474 -0.6532 0.0846
v 1.6355 -0.6523 0.1331
vn -0.5038 -0.8571 -0.1074
v 1.2095 -0.3790 -0.0489
v 1.2501 -0.3175 -0.0863
v 1.6769 -0.6177 0.0654
vn -0.0427 -0.4983 -0.8660
v 1.2095 -0.3790 -0.0489
v 1.6769 -0.6177 0.0654
v 1.6474 -0.6532 0.0846
vn -0.0194 -0.4625 -0.8864
v 1.2501 -0.3175 -0.0863
v 1.2706 -0.2553 -0.0359
v 1.6945 -0.5812 0.0948
vn 0.5429 0.4129 -0.7312
v 1.2501 -0.3175 -0.0863
v 1.6945 -0.5812 0.0948
v 1.6769 -0.6177 0.0654
vn 0.5283 0.3635 -0.7673
v 1.2706 -0.2553 -0.0359
v 1.2505 -0.2546 0.0518
v 1.6826 -0.5803 0.1433
vn 0.5800 0.8048 0.1262
v 1.2706 -0.2553 -0.0359
v 1.6826 -0.5803 0.1433
v 1.6945 -0.5812 0.0948
vn 0.5797 0.8049 0.1270
v 1.2505 -0.2546 0.0518
v 1.2099 -0.3160 0.0892
v 1.6531 -0.6158 0.1625
vn 0.1505 0.4391 0.8857
v 1.2505 -0.2546 0.0518
v 1.6531 -0.6158 0.1625
v 1.6826 -0.5803 0.1433
vn 0.1093 0.4005 0.9097
v 0.7000 -0.1168 -0.1111
v 0.6622 -0.1899 -0.0629
v 0.6772 -0.1168 -0.0035
vn -0.9177 0.3463 -0.1948
v 0.7000 -0.1168 -0.1111
v 0.6850 -0.1899 -0.1705
v 0.6622 -0.1899 -0.0629
vn -0.9177 0.3463 -0.1948
v 0.7000 -0.1168 -0.1111
v 0.7228 -0.1168 -0.2187
v 0.6850 -0.1899 -0.1705
vn -0.9177 0.3463 -0.1948
v 0.7000 -0.1168 -0.1111
v 0.7378 -0.0436 -0.1593
v 0.7228 -0.1168 -0.2187
vn -0.9177 0.3463 -0.1948
v 0.7000 -0.1168 -0.1111
v 0.7150 -0.0436 -0.0517
v 0.7378 -0.0436 -0.1593
vn -0.9177 0.3463 -0.1948
v 0.7000 -0.1168 -0.1111
v 0.6772 -0.1168 -0.0035
v 0.7150 -0.0436 -0.0517
vn -0.9177 0.3463 -0.1948
v 1.6650 -0.6168 0.1139
v 1.6531 -0.6158 0.1625
v 1.6355 -0.6523 0.1331
vn 0.8052 -0.5553 0.2082
v 1.6650 -0.6168 0.1139
v 1.6355 -0.6523 0.1331
v 1.6474 -0.6532 0.0846
vn 0.8052 -0.5553 0.2082
v 1.6650 -0.6168 0.1139
v 1.6474 -0.6532 0.0846
v 1.6769 -0.6177 0.0654
vn 0.8052 -0.5553 0.2082
v 1.6650 -0.6168 0.1139
v 1.6769 -0.6177 0.0654
v 1.6945 -0.5812 0.0948
vn 0.8052 -0.5553 0.2082
v 1.6650 -0.6168 0.1139
v 1.6945 -0.5812 0.0948
v 1.6826 -0.5803 0.1433
vn 0.8052 -0.5553 0.2082
v 1.6650 -0.6168 0.1139
v 1.6826 -0.5803 0.1433
v 1.6531 -0.6158 0.1625
vn 0.8052 -0.5553 0.2082
v -0.7193 -0.1168 0.6307
v -0.6811 -0.1891 0.6797
v -1.1657 -0.3778 0.7764
vn 0.0448 -0.5443 -0.8377
v -0.7193 -0.1168 0.6307
v -1.1657 -0.3778 0.7764
v -1.2069 -0.3174 0.7381
vn 0.0271 -0.5222 -0.8524
v -0.6811 -0.1891 0.6797
v -0.6617 -0.1891 0.7880
v -1.1487 -0.3772 0.8648
vn 0.3510 -0.9343 -0.0627
v -0.6811 -0.1891 0.6797
v -1.1487 -0.3772 0.8648
v -1.1657 -0.3778 0.7764
vn 0.3517 -0.9341 -0.0608
v -0.6617 -0.1891 0.7880
v -0.6807 -0.1168 0.8472
v -1.1731 -0.3161 0.9148
vn 0.3270 -0.5462 0.7712
v -0.6617 -0.1891 0.7880
v -1.1731 -0.3161 0.9148
v -1.1487 -0.3772 0.8648
vn 0.3251 -0.5187 0.7908
v -0.6807 -0.1168 0.8472
v -0.7189 -0.0444 0.7982
v -1.2143 -0.2557 0.8765
vn -0.0905 0.5256 0.8459
v -0.6807 -0.1168 0.8472
v -1.2143 -0.2557 0.8765
v -1.1731 -0.3161 0.9148
vn -0.0811 0.4938 0.8658
v -0.7189 -0.0444 0.7982
v -0.7383 -0.0444 0.6899
v -1.2313 -0.2563 0.7881
vn -0.3824 0.9215 0.0683
v -0.7189 -0.0444 0.7982
v -1.2313 -0.2563 0.7881
v -1.2143 -0.2557 0.8765
vn -0.3825 0.9216 0.0668
v -0.7383 -0.0444 0.6899
v -0.7193 -0.1168 0.6307
v -1.2069 -0.3174 0.7381
vn -0.3830 0.5233 -0.7612
v -0.7383 -0.0444 0.6899
v -1.2069 -0.3174 0.7381
v -1.2313 -0.2563 0.7881
vn -0.3698 0.4964 -0.7854
v -1.2069 -0.3174 0.7381
v -1.1657 -0.3778 0.7764
v -1.5750 -0.6522 0.8849
vn 0.0954 -0.4859 -0.8688
v -1.2069 -0.3174 0.7381
v -1.5750 -0.6522 0.8849
v -1.6050 -0.6176 0.8650
vn 0.0618 -0.4571 -0.8873
v -1.1657 -0.3778 0.7764
v -1.1487 -0.3772 0.8648
v -1.5650 -0.6514 0.9339
vn 0.5363 -0.8385 -0.0969
v -1.1657 -0.3778 0.7764
v -1.5650 -0.6514 0.9339
v -1.5750 -0.6522 0.8849
vn 0.5365 -0.8384 -0.0961
v -1.1487 -0.3772 0.8648
v -1.1731 -0.3161 0.9148
v -1.5850 -0.6160 0.9629
vn 0.4286 -0.4645 0.7750
v -1.1487 -0.3772 0.8648
v -1.5850 -0.6160 0.9629
v -1.5650 -0.6514 0.9339
vn 0.4139 -0.4255 0.8047
v -1.1731 -0.3161 0.9148
v -1.2143 -0.2557 0.8765
v -1.6150 -0.5813 0.9430
vn -0.1986 0.4247 0.8833
v -1.1731 -0.3161 0.9148
v -1.6150 -0.5813 0.9430
v -1.5850 -0.6160 0.9629
vn -0.1687 0.3778 0.9104
v -1.2143 -0.2557 0.8765
v -1.2313 -0.2563 0.7881
v -1.6250 -0.5821 0.8940
vn -0.6153 0.7802 0.1124
v -1.2143 -0.2557 0.8765
v -1.6250 -0.5821 0.8940
v -1.6150 -0.5813 0.9430
vn -0.6152 0.7802 0.1131
v -1.2313 -0.2563 0.7881
v -1.2069 -0.3174 0.7381
v -1.6050 -0.6176 0.8650
vn -0.5366 0.3967 -0.7448
v -1.2313 -0.2563 0.7881
v -1.6050 -0.6176 0.8650
v -1.6250 -0.5821 0.8940
vn -0.5065 0.3571 -0.7848
v -0.7000 -0.1168 0.7389
v -0.6811 -0.1891 0.6797
v -0.7193 -0.1168 0.6307
vn 0.9134 0.3728 -0.1631
v -0.7000 -0.1168 0.7389
v -0.6617 -0.1891 0.7880
v -0.6811 -0.1891 0.6797
vn 0.9134 0.3728 -0.1631
v -0.7000 -0.1168 0.7389
v -0.6807 -0.1168 0.8472
v -0.6617 -0.1891 0.7880
vn 0.9134 0.3728 -0.1631
v -0.7000 -0.1168 0.7389
v -0.7189 -0.0444 0.7982
v -0.6807 -0.1168 0.8472
vn 0.9134 0.3728 -0.1631
v -0.7000 -0.1168 0.7389
v -0.7383 -0.0444 0.6899
v -0.7189 -0.0444 0.7982
vn 0.9134 0.3728 -0.1631
v -0.7000 -0.1168 0.7389
v -0.7193 -0.1168 0.6307
v -0.7383 -0.0444 0.6899
vn 0.9134 0.3728 -0.1631
v -1.5950 -0.6168 0.9139
v -1.6050 -0.6176 0.8650
v -1.5750 -0.6522 0.8849
vn -0.7917 -0.5865 0.1710
v -1.5950 -0.6168 0.9139
v -1.5750 -0.6522 0.8849
v -1.5650 -0.6514 0.9339
vn -0.7917 -0.5865 0.1710
v -1.5950 -0.6168 0.9139
v -1.5650 -0.6514 0.9339
v -1.5850 -0.6160 0.9629
vn -0.7917 -0.5865 0.1710
v -1.5950 -0.6168 0.9139
v -1.5850 -0.6160 0.9629
v -1.6150 -0.5813 0.9430
vn -0.7917 -0.5865 0.1710
v -1.5950 -0.6168 0.9139
v -1.6150 -0.5813 0.9430
v -1.6250 -0.5821 0.8940
vn -0.7917 -0.5865 0.1710
v -1.5950 -0.6168 0.9139
v -1.6250 -0.5821 0.8940
v -1.6050 -0.6176 0.8650
vn -0.7917 -0.5865 0.1710
v 0.6807 -0.1168 0.8472
v 0.6617 -0.1891 0.7880
v 1.1487 -0.3772 0.8648
vn -0.3318 -0.5443 0.7705
v 0.6807 -0.1168 0.8472
v 1.1487 -0.3772 0.8648
v 1.1731 -0.3161 0.9148
vn -0.3197 -0.5212 0.7913
v 0.6617 -0.1891 0.7880
v 0.6811 -0.1891 0.6797
v 1.1657 -0.3778 0.7764
vn -0.3513 -0.9342 -0.0627
v 0.6617 -0.1891 0.7880
v 1.1657 -0.3778 0.7764
v 1.1487 -0.3772 0.8648
vn -0.3513 -0.9343 -0.0607
v 0.6811 -0.1891 0.6797
v 0.7193 -0.1168 0.6307
v 1.2069 -0.3174 0.7381
vn -0.0403 -0.5460 -0.8368
v 0.6811 -0.1891 0.6797
v 1.2069 -0.3174 0.7381
v 1.1657 -0.3778 0.7764
vn -0.0320 -0.5197 -0.8537
v 0.7193 -0.1168 0.6307
v 0.7383 -0.0444 0.6899
v 1.2313 -0.2563 0.7881
vn 0.3777 0.5256 -0.7623
v 0.7193 -0.1168 0.6307
v 1.2313 -0.2563 0.7881
v 1.2069 -0.3174 0.7381
vn 0.3758 0.4933 -0.7845
v 0.7383 -0.0444 0.6899
v 0.7189 -0.0444 0.7982
v 1.2143 -0.2557 0.8765
vn 0.3822 0.9215 0.0683
v 0.7383 -0.0444 0.6899
v 1.2143 -0.2557 0.8765
v 1.2313 -0.2563 0.7881
vn 0.3827 0.9214 0.0668
v 0.7189 -0.0444 0.7982
v 0.6807 -0.1168 0.8472
v 1.1731 -0.3161 0.9148
vn 0.0957 0.5234 0.8467
v 0.7189 -0.0444 0.7982
v 1.1731 -0.3161 0.9148
v 1.2143 -0.2557 0.8765
vn 0.0753 0.4970 0.8645
v 1.1731 -0.3161 0.9148
v 1.1487 -0.3772 0.8648
v 1.5650 -0.6514 0.9339
vn -0.4329 -0.4620 0.7740
v 1.1731 -0.3161 0.9148
v 1.5650 -0.6514 0.9339
v 1.5850 -0.6160 0.9629
vn -0.4072 -0.4302 0.8057
v 1.1487 -0.3772 0.8648
v 1.1657 -0.3778 0.7764
v 1.5750 -0.6522 0.8849
vn -0.5364 -0.8384 -0.0969
v 1.1487 -0.3772 0.8648
v 1.5750 -0.6522 0.8849
v 1.5650 -0.6514 0.9339
vn -0.5364 -0.8385 -0.0961
v 1.1657 -0.3778 0.7764
v 1.2069 -0.3174 0.7381
v 1.6050 -0.6176 0.8650
vn -0.0914 -0.4882 -0.8679
v 1.1657 -0.3778 0.7764
v 1.6050 -0.6176 0.8650
v 1.5750 -0.6522 0.8849
vn -0.0678 -0.4528 -0.8890
v 1.2069 -0.3174 0.7381
v 1.2313 -0.2563 0.7881
v 1.6250 -0.5821 0.8940
vn 0.5317 0.4001 -0.7465
v 1.2069 -0.3174 0.7381
v 1.6250 -0.5821 0.8940
v 1.6050 -0.6176 0.8650
vn 0.5141 0.3509 -0.7826
v 1.2313 -0.2563 0.7881
v 1.2143 -0.2557 0.8765
v 1.6150 -0.5813 0.9430
vn 0.6154 0.7802 0.1124
v 1.2313 -0.2563 0.7881
v 1.6150 -0.5813 0.9430
v 1.6250 -0.5821 0.8940
vn 0.6151 0.7803 0.1131
v 1.2143 -0.2557 0.8765
v 1.1731 -0.3161 0.9148
v 1.5850 -0.6160 0.9629
vn 0.2037 0.4215 0.8837
v 1.2143 -0.2557 0.8765
v 1.5850 -0.6160 0.9629
v 1.6150 -0.5813 0.9430
vn 0.1610 0.3838 0.9093
v 0.7000 -0.1168 0.7389
v 0.6617 -0.1891 0.7880
v 0.6807 -0.1168 0.8472
vn -0.9134 0.3728 -0.1631
v 0.7000 -0.1168 0.7389
v 0.6811 -0.1891 0.6797
v 0.6617 -0.1891 0.7880
vn -0.9134 0.3728 -0.1631
v 0.7000 -0.1168 0.7389
v 0.7193 -0.1168 0.6307
v 0.6811 -0.1891 0.6797
vn -0.9134 0.3728 -0.1631
v 0.7000 -0.1168 0.7389
v 0.7383 -0.0444 0.6899
v 0.7193 -0.1168 0.6307
vn -0.9134 0.3728 -0.1631
v 0.7000 -0.1168 0.7389
v 0.7189 -0.0444 0.7982
v 0.7383 -0.0444 0.6899
vn -0.9134 0.3728 -0.1631
v 0.7000 -0.1168 0.7389
v 0.6807 -0.1168 0.8472
v 0.7189 -0.0444 0.7982
vn -0.9134 0.3728 -0.1631
v 1.5950 -0.6168 0.9139
v 1.5850 -0.6160 0.9629
v 1.5650 -0.6514 0.9339
vn 0.7917 -0.5865 0.1710
v 1.5950 -0.6168 0.9139
v 1.5650 -0.6514 0.9339
v 1.5750 -0.6522 0.8849
vn 0.7917 -0.5865 0.1710
v 1.5950 -0.6168 0.9139
v 1.5750 -0.6522 0.8849
v 1.6050 -0.6176 0.8650
vn 0.7917 -0.5865 0.1710
v 1.5950 -0.6168 0.9139
v 1.6050 -0.6176 0.8650
v 1.6250 -0.5821 0.8940
vn 0.7917 -0.5865 0.1710
v 1.5950 -0.6168 0.9139
v 1.6250 -0.5821 0.8940
v 1.6150 -0.5813 0.9430
vn 0.7917 -0.5865 0.1710
v 1.5950 -0.6168 0.9139
v 1.6150 -0.5813 0.9430
v 1.5850 -0.6160 0.9629
vn 0.7917 -0.5865 0.1710
f 1//1 2//1 3//1
f 4//2 5//2 6//2
f 7//3 8//3 9//3
f 10//4 11//4 12//4
f 13//5 14//5 15//5
f 16//6 17//6 18//6
f 19//7 20//7 21//7
f 22//8 23//8 24//8
f 25//9 26//9 27//9
f 28//10 29//10 30//10
f 31//11 32//11 33//11
f 34//12 35//12 36//12
f 37//13 38//13 39//13
f 40//14 41//14 42//14
f 43//15 44//15 45//15
f 46//16 47//16 48//16
f 49//17 50//17 51//17
f 52//18 53//18 54//18
f 55//19 56//19 57//19
f 58//20 59//20 60//20
f 61//21 62//21 63//21
f 64//22 65//22 66//22
f 67//23 68//23 69//23
f 70//24 71//24 72//24
f 73//25 74//25 75//25
f 76//26 77//26 78//26
f 79//27 80//27 81//27
f 82//28 83//28 84//28
f 85//29 86//29 87//29
f 88//30 89//30 90//30
f 91//31 92//31 93//31
f 94//32 95//32 96//32
f 97//33 98//33 99//33
f 100//34 101//34 102//34
f 103//35 104//35 105//35
f 106//36 107//36 108//36
f 109//37 110//37 111//37
f 112//38 113//38 114//38
f 115//39 116//39 117//39
f 118//40 119//40 120//40
f 121//41 122//41 123//41
f 124//42 125//42 126//42
f 127//43 128//43 129//43
f 130//44 131//44 132//44
f 133//45 134//45 135//45
f 136//46 137//46 138//46
f 139//47 140//47 141//47
f 142//48 143//48 144//48
f 145//49 146//49 147//49
f 148//50 149//50 150//50
f 151//51 152//51 153//51
f 154//52 155//52 156//52
f 157//53 158//53 159//53
f 160//54 161//54 162//54
f 163//55 164//55 165//55
f 166//56 167//56 168//56
f 169//57 170//57 171//57
f 172//58 173//58 174//58
f 175//59 176//59 177//59
f 178//60 179//60 180//60
f 181//61 182//61 183//61
f 184//62 185//62 186//62
f 187//63 188//63 189//63
f 190//64 191//64 192//64
f 193//65 194//65 195//65
f 196//66 197//66 198//66
f 199//67 200//67 201//67
f 202//68 203//68 204//68
f 205//69 206//69 207//69
f 208//70 209//70 210//70
f 211//71 212//71 213//71
f 214//72 215//72 216//72
f 217//73 218//73 219//73
f 220//74 221//74 222//74
f 223//75 224//75 225//75
f 226//76 227//76 228//76
f 229//77 230//77 231//77
f 232//78 233//78 234//78
f 235//79 236//79 237//79
f 238//80 239//80 240//80
f 241//81 242//81 243//81
f 244//82 245//82 246//82
f 247//83 248//83 249//83
f 250//84 251//84 252//84
f 253//85 254//85 255//85
f 256//86 257//86 258//86
f 259//87 260//87 261//87
f 262//88 263//88 264//88
f 265//89 266//89 267//89
f 268//90 269//90 270//90
f 271//91 272//91 273//91
f 274//92 275//92 276//92
f 277//93 278//93 279//93
f 280//94 281//94 282//94
f 283//95 284//95 285//95
f 286//96 287//96 288//96
f 289//97 290//97 291//97
f 292//98 293//98 294//98
f 295//99 296//99 297//99
f 298//100 299//100 300//100
f 301//101 302//101 303//101
f 304//102 305//102 306//102
f 307//103 308//103 309//103
f 310//104 311//104 312//104
f 313//105 314//105 315//105
f 316//106 317//106 318//106
f 319//107 320//107 321//107
f 322//108 323//108 324//108
f 325//109 326//109 327//109
f 328//110 329//110 330//110
f 331//111 332//111 333//111
f 334//112 335//112 336//112
f 337//113 338//113 339//113
f 340//114 341//114 342//114
f 343//115 344//115 345//115
f 346//116 347//116 348//116
f 349//117 350//117 351//117
f 352//118 353//118 354//118
f 355//119 356//119 357//119
f 358//120 359//120 360//120
f 361//121 362//121 363//121
f 364//122 365//122 366//122
f 367//123 368//123 369//123
f 370//124 371//124 372//124
f 373//125 374//125 375//125
f 376//126 377//126 378//126
f 379//127 380//127 381//127
f 382//128 383//128 384//128
f 385//129 386//129 387//129
f 388//130 389//130 390//130
f 391//131 392//131 393//131
f 394//132 395//132 396//132
f 397//133 398//133 399//133
f 400//134 401//134 402//134
f 403//135 404//135 405//135
f 406//136 407//136 408//136
f 409//137 410//137 411//137
f 412//138 413//138 414//138
f 415//139 416//139 417//139
f 418//140 419//140 420//140
f 421//141 422//141 423//141
f 424//142 425//142 426//142
f 427//143 428//143 429//143
f 430//144 431//144 432//144
f 433//145 434//145 435//145
f 436//146 437//146 438//146
f 439//147 440//147 441//147
f 442//148 443//148 444//148
f 445//149 446//149 447//149
f 448//150 449//150 450//150
f 451//151 452//151 453//151
f 454//152 455//152 456//152
f 457//153 458//153 459//153
f 460//154 461//154 462//154
f 463//155 464//155 465//155
f 466//156 467//156 468//156
f 469//157 470//157 471//157
f 472//158 473//158 474//158
f 475//159 476//159 477//159
f 478//160 479//160 480//160
f 481//161 482//161 483//161
f 484//162 485//162 486//162
f 487//163 488//163 489//163
f 490//164 491//164 492//164
f 493//165 494//165 495//165
f 496//166 497//166 498//166
f 499//167 500//167 501//167
f 502//168 503//168 504//168
f 505//169 506//169 507//169
f 508//170 509//170 510//170
f 511//171 512//171 513//171
f 514//172 515//172 516//172
f 517//173 518//173 519//173
f 520//174 521//174 522//174
f 523//175 524//175 525//175
f 526//176 527//176 528//176
f 529//177 530//177 531//177
f 532//178 533//178 534//178
f 535//179 536//179 537//179
f 538//180 539//180 540//180
f 541//181 542//181 543//181
f 544//182 545//182 546//182
f 547//183 548//183 549//183
f 550//184 551//184 552//184
f 553//185 554//185 555//185
f 556//186 557//186 558//186
f 559//187 560//187 561//187
f 562//188 563//188 564//188
f 565//189 566//189 567//189
f 568//190 569//190 570//190
f 571//191 572//191 573//191
f 574//192 575//192 576//192
f 577//193 578//193 579//193
f 580//194 581//194 582//194
f 583//195 584//195 585//195
f 586//196 587//196 588//196
f 589//197 590//197 591//197
f 592//198 593//198 594//198
f 595//199 596//199 597//199
f 598//200 599//200 600//200
f 601//201 602//201 603//201
f 604//202 605//202 606//202
f 607//203 608//203 609//203
f 610//204 611//204 612//204
f 613//205 614//205 615//205
f 616//206 617//206 618//206
f 619//207 620//207 621//207
f 622//208 623//208 624//208
f 625//209 626//209 627//209
f 628//210 629//210 630//210
f 631//211 632//211 633//211
f 634//212 635//212 636//212
f 637//213 638//213 639//213
f 640//214 641//214 642//214
f 643//215 644//215 645//215
f 646//216 647//216 648//216
