# clay_figurine_chip - original low-poly mesh generated by tools/make_artifact_meshes.py (studs, +Y up, front +Z)
o clay_figurine_chip
v -0.7182 -1.6450 0.3000
v -0.7982 -1.6950 0.1000
v -0.5182 -1.6950 0.4500
vn -0.4880 -0.7807 0.3904
v -0.7182 -1.6450 0.3000
v -0.5182 -1.6950 0.4500
v -0.6382 -1.4850 0.3500
vn -0.5922 0.0447 0.8045
v -0.7182 -1.6450 0.3000
v -0.7982 -1.5250 0.1000
v -0.7982 -1.6950 0.1000
vn -0.9285 0.0000 0.3714
v -0.7182 -1.6450 0.3000
v -0.6382 -1.4850 0.3500
v -0.7982 -1.5250 0.1000
vn -0.8313 0.2625 0.4900
v -0.5682 -1.5250 0.3800
v -0.5182 -1.6950 0.4500
v -0.7982 -1.6950 0.1000
vn 0.7806 -0.0275 -0.6245
v -0.5682 -1.5250 0.3800
v -0.7982 -1.6950 0.1000
v -0.7982 -1.5250 0.1000
vn 0.7727 0.0000 -0.6347
v -0.5682 -1.5250 0.3800
v -0.6382 -1.4850 0.3500
v -0.5182 -1.6950 0.4500
vn -0.2146 0.3172 0.9237
v -0.5682 -1.5250 0.3800
v -0.7982 -1.5250 0.1000
v -0.6382 -1.4850 0.3500
vn 0.5812 0.6590 -0.4774
f 1//1 2//1 3//1
f 4//2 5//2 6//2
f 7//3 8//3 9//3
f 10//4 11//4 12//4
f 13//5 14//5 15//5
f 16//6 17//6 18//6
f 19//7 20//7 21//7
f 22//8 23//8 24//8
