# fossil_fragment_rock - original low-poly mesh generated by tools/make_artifact_meshes.py (studs, +Y up, front +Z)
o fossil_fragment_rock
v -1.0976 0.0357 -0.3997
v -1.1577 0.0591 0.2800
v -0.9135 0.6780 0.2800
vn -0.9260 0.3654 -0.0944
v -1.0976 0.0357 -0.3997
v -0.9135 0.6780 0.2800
v -0.8246 0.5969 -0.4360
vn -0.8918 0.4236 -0.1587
v -0.3628 0.9053 0.2800
v -0.8246 0.5969 -0.4360
v -0.9135 0.6780 0.2800
vn -0.3772 0.9139 -0.1503
v 0.2106 0.9898 -0.3476
v -0.3628 0.9053 0.2800
v 0.1930 1.0847 0.2800
vn -0.3036 0.9408 -0.1507
v 0.2106 0.9898 -0.3476
v 0.1930 1.0847 0.2800
v 0.8152 0.6652 0.2800
vn 0.5557 0.8242 -0.1091
v 0.2106 0.9898 -0.3476
v 0.8152 0.6652 0.2800
v 0.7446 0.5968 -0.3168
vn 0.5911 0.7905 -0.1606
v 1.3967 0.0003 -0.3060
v 0.8152 0.6652 0.2800
v 1.4500 0.0045 0.2800
vn 0.7193 0.6911 -0.0704
v 1.3967 0.0003 -0.3060
v 0.7446 0.5968 -0.3168
v 0.8152 0.6652 0.2800
vn 0.6675 0.7267 -0.1623
v 1.3967 0.0003 -0.3060
v 0.2106 0.9898 -0.3476
v 0.7446 0.5968 -0.3168
vn 0.2156 0.2184 -0.9517
v -0.3659 -0.8873 0.2800
v -1.1577 0.0591 0.2800
v -1.0976 0.0357 -0.3997
vn -0.7662 -0.6410 -0.0456
v 0.9570 -0.7024 0.2800
v 1.3967 0.0003 -0.3060
v 1.4500 0.0045 0.2800
vn 0.8182 -0.5706 -0.0704
v -0.3064 0.7980 -0.4157
v 0.2106 0.9898 -0.3476
v 1.3967 0.0003 -0.3060
vn 0.1011 0.0795 -0.9917
v -0.3064 0.7980 -0.4157
v -0.8246 0.5969 -0.4360
v -0.3628 0.9053 0.2800
vn -0.3507 0.9209 -0.1704
v -0.3064 0.7980 -0.4157
v -0.3628 0.9053 0.2800
v 0.2106 0.9898 -0.3476
vn -0.3230 0.9310 -0.1697
v -0.3459 -0.8460 -0.3208
v 0.4558 -1.0115 0.2800
v -0.3659 -0.8873 0.2800
vn -0.1491 -0.9861 -0.0726
v -0.3459 -0.8460 -0.3208
v 0.4480 -0.9426 -0.3128
v 0.4558 -1.0115 0.2800
vn -0.1189 -0.9864 -0.1131
v -0.3459 -0.8460 -0.3208
v -0.3659 -0.8873 0.2800
v -1.0976 0.0357 -0.3997
vn -0.7560 -0.6508 -0.0698
v 0.9221 -0.6545 -0.3807
v 0.9570 -0.7024 0.2800
v 0.4558 -1.0115 0.2800
vn 0.5228 -0.8478 -0.0891
v 0.9221 -0.6545 -0.3807
v 0.4558 -1.0115 0.2800
v 0.4480 -0.9426 -0.3128
vn 0.5052 -0.8565 -0.1062
v 0.9221 -0.6545 -0.3807
v 1.3967 0.0003 -0.3060
v 0.9570 -0.7024 0.2800
vn 0.8114 -0.5783 -0.0847
v 0.9221 -0.6545 -0.3807
v -1.0976 0.0357 -0.3997
v -0.8246 0.5969 -0.4360
vn -0.0109 -0.0594 -0.9982
v 0.9221 -0.6545 -0.3807
v -0.8246 0.5969 -0.4360
v -0.3064 0.7980 -0.4157
vn 0.0365 0.0068 -0.9993
v 0.9221 -0.6545 -0.3807
v -0.3064 0.7980 -0.4157
v 1.3967 0.0003 -0.3060
vn 0.0875 0.0500 -0.9949
v 0.9221 -0.6545 -0.3807
v 0.4480 -0.9426 -0.3128
v -0.3459 -0.8460 -0.3208
vn -0.0152 -0.2057 -0.9785
v 0.9221 -0.6545 -0.3807
v -0.3459 -0.8460 -0.3208
v -1.0976 0.0357 -0.3997
vn -0.0297 -0.1142 -0.9930
v 0.9570 -0.7024 0.2800
v 0.1930 1.0847 0.2800
v -0.3628 0.9053 0.2800
vn 0.0000 0.0000 1.0000
v 0.9570 -0.7024 0.2800
v -0.9135 0.6780 0.2800
v -1.1577 0.0591 0.2800
vn 0.0000 0.0000 1.0000
v 0.9570 -0.7024 0.2800
v 1.4500 0.0045 0.2800
v 0.8152 0.6652 0.2800
vn 0.0000 -0.0000 1.0000
v 0.9570 -0.7024 0.2800
v -1.1577 0.0591 0.2800
v -0.3659 -0.8873 0.2800
vn 0.0000 0.0000 1.0000
v 0.9570 -0.7024 0.2800
v -0.3628 0.9053 0.2800
v -0.9135 0.6780 0.2800
vn 0.0000 0.0000 1.0000
v 0.9570 -0.7024 0.2800
v 0.8152 0.6652 0.2800
v 0.1930 1.0847 0.2800
vn 0.0000 0.0000 1.0000
v 0.9570 -0.7024 0.2800
v -0.3659 -0.8873 0.2800
v 0.4558 -1.0115 0.2800
vn 0.0000 0.0000 1.0000
f 1//1 2//1 3//1
f 4//2 5//2 6//2
f 7//3 8//3 9//3
f 10//4 11//4 12//4
f 13//5 14//5 15//5
f 16//6 17//6 18//6
f 19//7 20//7 21//7
f 22//8 23//8 24//8
f 25//9 26//9 27//9
f 28//10 29//10 30//10
f 31//11 32//11 33//11
f 34//12 35//12 36//12
f 37//13 38//13 39//13
f 40//14 41//14 42//14
f 43//15 44//15 45//15
f 46//16 47//16 48//16
f 49//17 50//17 51//17
f 52//18 53//18 54//18
f 55//19 56//19 57//19
f 58//20 59//20 60//20
f 61//21 62//21 63//21
f 64//22 65//22 66//22
f 67//23 68//23 69//23
f 70//24 71//24 72//24
f 73//25 74//25 75//25
f 76//26 77//26 78//26
f 79//27 80//27 81//27
f 82//28 83//28 84//28
f 85//29 86//29 87//29
f 88//30 89//30 90//30
f 91//31 92//31 93//31
f 94//32 95//32 96//32
