# fossil_fragment_shell - original low-poly mesh generated by tools/make_artifact_meshes.py (studs, +Y up, front +Z)
o fossil_fragment_shell
v -0.2347 -0.0116 0.3039
v -0.1954 -0.0141 0.3683
v -0.1941 0.0091 0.3654
vn -0.8464 0.1143 0.5202
v -0.2347 -0.0116 0.3039
v -0.1941 0.0091 0.3654
v -0.2338 0.0066 0.3039
vn -0.8403 0.0412 0.5406
v -0.1954 -0.0141 0.3683
v -0.1169 -0.0191 0.3683
v -0.1146 0.0141 0.3654
vn 0.0055 0.0870 0.9962
v -0.1954 -0.0141 0.3683
v -0.1146 0.0141 0.3654
v -0.1941 0.0091 0.3654
vn -0.0078 0.1250 0.9921
v -0.1169 -0.0191 0.3683
v -0.0776 -0.0216 0.3039
v -0.0749 0.0165 0.3039
vn 0.8514 -0.0601 0.5211
v -0.1169 -0.0191 0.3683
v -0.0749 0.0165 0.3039
v -0.1146 0.0141 0.3654
vn 0.8403 -0.0093 0.5420
v -0.0776 -0.0216 0.3039
v -0.1169 -0.0191 0.2394
v -0.1146 0.0141 0.2423
vn 0.8537 -0.0121 -0.5206
v -0.0776 -0.0216 0.3039
v -0.1146 0.0141 0.2423
v -0.0749 0.0165 0.3039
vn 0.8398 -0.0593 -0.5396
v -0.1169 -0.0191 0.2394
v -0.1954 -0.0141 0.2394
v -0.1941 0.0091 0.2423
vn 0.0079 0.1241 -0.9922
v -0.1169 -0.0191 0.2394
v -0.1941 0.0091 0.2423
v -0.1146 0.0141 0.2423
vn -0.0055 0.0877 -0.9961
v -0.1954 -0.0141 0.2394
v -0.2347 -0.0116 0.3039
v -0.2338 0.0066 0.3039
vn -0.8525 0.0418 -0.5211
v -0.1954 -0.0141 0.2394
v -0.2338 0.0066 0.3039
v -0.1941 0.0091 0.2423
vn -0.8367 0.1156 -0.5353
v -0.2338 0.0066 0.3039
v -0.1941 0.0091 0.3654
v -0.1981 0.0284 0.3576
vn -0.8402 0.0455 0.5404
v -0.2338 0.0066 0.3039
v -0.1981 0.0284 0.3576
v -0.2365 0.0161 0.3039
vn -0.7708 -0.2147 0.5998
v -0.1941 0.0091 0.3654
v -0.1146 0.0141 0.3654
v -0.1214 0.0529 0.3576
vn -0.0123 0.1965 0.9804
v -0.1941 0.0091 0.3654
v -0.1214 0.0529 0.3576
v -0.1981 0.0284 0.3576
vn -0.1133 0.3548 0.9280
v -0.1146 0.0141 0.3654
v -0.0749 0.0165 0.3039
v -0.0830 0.0651 0.3039
vn 0.8296 0.1383 0.5410
v -0.1146 0.0141 0.3654
v -0.0830 0.0651 0.3039
v -0.1214 0.0529 0.3576
vn 0.7588 0.2533 0.6000
v -0.0749 0.0165 0.3039
v -0.1146 0.0141 0.2423
v -0.1214 0.0529 0.2502
vn 0.8093 0.2483 -0.5323
v -0.0749 0.0165 0.3039
v -0.1214 0.0529 0.2502
v -0.0830 0.0651 0.3039
vn 0.7920 0.1320 -0.5961
v -0.1146 0.0141 0.2423
v -0.1941 0.0091 0.2423
v -0.1981 0.0284 0.2502
vn -0.0234 0.3733 -0.9274
v -0.1146 0.0141 0.2423
v -0.1981 0.0284 0.2502
v -0.1214 0.0529 0.2502
vn -0.0601 0.1882 -0.9803
v -0.1941 0.0091 0.2423
v -0.2338 0.0066 0.3039
v -0.2365 0.0161 0.3039
vn -0.8141 -0.2267 -0.5346
v -0.1941 0.0091 0.2423
v -0.2365 0.0161 0.3039
v -0.1981 0.0284 0.2502
vn -0.8187 0.0623 -0.5708
v -0.2365 0.0161 0.3039
v -0.1981 0.0284 0.3576
v -0.2073 0.0473 0.3496
vn -0.7918 -0.1331 0.5961
v -0.2365 0.0161 0.3039
v -0.2073 0.0473 0.3496
v -0.2419 0.0258 0.3039
vn -0.6508 -0.3663 0.6650
v -0.1981 0.0284 0.3576
v -0.1214 0.0529 0.3576
v -0.1380 0.0903 0.3496
vn -0.0583 0.1826 0.9815
v -0.1981 0.0284 0.3576
v -0.1380 0.0903 0.3496
v -0.2073 0.0473 0.3496
vn -0.1876 0.3021 0.9346
v -0.1214 0.0529 0.3576
v -0.0830 0.0651 0.3039
v -0.1034 0.1118 0.3039
vn 0.7346 0.3205 0.5981
v -0.1214 0.0529 0.3576
v -0.1034 0.1118 0.3039
v -0.1380 0.0903 0.3496
vn 0.6197 0.4167 0.6651
v -0.0830 0.0651 0.3039
v -0.1214 0.0529 0.2502
v -0.1380 0.0903 0.2581
vn 0.6855 0.4296 -0.5879
v -0.0830 0.0651 0.3039
v -0.1380 0.0903 0.2581
v -0.1034 0.1118 0.3039
vn 0.6874 0.2999 -0.6615
v -0.1214 0.0529 0.2502
v -0.1981 0.0284 0.2502
v -0.2073 0.0473 0.2581
vn -0.1086 0.3401 -0.9341
v -0.1214 0.0529 0.2502
v -0.2073 0.0473 0.2581
v -0.1380 0.0903 0.2581
vn -0.1015 0.1634 -0.9813
v -0.1981 0.0284 0.2502
v -0.2365 0.0161 0.3039
v -0.2419 0.0258 0.3039
vn -0.7023 -0.3953 -0.5921
v -0.1981 0.0284 0.2502
v -0.2419 0.0258 0.3039
v -0.2073 0.0473 0.2581
vn -0.7679 -0.1067 -0.6316
v -0.2419 0.0258 0.3039
v -0.2073 0.0473 0.3496
v -0.2216 0.0644 0.3466
vn -0.6254 -0.4078 0.6652
v -0.2419 0.0258 0.3039
v -0.2216 0.0644 0.3466
v -0.2503 0.0347 0.3039
vn -0.5243 -0.4930 0.6943
v -0.2073 0.0473 0.3496
v -0.1380 0.0903 0.3496
v -0.1642 0.1237 0.3466
vn -0.0373 0.0601 0.9975
v -0.2073 0.0473 0.3496
v -0.1642 0.1237 0.3466
v -0.2216 0.0644 0.3466
vn -0.0961 0.0929 0.9910
v -0.1380 0.0903 0.3496
v -0.1034 0.1118 0.3039
v -0.1355 0.1534 0.3039
vn 0.5922 0.4574 0.6634
v -0.1380 0.0903 0.3496
v -0.1355 0.1534 0.3039
v -0.1642 0.1237 0.3466
vn 0.5354 0.4816 0.6938
v -0.1034 0.1118 0.3039
v -0.1380 0.0903 0.2581
v -0.1642 0.1237 0.2611
vn 0.5616 0.4992 -0.6599
v -0.1034 0.1118 0.3039
v -0.1642 0.1237 0.2611
v -0.1355 0.1534 0.3039
vn 0.5721 0.4419 -0.6909
v -0.1380 0.0903 0.2581
v -0.2073 0.0473 0.2581
v -0.2216 0.0644 0.2611
vn -0.0708 0.1141 -0.9909
v -0.1380 0.0903 0.2581
v -0.2216 0.0644 0.2611
v -0.1642 0.1237 0.2611
vn -0.0510 0.0494 -0.9975
v -0.2073 0.0473 0.2581
v -0.2419 0.0258 0.3039
v -0.2503 0.0347 0.3039
vn -0.5487 -0.5158 -0.6579
v -0.2073 0.0473 0.2581
v -0.2503 0.0347 0.3039
v -0.2216 0.0644 0.2611
vn -0.6129 -0.3939 -0.6850
v -0.2503 0.0347 0.3039
v -0.2216 0.0644 0.3466
v -0.2409 0.0783 0.3508
vn -0.3301 -0.6570 0.6778
v -0.2503 0.0347 0.3039
v -0.2409 0.0783 0.3508
v -0.2617 0.0421 0.3039
vn -0.4052 -0.6272 0.6652
v -0.2216 0.0644 0.3466
v -0.1642 0.1237 0.3466
v -0.1992 0.1508 0.3508
vn 0.0675 -0.0653 0.9956
v -0.2216 0.0644 0.3466
v -0.1992 0.1508 0.3508
v -0.2409 0.0783 0.3508
vn 0.1496 -0.0861 0.9850
v -0.1642 0.1237 0.3466
v -0.1355 0.1534 0.3039
v -0.1783 0.1871 0.3039
vn 0.4460 0.5666 0.6928
v -0.1642 0.1237 0.3466
v -0.1783 0.1871 0.3039
v -0.1992 0.1508 0.3508
vn 0.5094 0.5562 0.6566
v -0.1355 0.1534 0.3039
v -0.1642 0.1237 0.2611
v -0.1992 0.1508 0.2570
vn 0.4905 0.5262 -0.6946
v -0.1355 0.1534 0.3039
v -0.1992 0.1508 0.2570
v -0.1783 0.1871 0.3039
vn 0.4638 0.5891 -0.6617
v -0.1642 0.1237 0.2611
v -0.2216 0.0644 0.2611
v -0.2409 0.0783 0.2570
vn 0.1246 -0.1205 -0.9849
v -0.1642 0.1237 0.2611
v -0.2409 0.0783 0.2570
v -0.1992 0.1508 0.2570
vn 0.0816 -0.0470 -0.9956
v -0.2216 0.0644 0.2611
v -0.2503 0.0347 0.3039
v -0.2617 0.0421 0.3039
vn -0.3939 -0.6097 -0.6878
v -0.2216 0.0644 0.2611
v -0.2617 0.0421 0.3039
v -0.2409 0.0783 0.2570
vn -0.3389 -0.6653 -0.6652
v -0.2617 0.0421 0.3039
v -0.2409 0.0783 0.3508
v -0.2643 0.0877 0.3600
vn -0.0621 -0.7760 0.6276
v -0.2617 0.0421 0.3039
v -0.2643 0.0877 0.3600
v -0.2759 0.0470 0.3039
vn -0.2592 -0.7555 0.6017
v -0.2409 0.0783 0.3508
v -0.1992 0.1508 0.3508
v -0.2413 0.1693 0.3600
vn 0.1726 -0.0993 0.9800
v -0.2409 0.0783 0.3508
v -0.2413 0.1693 0.3600
v -0.2643 0.0877 0.3600
vn 0.3336 -0.0944 0.9380
v -0.1992 0.1508 0.3508
v -0.1783 0.1871 0.3039
v -0.2297 0.2101 0.3039
vn 0.3055 0.6828 0.6637
v -0.1992 0.1508 0.3508
v -0.2297 0.2101 0.3039
v -0.2413 0.1693 0.3600
vn 0.4304 0.6861 0.5865
v -0.1783 0.1871 0.3039
v -0.1992 0.1508 0.2570
v -0.2413 0.1693 0.2477
vn 0.4182 0.6191 -0.6647
v -0.1783 0.1871 0.3039
v -0.2413 0.1693 0.2477
v -0.2297 0.2101 0.3039
vn 0.3272 0.7314 -0.5983
v -0.1992 0.1508 0.2570
v -0.2409 0.0783 0.2570
v -0.2643 0.0877 0.2477
vn 0.3017 -0.1736 -0.9375
v -0.1992 0.1508 0.2570
v -0.2643 0.0877 0.2477
v -0.2413 0.1693 0.2477
vn 0.1923 -0.0544 -0.9798
v -0.2409 0.0783 0.2570
v -0.2617 0.0421 0.3039
v -0.2759 0.0470 0.3039
vn -0.2442 -0.7116 -0.6588
v -0.2409 0.0783 0.2570
v -0.2759 0.0470 0.3039
v -0.2643 0.0877 0.2477
vn -0.0833 -0.7982 -0.5966
v -0.2759 0.0470 0.3039
v -0.2643 0.0877 0.3600
v -0.2909 0.0913 0.3694
vn 0.0912 -0.8146 0.5727
v -0.2759 0.0470 0.3039
v -0.2909 0.0913 0.3694
v -0.2922 0.0484 0.3039
vn -0.0727 -0.8334 0.5478
v -0.2643 0.0877 0.3600
v -0.2413 0.1693 0.3600
v -0.2884 0.1773 0.3694
vn 0.1857 -0.0525 0.9812
v -0.2643 0.0877 0.3600
v -0.2884 0.1773 0.3694
v -0.2909 0.0913 0.3694
vn 0.3305 -0.0096 0.9437
v -0.2413 0.1693 0.3600
v -0.2297 0.2101 0.3039
v -0.2872 0.2202 0.3039
vn 0.1388 0.7876 0.6003
v -0.2413 0.1693 0.3600
v -0.2872 0.2202 0.3039
v -0.2884 0.1773 0.3694
vn 0.2425 0.8092 0.5352
v -0.2297 0.2101 0.3039
v -0.2413 0.1693 0.2477
v -0.2884 0.1773 0.2383
vn 0.2473 0.7592 -0.6020
v -0.2297 0.2101 0.3039
v -0.2884 0.1773 0.2383
v -0.2872 0.2202 0.3039
vn 0.1456 0.8261 -0.5444
v -0.2413 0.1693 0.2477
v -0.2643 0.0877 0.2477
v -0.2909 0.0913 0.2383
vn 0.3195 -0.0904 -0.9433
v -0.2413 0.1693 0.2477
v -0.2909 0.0913 0.2383
v -0.2884 0.1773 0.2383
vn 0.1936 -0.0056 -0.9811
v -0.2643 0.0877 0.2477
v -0.2759 0.0470 0.3039
v -0.2922 0.0484 0.3039
vn -0.0698 -0.8004 -0.5954
v -0.2643 0.0877 0.2477
v -0.2922 0.0484 0.3039
v -0.2909 0.0913 0.2383
vn 0.0790 -0.8344 -0.5455
v -0.2922 0.0484 0.3039
v -0.2909 0.0913 0.3694
v -0.3192 0.0882 0.3736
vn 0.1725 -0.8253 0.5378
v -0.2922 0.0484 0.3039
v -0.3192 0.0882 0.3736
v -0.3098 0.0456 0.3039
vn 0.1326 -0.8379 0.5295
v -0.2909 0.0913 0.3694
v -0.2884 0.1773 0.3694
v -0.3381 0.1733 0.3736
vn 0.0846 -0.0025 0.9964
v -0.2909 0.0913 0.3694
v -0.3381 0.1733 0.3736
v -0.3192 0.0882 0.3736
vn 0.1433 0.0317 0.9892
v -0.2884 0.1773 0.3694
v -0.2872 0.2202 0.3039
v -0.3475 0.2159 0.3039
vn -0.0601 0.8353 0.5465
v -0.2884 0.1773 0.3694
v -0.3475 0.2159 0.3039
v -0.3381 0.1733 0.3736
vn -0.0235 0.8518 0.5233
v -0.2872 0.2202 0.3039
v -0.2884 0.1773 0.2383
v -0.3381 0.1733 0.2341
vn -0.0202 0.8363 -0.5479
v -0.2872 0.2202 0.3039
v -0.3381 0.1733 0.2341
v -0.3475 0.2159 0.3039
vn -0.0610 0.8482 -0.5261
v -0.2884 0.1773 0.2383
v -0.2909 0.0913 0.2383
v -0.3192 0.0882 0.2341
vn 0.1473 -0.0043 -0.9891
v -0.2884 0.1773 0.2383
v -0.3192 0.0882 0.2341
v -0.3381 0.1733 0.2341
vn 0.0829 0.0183 -0.9964
v -0.2909 0.0913 0.2383
v -0.2922 0.0484 0.3039
v -0.3098 0.0456 0.3039
vn 0.1314 -0.8302 -0.5418
v -0.2909 0.0913 0.2383
v -0.3098 0.0456 0.3039
v -0.3192 0.0882 0.2341
vn 0.1719 -0.8303 -0.5301
v -0.3098 0.0456 0.3039
v -0.3192 0.0882 0.3736
v -0.3475 0.0776 0.3704
vn 0.2444 -0.8126 0.5291
v -0.3098 0.0456 0.3039
v -0.3475 0.0776 0.3704
v -0.3277 0.0380 0.3039
vn 0.3254 -0.7670 0.5530
v -0.3192 0.0882 0.3736
v -0.3381 0.1733 0.3736
v -0.3871 0.1567 0.3704
vn -0.0604 -0.0133 0.9981
v -0.3192 0.0882 0.3736
v -0.3871 0.1567 0.3704
v -0.3475 0.0776 0.3704
vn -0.0946 -0.0473 0.9944
v -0.3381 0.1733 0.3736
v -0.3475 0.2159 0.3039
v -0.4069 0.1963 0.3039
vn -0.2655 0.8065 0.5282
v -0.3381 0.1733 0.3736
v -0.4069 0.1963 0.3039
v -0.3871 0.1567 0.3704
vn -0.2990 0.7784 0.5520
v -0.3475 0.2159 0.3039
v -0.3381 0.1733 0.2341
v -0.3871 0.1567 0.2373
vn -0.3028 0.7947 -0.5261
v -0.3475 0.2159 0.3039
v -0.3871 0.1567 0.2373
v -0.4069 0.1963 0.3039
vn -0.2613 0.7935 -0.5497
v -0.3381 0.1733 0.2341
v -0.3192 0.0882 0.2341
v -0.3475 0.0776 0.2373
vn -0.1037 -0.0229 -0.9943
v -0.3381 0.1733 0.2341
v -0.3475 0.0776 0.2373
v -0.3871 0.1567 0.2373
vn -0.0555 -0.0278 -0.9981
v -0.3192 0.0882 0.2341
v -0.3098 0.0456 0.3039
v -0.3277 0.0380 0.3039
vn 0.3327 -0.7843 -0.5237
v -0.3192 0.0882 0.2341
v -0.3277 0.0380 0.3039
v -0.3475 0.0776 0.2373
vn 0.2383 -0.8019 -0.5479
v -0.3277 0.0380 0.3039
v -0.3475 0.0776 0.3704
v -0.3739 0.0594 0.3619
vn 0.3456 -0.7577 0.5535
v -0.3277 0.0380 0.3039
v -0.3739 0.0594 0.3619
v -0.3446 0.0253 0.3039
vn 0.4763 -0.6322 0.6111
v -0.3475 0.0776 0.3704
v -0.3871 0.1567 0.3704
v -0.4325 0.1275 0.3619
vn -0.1394 -0.0697 0.9878
v -0.3475 0.0776 0.3704
v -0.4325 0.1275 0.3619
v -0.3739 0.0594 0.3619
vn -0.1947 -0.1675 0.9664
v -0.3871 0.1567 0.3704
v -0.4069 0.1963 0.3039
v -0.4618 0.1616 0.3039
vn -0.4460 0.7046 0.5519
v -0.3871 0.1567 0.3704
v -0.4618 0.1616 0.3039
v -0.4325 0.1275 0.3619
vn -0.5058 0.6080 0.6119
v -0.4069 0.1963 0.3039
v -0.3871 0.1567 0.2373
v -0.4325 0.1275 0.2458
vn -0.5235 0.6547 -0.5452
v -0.4069 0.1963 0.3039
v -0.4325 0.1275 0.2458
v -0.4618 0.1616 0.3039
vn -0.4247 0.6709 -0.6078
v -0.3871 0.1567 0.2373
v -0.3475 0.0776 0.2373
v -0.3739 0.0594 0.2458
vn -0.2306 -0.1154 -0.9662
v -0.3871 0.1567 0.2373
v -0.3739 0.0594 0.2458
v -0.4325 0.1275 0.2458
vn -0.1186 -0.1020 -0.9877
v -0.3475 0.0776 0.2373
v -0.3277 0.0380 0.3039
v -0.3446 0.0253 0.3039
vn 0.5036 -0.6684 -0.5474
v -0.3475 0.0776 0.2373
v -0.3446 0.0253 0.3039
v -0.3739 0.0594 0.2458
vn 0.3191 -0.7384 -0.5941
v -0.3446 0.0253 0.3039
v -0.3739 0.0594 0.3619
v -0.3962 0.0339 0.3536
vn 0.4842 -0.6259 0.6114
v -0.3446 0.0253 0.3039
v -0.3962 0.0339 0.3536
v -0.3589 0.0076 0.3039
vn 0.5730 -0.4638 0.6757
v -0.3739 0.0594 0.3619
v -0.4325 0.1275 0.3619
v -0.4709 0.0865 0.3536
vn -0.1126 -0.0969 0.9889
v -0.3739 0.0594 0.3619
v -0.4709 0.0865 0.3536
v -0.3962 0.0339 0.3536
vn -0.1391 -0.1974 0.9704
v -0.4325 0.1275 0.3619
v -0.4618 0.1616 0.3039
v -0.5082 0.1128 0.3039
vn -0.5743 0.5460 0.6100
v -0.4325 0.1275 0.3619
v -0.5082 0.1128 0.3039
v -0.4709 0.0865 0.3536
vn -0.6017 0.4246 0.6766
v -0.4618 0.1616 0.3039
v -0.4325 0.1275 0.2458
v -0.4709 0.0865 0.2542
vn -0.6406 0.4761 -0.6025
v -0.4618 0.1616 0.3039
v -0.4709 0.0865 0.2542
v -0.5082 0.1128 0.3039
vn -0.5363 0.5099 -0.6726
v -0.4325 0.1275 0.2458
v -0.3739 0.0594 0.2458
v -0.3962 0.0339 0.2542
vn -0.1838 -0.1581 -0.9702
v -0.4325 0.1275 0.2458
v -0.3962 0.0339 0.2542
v -0.4709 0.0865 0.2542
vn -0.0859 -0.1218 -0.9888
v -0.3739 0.0594 0.2458
v -0.3446 0.0253 0.3039
v -0.3589 0.0076 0.3039
vn 0.6185 -0.5006 -0.6057
v -0.3739 0.0594 0.2458
v -0.3589 0.0076 0.3039
v -0.3962 0.0339 0.2542
vn 0.4464 -0.6077 -0.6568
v -0.3589 0.0076 0.3039
v -0.3962 0.0339 0.3536
v -0.4126 0.0020 0.3507
vn 0.6296 -0.3834 0.6757
v -0.3589 0.0076 0.3039
v -0.4126 0.0020 0.3507
v -0.3693 -0.0147 0.3039
vn 0.6447 -0.3000 0.7031
v -0.3962 0.0339 0.3536
v -0.4709 0.0865 0.3536
v -0.4992 0.0353 0.3507
vn -0.0284 -0.0403 0.9988
v -0.3962 0.0339 0.3536
v -0.4992 0.0353 0.3507
v -0.4126 0.0020 0.3507
vn -0.0288 -0.0748 0.9968
v -0.4709 0.0865 0.3536
v -0.5082 0.1128 0.3039
v -0.5425 0.0520 0.3039
vn -0.6427 0.3628 0.6747
v -0.4709 0.0865 0.3536
v -0.5425 0.0520 0.3039
v -0.4992 0.0353 0.3507
vn -0.6386 0.3142 0.7025
v -0.5082 0.1128 0.3039
v -0.4709 0.0865 0.2542
v -0.4992 0.0353 0.2570
vn -0.6630 0.3294 -0.6723
v -0.5082 0.1128 0.3039
v -0.4992 0.0353 0.2570
v -0.5425 0.0520 0.3039
vn -0.6218 0.3510 -0.7001
v -0.4709 0.0865 0.2542
v -0.3962 0.0339 0.2542
v -0.4126 0.0020 0.2570
vn -0.0464 -0.0658 -0.9968
v -0.4709 0.0865 0.2542
v -0.4126 0.0020 0.2570
v -0.4992 0.0353 0.2570
vn -0.0178 -0.0461 -0.9988
v -0.3962 0.0339 0.2542
v -0.3589 0.0076 0.3039
v -0.3693 -0.0147 0.3039
vn 0.6725 -0.3130 -0.6707
v -0.3962 0.0339 0.2542
v -0.3693 -0.0147 0.3039
v -0.4126 0.0020 0.2570
vn 0.6100 -0.3754 -0.6978
v -0.3693 -0.0147 0.3039
v -0.4126 0.0020 0.3507
v -0.4211 -0.0350 0.3557
vn 0.7190 -0.0735 0.6911
v -0.3693 -0.0147 0.3039
v -0.4211 -0.0350 0.3557
v -0.3743 -0.0407 0.3039
vn 0.7266 -0.1401 0.6726
v -0.4126 0.0020 0.3507
v -0.4992 0.0353 0.3507
v -0.5148 -0.0236 0.3557
vn 0.0293 0.0762 0.9967
v -0.4126 0.0020 0.3507
v -0.5148 -0.0236 0.3557
v -0.4211 -0.0350 0.3557
vn 0.0157 0.1295 0.9915
v -0.4992 0.0353 0.3507
v -0.5425 0.0520 0.3039
v -0.5617 -0.0179 0.3039
vn -0.6867 0.1883 0.7022
v -0.4992 0.0353 0.3507
v -0.5617 -0.0179 0.3039
v -0.5148 -0.0236 0.3557
vn -0.7059 0.2433 0.6652
v -0.5425 0.0520 0.3039
v -0.4992 0.0353 0.2570
v -0.5148 -0.0236 0.2521
vn -0.6697 0.2369 -0.7038
v -0.5425 0.0520 0.3039
v -0.5148 -0.0236 0.2521
v -0.5617 -0.0179 0.3039
vn -0.7163 0.1964 -0.6696
v -0.4992 0.0353 0.2570
v -0.4126 0.0020 0.2570
v -0.4211 -0.0350 0.2521
vn 0.0470 0.1223 -0.9914
v -0.4992 0.0353 0.2570
v -0.4211 -0.0350 0.2521
v -0.5148 -0.0236 0.2521
vn 0.0099 0.0814 -0.9966
v -0.4126 0.0020 0.2570
v -0.3693 -0.0147 0.3039
v -0.3743 -0.0407 0.3039
vn 0.7028 -0.1355 -0.6983
v -0.4126 0.0020 0.2570
v -0.3743 -0.0407 0.3039
v -0.4211 -0.0350 0.2521
vn 0.7349 -0.0795 -0.6735
v -0.3743 -0.0407 0.3039
v -0.4211 -0.0350 0.3557
v -0.4204 -0.0751 0.3662
vn 0.7389 0.1841 0.6482
v -0.3743 -0.0407 0.3039
v -0.4204 -0.0751 0.3662
v -0.3727 -0.0691 0.3039
vn 0.7917 0.0433 0.6094
v -0.4211 -0.0350 0.3557
v -0.5148 -0.0236 0.3557
v -0.5156 -0.0871 0.3662
vn 0.0198 0.1631 0.9864
v -0.4211 -0.0350 0.3557
v -0.5156 -0.0871 0.3662
v -0.4204 -0.0751 0.3662
vn -0.0320 0.2530 0.9669
v -0.5148 -0.0236 0.3557
v -0.5617 -0.0179 0.3039
v -0.5633 -0.0932 0.3039
vn -0.7406 0.0158 0.6717
v -0.5148 -0.0236 0.3557
v -0.5633 -0.0932 0.3039
v -0.5156 -0.0871 0.3662
vn -0.7947 0.1091 0.5971
v -0.5617 -0.0179 0.3039
v -0.5148 -0.0236 0.2521
v -0.5156 -0.0871 0.2416
vn -0.7295 0.1209 -0.6732
v -0.5617 -0.0179 0.3039
v -0.5156 -0.0871 0.2416
v -0.5633 -0.0932 0.3039
vn -0.7951 0.0170 -0.6062
v -0.5148 -0.0236 0.2521
v -0.4211 -0.0350 0.2521
v -0.4204 -0.0751 0.2416
vn 0.0309 0.2541 -0.9667
v -0.5148 -0.0236 0.2521
v -0.4204 -0.0751 0.2416
v -0.5156 -0.0871 0.2416
vn -0.0207 0.1636 -0.9863
v -0.4211 -0.0350 0.2521
v -0.3743 -0.0407 0.3039
v -0.3727 -0.0691 0.3039
vn 0.7432 0.0407 -0.6678
v -0.4211 -0.0350 0.2521
v -0.3727 -0.0691 0.3039
v -0.4204 -0.0751 0.2416
vn 0.7741 0.1744 -0.6086
v -0.3727 -0.0691 0.3039
v -0.4204 -0.0751 0.3662
v -0.4092 -0.1160 0.3766
vn 0.7280 0.3486 0.5903
v -0.3727 -0.0691 0.3039
v -0.4092 -0.1160 0.3766
v -0.3637 -0.0982 0.3039
vn 0.7936 0.2455 0.5567
v -0.4204 -0.0751 0.3662
v -0.5156 -0.0871 0.3662
v -0.5003 -0.1516 0.3766
vn -0.0196 0.1554 0.9877
v -0.4204 -0.0751 0.3662
v -0.5003 -0.1516 0.3766
v -0.4092 -0.1160 0.3766
vn -0.0875 0.2240 0.9707
v -0.5156 -0.0871 0.3662
v -0.5633 -0.0932 0.3039
v -0.5458 -0.1693 0.3039
vn -0.7736 -0.1770 0.6085
v -0.5156 -0.0871 0.3662
v -0.5458 -0.1693 0.3039
v -0.5003 -0.1516 0.3766
vn -0.8304 -0.1090 0.5464
v -0.5633 -0.0932 0.3039
v -0.5156 -0.0871 0.2416
v -0.5003 -0.1516 0.2311
vn -0.7872 -0.0884 -0.6104
v -0.5633 -0.0932 0.3039
v -0.5003 -0.1516 0.2311
v -0.5458 -0.1693 0.3039
vn -0.8119 -0.1858 -0.5535
v -0.5156 -0.0871 0.2416
v -0.4204 -0.0751 0.2416
v -0.4092 -0.1160 0.2311
vn -0.0303 0.2395 -0.9704
v -0.5156 -0.0871 0.2416
v -0.4092 -0.1160 0.2311
v -0.5003 -0.1516 0.2311
vn -0.0572 0.1465 -0.9876
v -0.4204 -0.0751 0.2416
v -0.3727 -0.0691 0.3039
v -0.3637 -0.0982 0.3039
vn 0.7610 0.2354 -0.6045
v -0.4204 -0.0751 0.2416
v -0.3637 -0.0982 0.3039
v -0.4092 -0.1160 0.2311
vn 0.7544 0.3473 -0.5570
v -0.3637 -0.0982 0.3039
v -0.4092 -0.1160 0.3766
v -0.3873 -0.1551 0.3813
vn 0.6989 0.4580 0.5493
v -0.3637 -0.0982 0.3039
v -0.3873 -0.1551 0.3813
v -0.3468 -0.1262 0.3039
vn 0.7196 0.4366 0.5399
v -0.4092 -0.1160 0.3766
v -0.5003 -0.1516 0.3766
v -0.4684 -0.2128 0.3813
vn -0.0246 0.0629 0.9977
v -0.4092 -0.1160 0.3766
v -0.4684 -0.2128 0.3813
v -0.3873 -0.1551 0.3813
vn -0.0602 0.0845 0.9946
v -0.5003 -0.1516 0.3766
v -0.5458 -0.1693 0.3039
v -0.5090 -0.2417 0.3039
vn -0.7407 -0.3774 0.5558
v -0.5003 -0.1516 0.3766
v -0.5090 -0.2417 0.3039
v -0.4684 -0.2128 0.3813
vn -0.7655 -0.3580 0.5347
v -0.5458 -0.1693 0.3039
v -0.5003 -0.1516 0.2311
v -0.4684 -0.2128 0.2265
vn -0.7532 -0.3499 -0.5569
v -0.5458 -0.1693 0.3039
v -0.4684 -0.2128 0.2265
v -0.5090 -0.2417 0.3039
vn -0.7517 -0.3831 -0.5368
v -0.5003 -0.1516 0.2311
v -0.4092 -0.1160 0.2311
v -0.3873 -0.1551 0.2265
vn -0.0379 0.0970 -0.9946
v -0.5003 -0.1516 0.2311
v -0.3873 -0.1551 0.2265
v -0.4684 -0.2128 0.2265
vn -0.0393 0.0552 -0.9977
v -0.4092 -0.1160 0.2311
v -0.3637 -0.0982 0.3039
v -0.3468 -0.1262 0.3039
vn 0.7129 0.4326 -0.5519
v -0.4092 -0.1160 0.2311
v -0.3468 -0.1262 0.3039
v -0.3873 -0.1551 0.2265
vn 0.7043 0.4600 -0.5407
v -0.3468 -0.1262 0.3039
v -0.3873 -0.1551 0.3813
v -0.3548 -0.1894 0.3777
vn 0.6386 0.5489 0.5394
v -0.3468 -0.1262 0.3039
v -0.3548 -0.1894 0.3777
v -0.3219 -0.1508 0.3039
vn 0.5801 0.5865 0.5652
v -0.3873 -0.1551 0.3813
v -0.4684 -0.2128 0.3813
v -0.4206 -0.2666 0.3777
vn 0.0288 -0.0404 0.9988
v -0.3873 -0.1551 0.3813
v -0.4206 -0.2666 0.3777
v -0.3548 -0.1894 0.3777
vn 0.0574 -0.0489 0.9972
v -0.4684 -0.2128 0.3813
v -0.5090 -0.2417 0.3039
v -0.4535 -0.3052 0.3039
vn -0.6345 -0.5538 0.5391
v -0.4684 -0.2128 0.3813
v -0.4535 -0.3052 0.3039
v -0.4206 -0.2666 0.3777
vn -0.5984 -0.5690 0.5641
v -0.5090 -0.2417 0.3039
v -0.4684 -0.2128 0.2265
v -0.4206 -0.2666 0.2300
vn -0.6126 -0.5798 -0.5373
v -0.5090 -0.2417 0.3039
v -0.4206 -0.2666 0.2300
v -0.4535 -0.3052 0.3039
vn -0.6231 -0.5439 -0.5621
v -0.4684 -0.2128 0.2265
v -0.3873 -0.1551 0.2265
v -0.3548 -0.1894 0.2300
vn 0.0439 -0.0616 -0.9971
v -0.4684 -0.2128 0.2265
v -0.3548 -0.1894 0.2300
v -0.4206 -0.2666 0.2300
vn 0.0379 -0.0323 -0.9988
v -0.3873 -0.1551 0.2265
v -0.3468 -0.1262 0.3039
v -0.3219 -0.1508 0.3039
vn 0.5940 0.6005 -0.5353
v -0.3873 -0.1551 0.2265
v -0.3219 -0.1508 0.3039
v -0.3548 -0.1894 0.2300
vn 0.6291 0.5376 -0.5614
v -0.3219 -0.1508 0.3039
v -0.3548 -0.1894 0.3777
v -0.3127 -0.2162 0.3684
vn 0.5275 0.6333 0.5662
v -0.3219 -0.1508 0.3039
v -0.3127 -0.2162 0.3684
v -0.2898 -0.1698 0.3039
vn 0.3978 0.6723 0.6243
v -0.3548 -0.1894 0.3777
v -0.4206 -0.2666 0.3777
v -0.3585 -0.3089 0.3684
vn 0.0941 -0.0801 0.9923
v -0.3548 -0.1894 0.3777
v -0.3585 -0.3089 0.3684
v -0.3127 -0.2162 0.3684
vn 0.1651 -0.0816 0.9829
v -0.4206 -0.2666 0.3777
v -0.4535 -0.3052 0.3039
v -0.3814 -0.3553 0.3039
vn -0.4708 -0.6781 0.5644
v -0.4206 -0.2666 0.3777
v -0.3814 -0.3553 0.3039
v -0.3585 -0.3089 0.3684
vn -0.3733 -0.6856 0.6251
v -0.4535 -0.3052 0.3039
v -0.4206 -0.2666 0.2300
v -0.3585 -0.3089 0.2393
vn -0.4078 -0.7218 -0.5592
v -0.4535 -0.3052 0.3039
v -0.3585 -0.3089 0.2393
v -0.3814 -0.3553 0.3039
vn -0.4469 -0.6437 -0.6212
v -0.4206 -0.2666 0.2300
v -0.3548 -0.1894 0.2300
v -0.3127 -0.2162 0.2393
vn 0.1407 -0.1199 -0.9828
v -0.4206 -0.2666 0.2300
v -0.3127 -0.2162 0.2393
v -0.3585 -0.3089 0.2393
vn 0.1112 -0.0550 -0.9923
v -0.3548 -0.1894 0.2300
v -0.3219 -0.1508 0.3039
v -0.2898 -0.1698 0.3039
vn 0.4217 0.7127 -0.5606
v -0.3548 -0.1894 0.2300
v -0.2898 -0.1698 0.3039
v -0.3127 -0.2162 0.2393
vn 0.5157 0.5985 -0.6131
v -0.2898 -0.1698 0.3039
v -0.3127 -0.2162 0.3684
v -0.2627 -0.2327 0.3594
vn 0.3450 0.7000 0.6253
v -0.2898 -0.1698 0.3039
v -0.2627 -0.2327 0.3594
v -0.2516 -0.1811 0.3039
vn 0.2066 0.6957 0.6880
v -0.3127 -0.2162 0.3684
v -0.3585 -0.3089 0.3684
v -0.2850 -0.3359 0.3594
vn 0.1034 -0.0511 0.9933
v -0.3127 -0.2162 0.3684
v -0.2850 -0.3359 0.3594
v -0.2627 -0.2327 0.3594
vn 0.1664 -0.0359 0.9854
v -0.3585 -0.3089 0.3684
v -0.3814 -0.3553 0.3039
v -0.2961 -0.3874 0.3039
vn -0.2758 -0.7315 0.6235
v -0.3585 -0.3089 0.3684
v -0.2961 -0.3874 0.3039
v -0.2850 -0.3359 0.3594
vn -0.1734 -0.7038 0.6889
v -0.3814 -0.3553 0.3039
v -0.3585 -0.3089 0.2393
v -0.2850 -0.3359 0.2484
vn -0.2026 -0.7598 -0.6178
v -0.3814 -0.3553 0.3039
v -0.2850 -0.3359 0.2484
v -0.2961 -0.3874 0.3039
vn -0.2570 -0.6816 -0.6851
v -0.3585 -0.3089 0.2393
v -0.3127 -0.2162 0.2393
v -0.2627 -0.2327 0.2484
vn 0.1532 -0.0757 -0.9853
v -0.3585 -0.3089 0.2393
v -0.2627 -0.2327 0.2484
v -0.2850 -0.3359 0.2484
vn 0.1132 -0.0244 -0.9933
v -0.3127 -0.2162 0.2393
v -0.2898 -0.1698 0.3039
v -0.2516 -0.1811 0.3039
vn 0.2234 0.7523 -0.6198
v -0.3127 -0.2162 0.2393
v -0.2516 -0.1811 0.3039
v -0.2627 -0.2327 0.2484
vn 0.3390 0.6543 -0.6760
v -0.2516 -0.1811 0.3039
v -0.2627 -0.2327 0.3594
v -0.2073 -0.2368 0.3566
vn 0.0869 0.7210 0.6875
v -0.2516 -0.1811 0.3039
v -0.2073 -0.2368 0.3566
v -0.2091 -0.1830 0.3039
vn 0.0301 0.7003 0.7132
v -0.2627 -0.2327 0.3594
v -0.2850 -0.3359 0.3594
v -0.2037 -0.3444 0.3566
vn 0.0328 -0.0071 0.9994
v -0.2627 -0.2327 0.3594
v -0.2037 -0.3444 0.3566
v -0.2073 -0.2368 0.3566
vn 0.0493 0.0017 0.9988
v -0.2850 -0.3359 0.3594
v -0.2961 -0.3874 0.3039
v -0.2018 -0.3983 0.3039
vn -0.0828 -0.7217 0.6873
v -0.2850 -0.3359 0.3594
v -0.2018 -0.3983 0.3039
v -0.2037 -0.3444 0.3566
vn -0.0499 -0.7001 0.7123
v -0.2961 -0.3874 0.3039
v -0.2850 -0.3359 0.2484
v -0.2037 -0.3444 0.2511
vn -0.0535 -0.7261 -0.6855
v -0.2961 -0.3874 0.3039
v -0.2037 -0.3444 0.2511
v -0.2018 -0.3983 0.3039
vn -0.0802 -0.6992 -0.7104
v -0.2850 -0.3359 0.2484
v -0.2627 -0.2327 0.2484
v -0.2073 -0.2368 0.2511
vn 0.0484 -0.0105 -0.9988
v -0.2850 -0.3359 0.2484
v -0.2073 -0.2368 0.2511
v -0.2037 -0.3444 0.2511
vn 0.0337 0.0011 -0.9994
v -0.2627 -0.2327 0.2484
v -0.2516 -0.1811 0.3039
v -0.2091 -0.1830 0.3039
vn 0.0313 0.7290 -0.6838
v -0.2627 -0.2327 0.2484
v -0.2091 -0.1830 0.3039
v -0.2073 -0.2368 0.2511
vn 0.0864 0.6989 -0.7099
v -0.2091 -0.1830 0.3039
v -0.2073 -0.2368 0.3566
v -0.1496 -0.2267 0.3627
vn -0.1940 0.6834 0.7038
v -0.2091 -0.1830 0.3039
v -0.1496 -0.2267 0.3627
v -0.1649 -0.1739 0.3039
vn -0.1474 0.7168 0.6816
v -0.2073 -0.2368 0.3566
v -0.2037 -0.3444 0.3566
v -0.1192 -0.3324 0.3627
vn -0.0718 -0.0024 0.9974
v -0.2073 -0.2368 0.3566
v -0.1192 -0.3324 0.3627
v -0.1496 -0.2267 0.3627
vn -0.1002 -0.0289 0.9945
v -0.2037 -0.3444 0.3566
v -0.2018 -0.3983 0.3039
v -0.1040 -0.3853 0.3039
vn 0.0924 -0.6955 0.7126
v -0.2037 -0.3444 0.3566
v -0.1040 -0.3853 0.3039
v -0.1192 -0.3324 0.3627
vn 0.0560 -0.7357 0.6750
v -0.2018 -0.3983 0.3039
v -0.2037 -0.3444 0.2511
v -0.1192 -0.3324 0.2450
vn 0.0478 -0.6984 -0.7141
v -0.2018 -0.3983 0.3039
v -0.1192 -0.3324 0.2450
v -0.1040 -0.3853 0.3039
vn 0.0967 -0.7281 -0.6786
v -0.2037 -0.3444 0.2511
v -0.2073 -0.2368 0.2511
v -0.1496 -0.2267 0.2450
vn -0.1047 -0.0036 -0.9945
v -0.2037 -0.3444 0.2511
v -0.1496 -0.2267 0.2450
v -0.1192 -0.3324 0.2450
vn -0.0693 -0.0199 -0.9974
v -0.2073 -0.2368 0.2511
v -0.2091 -0.1830 0.3039
v -0.1649 -0.1739 0.3039
vn -0.1420 0.6905 -0.7093
v -0.2073 -0.2368 0.2511
v -0.1649 -0.1739 0.3039
v -0.1496 -0.2267 0.2450
vn -0.1953 0.7042 -0.6826
v -0.1649 -0.1739 0.3039
v -0.1496 -0.2267 0.3627
v -0.0933 -0.2016 0.3750
vn -0.4205 0.6184 0.6639
v -0.1649 -0.1739 0.3039
v -0.0933 -0.2016 0.3750
v -0.1216 -0.1530 0.3039
vn -0.3408 0.7079 0.6186
v -0.1496 -0.2267 0.3627
v -0.1192 -0.3324 0.3627
v -0.0368 -0.2987 0.3750
vn -0.1321 -0.0380 0.9905
v -0.1496 -0.2267 0.3627
v -0.0368 -0.2987 0.3750
v -0.0933 -0.2016 0.3750
vn -0.1697 -0.0987 0.9805
v -0.1192 -0.3324 0.3627
v -0.1040 -0.3853 0.3039
v -0.0085 -0.3473 0.3039
vn 0.2706 -0.6806 0.6809
v -0.1192 -0.3324 0.3627
v -0.0085 -0.3473 0.3039
v -0.0368 -0.2987 0.3750
vn 0.2209 -0.7624 0.6082
v -0.1040 -0.3853 0.3039
v -0.1192 -0.3324 0.2450
v -0.0368 -0.2987 0.2327
vn 0.1870 -0.7065 -0.6826
v -0.1040 -0.3853 0.3039
v -0.0368 -0.2987 0.2327
v -0.0085 -0.3473 0.3039
vn 0.2912 -0.7323 -0.6156
v -0.1192 -0.3324 0.2450
v -0.1496 -0.2267 0.2450
v -0.0933 -0.2016 0.2327
vn -0.1894 -0.0545 -0.9804
v -0.1192 -0.3324 0.2450
v -0.0933 -0.2016 0.2327
v -0.0368 -0.2987 0.2327
vn -0.1192 -0.0694 -0.9904
v -0.1496 -0.2267 0.2450
v -0.1649 -0.1739 0.3039
v -0.1216 -0.1530 0.3039
vn -0.3191 0.6628 -0.6775
v -0.1496 -0.2267 0.2450
v -0.1216 -0.1530 0.3039
v -0.0933 -0.2016 0.2327
vn -0.4284 0.6580 -0.6193
v -0.1216 -0.1530 0.3039
v -0.0933 -0.2016 0.3750
v -0.0422 -0.1614 0.3871
vn -0.5753 0.5510 0.6046
v -0.1216 -0.1530 0.3039
v -0.0422 -0.1614 0.3871
v -0.0823 -0.1203 0.3039
vn -0.5272 0.6329 0.5670
v -0.0933 -0.2016 0.3750
v -0.0368 -0.2987 0.3750
v 0.0381 -0.2436 0.3871
vn -0.1117 -0.0650 0.9916
v -0.0933 -0.2016 0.3750
v 0.0381 -0.2436 0.3871
v -0.0422 -0.1614 0.3871
vn -0.1311 -0.1280 0.9831
v -0.0368 -0.2987 0.3750
v -0.0085 -0.3473 0.3039
v 0.0783 -0.2847 0.3039
vn 0.4599 -0.6377 0.6180
v -0.0368 -0.2987 0.3750
v 0.0783 -0.2847 0.3039
v 0.0381 -0.2436 0.3871
vn 0.4316 -0.7086 0.5583
v -0.0085 -0.3473 0.3039
v -0.0368 -0.2987 0.2327
v 0.0381 -0.2436 0.2207
vn 0.3980 -0.6764 -0.6198
v -0.0085 -0.3473 0.3039
v 0.0381 -0.2436 0.2207
v 0.0783 -0.2847 0.3039
vn 0.4830 -0.6698 -0.5640
v -0.0368 -0.2987 0.2327
v -0.0933 -0.2016 0.2327
v -0.0422 -0.1614 0.2207
vn -0.1589 -0.0925 -0.9830
v -0.0368 -0.2987 0.2327
v -0.0422 -0.1614 0.2207
v 0.0381 -0.2436 0.2207
vn -0.0928 -0.0906 -0.9916
v -0.0933 -0.2016 0.2327
v -0.1216 -0.1530 0.3039
v -0.0823 -0.1203 0.3039
vn -0.5050 0.6062 -0.6144
v -0.0933 -0.2016 0.2327
v -0.0823 -0.1203 0.3039
v -0.0422 -0.1614 0.2207
vn -0.5870 0.5768 -0.5681
v -0.0823 -0.1203 0.3039
v -0.0422 -0.1614 0.3871
v -0.0003 -0.1072 0.3924
vn -0.6805 0.4712 0.5611
v -0.0823 -0.1203 0.3039
v -0.0003 -0.1072 0.3924
v -0.0503 -0.0765 0.3039
vn -0.6737 0.4915 0.5518
v -0.0422 -0.1614 0.3871
v 0.0381 -0.2436 0.3871
v 0.0999 -0.1688 0.3924
vn -0.0395 -0.0385 0.9985
v -0.0422 -0.1614 0.3871
v 0.0999 -0.1688 0.3924
v -0.0003 -0.1072 0.3924
vn -0.0409 -0.0665 0.9969
v 0.0381 -0.2436 0.3871
v 0.0783 -0.2847 0.3039
v 0.1500 -0.1995 0.3039
vn 0.6305 -0.5307 0.5664
v 0.0381 -0.2436 0.3871
v 0.1500 -0.1995 0.3039
v 0.0999 -0.1688 0.3924
vn 0.6260 -0.5556 0.5471
v 0.0783 -0.2847 0.3039
v 0.0381 -0.2436 0.2207
v 0.0999 -0.1688 0.2153
vn 0.6148 -0.5479 -0.5673
v 0.0783 -0.2847 0.3039
v 0.0999 -0.1688 0.2153
v 0.1500 -0.1995 0.3039
vn 0.6396 -0.5383 -0.5488
v 0.0381 -0.2436 0.2207
v -0.0422 -0.1614 0.2207
v -0.0003 -0.1072 0.2153
vn -0.0561 -0.0548 -0.9969
v 0.0381 -0.2436 0.2207
v -0.0003 -0.1072 0.2153
v 0.0999 -0.1688 0.2153
vn -0.0290 -0.0472 -0.9985
v -0.0422 -0.1614 0.2207
v -0.0823 -0.1203 0.3039
v -0.0503 -0.0765 0.3039
vn -0.6677 0.4872 -0.5628
v -0.0422 -0.1614 0.2207
v -0.0503 -0.0765 0.3039
v -0.0003 -0.1072 0.2153
vn -0.6847 0.4754 -0.5525
v -0.0503 -0.0765 0.3039
v -0.0003 -0.1072 0.3924
v 0.0286 -0.0411 0.3884
vn -0.7518 0.3622 0.5511
v -0.0503 -0.0765 0.3039
v 0.0286 -0.0411 0.3884
v -0.0288 -0.0231 0.3039
vn -0.7561 0.3058 0.5787
v -0.0003 -0.1072 0.3924
v 0.0999 -0.1688 0.3924
v 0.1434 -0.0772 0.3884
vn 0.0209 0.0341 0.9992
v -0.0003 -0.1072 0.3924
v 0.1434 -0.0772 0.3884
v 0.0286 -0.0411 0.3884
vn 0.0168 0.0536 0.9984
v 0.0999 -0.1688 0.3924
v 0.1500 -0.1995 0.3039
v 0.2008 -0.0952 0.3039
vn 0.7501 -0.3654 0.5512
v 0.0999 -0.1688 0.3924
v 0.2008 -0.0952 0.3039
v 0.1434 -0.0772 0.3884
vn 0.7469 -0.3295 0.5775
v 0.1500 -0.1995 0.3039
v 0.0999 -0.1688 0.2153
v 0.1434 -0.0772 0.2194
vn 0.7637 -0.3386 -0.5496
v 0.1500 -0.1995 0.3039
v 0.1434 -0.0772 0.2194
v 0.2008 -0.0952 0.3039
vn 0.7351 -0.3581 -0.5756
v 0.0999 -0.1688 0.2153
v -0.0003 -0.1072 0.2153
v 0.0286 -0.0411 0.2194
vn 0.0295 0.0480 -0.9984
v 0.0999 -0.1688 0.2153
v 0.0286 -0.0411 0.2194
v 0.1434 -0.0772 0.2194
vn 0.0120 0.0383 -0.9992
v -0.0003 -0.1072 0.2153
v -0.0503 -0.0765 0.3039
v -0.0288 -0.0231 0.3039
vn -0.7756 0.3137 -0.5477
v -0.0003 -0.1072 0.2153
v -0.0288 -0.0231 0.3039
v 0.0286 -0.0411 0.2194
vn -0.7357 0.3567 -0.5757
v -0.0288 -0.0231 0.3039
v 0.0286 -0.0411 0.3884
v 0.0412 0.0338 0.3779
vn -0.7867 0.2127 0.5796
v -0.0288 -0.0231 0.3039
v 0.0412 0.0338 0.3779
v -0.0203 0.0373 0.3039
vn -0.7623 0.1061 0.6385
v 0.0286 -0.0411 0.3884
v 0.1434 -0.0772 0.3884
v 0.1641 0.0266 0.3779
vn 0.0297 0.0946 0.9951
v 0.0286 -0.0411 0.3884
v 0.1641 0.0266 0.3779
v 0.0412 0.0338 0.3779
vn 0.0080 0.1374 0.9905
v 0.1434 -0.0772 0.3884
v 0.2008 -0.0952 0.3039
v 0.2256 0.0231 0.3039
vn 0.7986 -0.1677 0.5781
v 0.1434 -0.0772 0.3884
v 0.2256 0.0231 0.3039
v 0.1641 0.0266 0.3779
vn 0.7641 -0.0880 0.6391
v 0.2008 -0.0952 0.3039
v 0.1434 -0.0772 0.2194
v 0.1641 0.0266 0.2299
vn 0.8123 -0.1042 -0.5739
v 0.2008 -0.0952 0.3039
v 0.1641 0.0266 0.2299
v 0.2256 0.0231 0.3039
vn 0.7556 -0.1587 -0.6355
v 0.1434 -0.0772 0.2194
v 0.0286 -0.0411 0.2194
v 0.0412 0.0338 0.2299
vn 0.0414 0.1318 -0.9904
v 0.1434 -0.0772 0.2194
v 0.0412 0.0338 0.2299
v 0.1641 0.0266 0.2299
vn 0.0058 0.0994 -0.9950
v 0.0286 -0.0411 0.2194
v -0.0288 -0.0231 0.3039
v -0.0203 0.0373 0.3039
vn -0.8106 0.1128 -0.5746
v 0.0286 -0.0411 0.2194
v -0.0203 0.0373 0.3039
v 0.0412 0.0338 0.2299
vn -0.7464 0.2131 -0.6304
v -0.0203 0.0373 0.3039
v 0.0412 0.0338 0.3779
v 0.0347 0.1134 0.3679
vn -0.7686 0.0181 0.6395
v -0.0203 0.0373 0.3039
v 0.0347 0.1134 0.3679
v -0.0273 0.1016 0.3039
vn -0.7090 -0.0767 0.7010
v 0.0412 0.0338 0.3779
v 0.1641 0.0266 0.3779
v 0.1587 0.1371 0.3679
vn 0.0052 0.0906 0.9959
v 0.0412 0.0338 0.3779
v 0.1587 0.1371 0.3679
v 0.0347 0.1134 0.3679
vn -0.0235 0.1228 0.9921
v 0.1641 0.0266 0.3779
v 0.2256 0.0231 0.3039
v 0.2207 0.1490 0.3039
vn 0.7695 0.0303 0.6379
v 0.1641 0.0266 0.3779
v 0.2207 0.1490 0.3039
v 0.1587 0.1371 0.3679
vn 0.7056 0.0985 0.7017
v 0.2256 0.0231 0.3039
v 0.1641 0.0266 0.2299
v 0.1587 0.1371 0.2399
vn 0.7679 0.0954 -0.6334
v 0.2256 0.0231 0.3039
v 0.1587 0.1371 0.2399
v 0.2207 0.1490 0.3039
vn 0.7154 0.0282 -0.6982
v 0.1641 0.0266 0.2299
v 0.0412 0.0338 0.2299
v 0.0347 0.1134 0.2399
vn 0.0072 0.1253 -0.9921
v 0.1641 0.0266 0.2299
v 0.0347 0.1134 0.2399
v 0.1587 0.1371 0.2399
vn -0.0171 0.0895 -0.9958
v 0.0412 0.0338 0.2299
v -0.0203 0.0373 0.3039
v -0.0273 0.1016 0.3039
vn -0.7684 -0.0831 -0.6345
v 0.0412 0.0338 0.2299
v -0.0273 0.1016 0.3039
v 0.0347 0.1134 0.2399
vn -0.7206 0.0287 -0.6927
v -0.0273 0.1016 0.3039
v 0.0347 0.1134 0.3679
v 0.0077 0.1931 0.3653
vn -0.6827 -0.2093 0.7001
v -0.0273 0.1016 0.3039
v 0.0077 0.1931 0.3653
v -0.0510 0.1658 0.3039
vn -0.6470 -0.2390 0.7240
v 0.0347 0.1134 0.3679
v 0.1587 0.1371 0.3679
v 0.1250 0.2477 0.3653
vn -0.0042 0.0219 0.9998
v 0.0347 0.1134 0.3679
v 0.1250 0.2477 0.3653
v 0.0077 0.1931 0.3653
vn -0.0129 0.0278 0.9995
v 0.1587 0.1371 0.3679
v 0.2207 0.1490 0.3039
v 0.1837 0.2749 0.3039
vn 0.6847 0.2012 0.7005
v 0.1587 0.1371 0.3679
v 0.1837 0.2749 0.3039
v 0.1250 0.2477 0.3653
vn 0.6561 0.2167 0.7229
v 0.2207 0.1490 0.3039
v 0.1587 0.1371 0.2399
v 0.1250 0.2477 0.2424
vn 0.6792 0.2232 -0.6992
v 0.2207 0.1490 0.3039
v 0.1250 0.2477 0.2424
v 0.1837 0.2749 0.3039
vn 0.6645 0.1952 -0.7213
v 0.1587 0.1371 0.2399
v 0.0347 0.1134 0.2399
v 0.0077 0.1931 0.2424
vn -0.0058 0.0302 -0.9995
v 0.1587 0.1371 0.2399
v 0.0077 0.1931 0.2424
v 0.1250 0.2477 0.2424
vn -0.0094 0.0203 -0.9997
v 0.0347 0.1134 0.2399
v -0.0273 0.1016 0.3039
v -0.0510 0.1658 0.3039
vn -0.6724 -0.2483 -0.6973
v 0.0347 0.1134 0.2399
v -0.0510 0.1658 0.3039
v 0.0077 0.1931 0.2424
vn -0.6621 -0.2016 -0.7218
v -0.0510 0.1658 0.3039
v 0.0077 0.1931 0.3653
v -0.0404 0.2674 0.3730
vn -0.5500 -0.4298 0.7161
v -0.0510 0.1658 0.3039
v -0.0404 0.2674 0.3730
v -0.0919 0.2256 0.3039
vn -0.5965 -0.4080 0.6912
v 0.0077 0.1931 0.3653
v 0.1250 0.2477 0.3653
v 0.0627 0.3511 0.3730
vn 0.0271 -0.0582 0.9979
v 0.0077 0.1931 0.3653
v 0.0627 0.3511 0.3730
v -0.0404 0.2674 0.3730
vn 0.0551 -0.0679 0.9962
v 0.1250 0.2477 0.3653
v 0.1837 0.2749 0.3039
v 0.1142 0.3929 0.3039
vn 0.5948 0.3502 0.7236
v 0.1250 0.2477 0.3653
v 0.1142 0.3929 0.3039
v 0.0627 0.3511 0.3730
vn 0.6454 0.3377 0.6851
v 0.1837 0.2749 0.3039
v 0.1250 0.2477 0.2424
v 0.0627 0.3511 0.2347
vn 0.6126 0.3150 -0.7249
v 0.1837 0.2749 0.3039
v 0.0627 0.3511 0.2347
v 0.1142 0.3929 0.3039
vn 0.6251 0.3681 -0.6883
v 0.1250 0.2477 0.2424
v 0.0077 0.1931 0.2424
v -0.0404 0.2674 0.2347
vn 0.0370 -0.0796 -0.9961
v 0.1250 0.2477 0.2424
v -0.0404 0.2674 0.2347
v 0.0627 0.3511 0.2347
vn 0.0406 -0.0501 -0.9979
v 0.0077 0.1931 0.2424
v -0.0510 0.1658 0.3039
v -0.0919 0.2256 0.3039
vn -0.5724 -0.3915 -0.7205
v 0.0077 0.1931 0.2424
v -0.0919 0.2256 0.3039
v -0.0404 0.2674 0.2347
vn -0.5712 -0.4411 -0.6923
v -0.0919 0.2256 0.3039
v -0.0404 0.2674 0.3730
v -0.1085 0.3309 0.3879
vn -0.4175 -0.6057 0.6773
v -0.0919 0.2256 0.3039
v -0.1085 0.3309 0.3879
v -0.1493 0.2764 0.3039
vn -0.5156 -0.5823 0.6286
v -0.0404 0.2674 0.3730
v 0.0627 0.3511 0.3730
v -0.0268 0.4400 0.3879
vn 0.0740 -0.0912 0.9931
v -0.0404 0.2674 0.3730
v -0.0268 0.4400 0.3879
v -0.1085 0.3309 0.3879
vn 0.1267 -0.0948 0.9874
v 0.0627 0.3511 0.3730
v 0.1142 0.3929 0.3039
v 0.0140 0.4945 0.3039
vn 0.5148 0.5078 0.6907
v 0.0627 0.3511 0.3730
v 0.0140 0.4945 0.3039
v -0.0268 0.4400 0.3879
vn 0.6025 0.5032 0.6195
v 0.1142 0.3929 0.3039
v 0.0627 0.3511 0.2347
v -0.0268 0.4400 0.2199
vn 0.5630 0.4513 -0.6924
v 0.1142 0.3929 0.3039
v -0.0268 0.4400 0.2199
v 0.0140 0.4945 0.3039
vn 0.5554 0.5479 -0.6256
v 0.0627 0.3511 0.2347
v -0.0404 0.2674 0.2347
v -0.1085 0.3309 0.2199
vn 0.1001 -0.1233 -0.9873
v 0.0627 0.3511 0.2347
v -0.1085 0.3309 0.2199
v -0.0268 0.4400 0.2199
vn 0.0944 -0.0706 -0.9930
v -0.0404 0.2674 0.2347
v -0.0919 0.2256 0.3039
v -0.1493 0.2764 0.3039
vn -0.4814 -0.5437 -0.6875
v -0.0404 0.2674 0.2347
v -0.1493 0.2764 0.3039
v -0.1085 0.3309 0.2199
vn -0.4520 -0.6317 -0.6298
v -0.1493 0.2764 0.3039
v -0.1085 0.3309 0.3879
v -0.1942 0.3782 0.4022
vn -0.2981 -0.7280 0.6174
v -0.1493 0.2764 0.3039
v -0.1942 0.3782 0.4022
v -0.2212 0.3137 0.3039
vn -0.3758 -0.7243 0.5781
v -0.1085 0.3309 0.3879
v -0.0268 0.4400 0.3879
v -0.1403 0.5073 0.4022
vn 0.0873 -0.0653 0.9940
v -0.1085 0.3309 0.3879
v -0.1403 0.5073 0.4022
v -0.1942 0.3782 0.4022
vn 0.1348 -0.0564 0.9893
v -0.0268 0.4400 0.3879
v 0.0140 0.4945 0.3039
v -0.1133 0.5718 0.3039
vn 0.4040 0.6651 0.6281
v -0.0268 0.4400 0.3879
v -0.1133 0.5718 0.3039
v -0.1403 0.5073 0.4022
vn 0.4714 0.6726 0.5704
v 0.0140 0.4945 0.3039
v -0.0268 0.4400 0.2199
v -0.1403 0.5073 0.2055
vn 0.4539 0.6303 -0.6298
v 0.0140 0.4945 0.3039
v -0.1403 0.5073 0.2055
v -0.1133 0.5718 0.3039
vn 0.4247 0.6992 -0.5751
v -0.0268 0.4400 0.2199
v -0.1085 0.3309 0.2199
v -0.1942 0.3782 0.2055
vn 0.1174 -0.0879 -0.9892
v -0.0268 0.4400 0.2199
v -0.1942 0.3782 0.2055
v -0.1403 0.5073 0.2055
vn 0.1010 -0.0422 -0.9940
v -0.1085 0.3309 0.2199
v -0.1493 0.2764 0.3039
v -0.2212 0.3137 0.3039
vn -0.3596 -0.6931 -0.6247
v -0.1085 0.3309 0.2199
v -0.2212 0.3137 0.3039
v -0.1942 0.3782 0.2055
vn -0.3170 -0.7508 -0.5794
v -0.2212 0.3137 0.3039
v -0.1942 0.3782 0.4022
v -0.2938 0.4045 0.4086
vn -0.1744 -0.8007 0.5731
v -0.2212 0.3137 0.3039
v -0.2938 0.4045 0.4086
v -0.3045 0.3334 0.3039
vn -0.1901 -0.8033 0.5644
v -0.1942 0.3782 0.4022
v -0.1403 0.5073 0.4022
v -0.2724 0.5466 0.4086
vn 0.0428 -0.0179 0.9989
v -0.1942 0.3782 0.4022
v -0.2724 0.5466 0.4086
v -0.2938 0.4045 0.4086
vn 0.0613 -0.0092 0.9981
v -0.1403 0.5073 0.4022
v -0.1133 0.5718 0.3039
v -0.2617 0.6176 0.3039
vn 0.2408 0.7800 0.5776
v -0.1403 0.5073 0.4022
v -0.2617 0.6176 0.3039
v -0.2724 0.5466 0.4086
vn 0.2608 0.7863 0.5601
v -0.1133 0.5718 0.3039
v -0.1403 0.5073 0.2055
v -0.2724 0.5466 0.1991
vn 0.2580 0.7739 -0.5784
v -0.1133 0.5718 0.3039
v -0.2724 0.5466 0.1991
v -0.2617 0.6176 0.3039
vn 0.2442 0.7907 -0.5614
v -0.1403 0.5073 0.2055
v -0.1942 0.3782 0.2055
v -0.2938 0.4045 0.1991
vn 0.0574 -0.0240 -0.9981
v -0.1403 0.5073 0.2055
v -0.2938 0.4045 0.1991
v -0.2724 0.5466 0.1991
vn 0.0460 -0.0069 -0.9989
v -0.1942 0.3782 0.2055
v -0.2212 0.3137 0.3039
v -0.3045 0.3334 0.3039
vn -0.1886 -0.7967 -0.5743
v -0.1942 0.3782 0.2055
v -0.3045 0.3334 0.3039
v -0.2938 0.4045 0.1991
vn -0.1764 -0.8061 -0.5649
v -0.3045 0.3334 0.3039
v -0.2938 0.4045 0.4086
v -0.4020 0.4057 0.4039
vn -0.0337 -0.8255 0.5634
v -0.3045 0.3334 0.3039
v -0.4020 0.4057 0.4039
v -0.3949 0.3322 0.3039
vn 0.0111 -0.8054 0.5926
v -0.2938 0.4045 0.4086
v -0.2724 0.5466 0.4086
v -0.4164 0.5527 0.4039
vn -0.0324 0.0049 0.9995
v -0.2938 0.4045 0.4086
v -0.4164 0.5527 0.4039
v -0.4020 0.4057 0.4039
vn -0.0434 -0.0042 0.9990
v -0.2724 0.5466 0.4086
v -0.2617 0.6176 0.3039
v -0.4235 0.6262 0.3039
vn 0.0438 0.8247 0.5639
v -0.2724 0.5466 0.4086
v -0.4235 0.6262 0.3039
v -0.4164 0.5527 0.4039
vn 0.0151 0.8062 0.5914
v -0.2617 0.6176 0.3039
v -0.2724 0.5466 0.1991
v -0.4164 0.5527 0.2038
vn 0.0169 0.8266 -0.5625
v -0.2617 0.6176 0.3039
v -0.4164 0.5527 0.2038
v -0.4235 0.6262 0.3039
vn 0.0429 0.8065 -0.5896
v -0.2724 0.5466 0.1991
v -0.2938 0.4045 0.1991
v -0.4020 0.4057 0.2038
vn -0.0433 0.0065 -0.9990
v -0.2724 0.5466 0.1991
v -0.4020 0.4057 0.2038
v -0.4164 0.5527 0.2038
vn -0.0328 -0.0032 -0.9995
v -0.2938 0.4045 0.1991
v -0.3045 0.3334 0.3039
v -0.3949 0.3322 0.3039
vn 0.0114 -0.8280 -0.5606
v -0.2938 0.4045 0.1991
v -0.3949 0.3322 0.3039
v -0.4020 0.4057 0.2038
vn -0.0347 -0.8065 -0.5902
v -0.3949 0.3322 0.3039
v -0.4020 0.4057 0.4039
v -0.5127 0.3792 0.3917
vn 0.1251 -0.7952 0.5933
v -0.3949 0.3322 0.3039
v -0.5127 0.3792 0.3917
v -0.4871 0.3077 0.3039
vn 0.1947 -0.7320 0.6529
v -0.4020 0.4057 0.4039
v -0.4164 0.5527 0.4039
v -0.5639 0.5222 0.3917
vn -0.0809 -0.0079 0.9967
v -0.4020 0.4057 0.4039
v -0.5639 0.5222 0.3917
v -0.5127 0.3792 0.3917
vn -0.1011 -0.0362 0.9942
v -0.4164 0.5527 0.4039
v -0.4235 0.6262 0.3039
v -0.5895 0.5938 0.3039
vn -0.1548 0.7908 0.5922
v -0.4164 0.5527 0.4039
v -0.5895 0.5938 0.3039
v -0.5639 0.5222 0.3917
vn -0.2048 0.7289 0.6533
v -0.4235 0.6262 0.3039
v -0.4164 0.5527 0.2038
v -0.5639 0.5222 0.2161
vn -0.2101 0.7806 -0.5886
v -0.4235 0.6262 0.3039
v -0.5639 0.5222 0.2161
v -0.5895 0.5938 0.3039
vn -0.1460 0.7458 -0.6500
v -0.4164 0.5527 0.2038
v -0.4020 0.4057 0.2038
v -0.5127 0.3792 0.2161
vn -0.1073 -0.0104 -0.9942
v -0.4164 0.5527 0.2038
v -0.5127 0.3792 0.2161
v -0.5639 0.5222 0.2161
vn -0.0769 -0.0275 -0.9967
v -0.4020 0.4057 0.2038
v -0.3949 0.3322 0.3039
v -0.4871 0.3077 0.3039
vn 0.2078 -0.7811 -0.5888
v -0.4020 0.4057 0.2038
v -0.4871 0.3077 0.3039
v -0.5127 0.3792 0.2161
vn 0.1095 -0.7548 -0.6467
v -0.4871 0.3077 0.3039
v -0.5127 0.3792 0.3917
v -0.6187 0.3238 0.3803
vn 0.2941 -0.6973 0.6536
v -0.4871 0.3077 0.3039
v -0.6187 0.3238 0.3803
v -0.5752 0.2588 0.3039
vn 0.3395 -0.6124 0.7140
v -0.5127 0.3792 0.3917
v -0.5639 0.5222 0.3917
v -0.7057 0.4537 0.3803
vn -0.0685 -0.0245 0.9973
v -0.5127 0.3792 0.3917
v -0.7057 0.4537 0.3803
v -0.6187 0.3238 0.3803
vn -0.0795 -0.0532 0.9954
v -0.5639 0.5222 0.3917
v -0.5895 0.5938 0.3039
v -0.7492 0.5186 0.3039
vn -0.3226 0.6857 0.6525
v -0.5639 0.5222 0.3917
v -0.7492 0.5186 0.3039
v -0.7057 0.4537 0.3803
vn -0.3504 0.6056 0.7145
v -0.5895 0.5938 0.3039
v -0.5639 0.5222 0.2161
v -0.7057 0.4537 0.2275
vn -0.3730 0.6632 -0.6489
v -0.5895 0.5938 0.3039
v -0.7057 0.4537 0.2275
v -0.7492 0.5186 0.3039
vn -0.2992 0.6361 -0.7112
v -0.5639 0.5222 0.2161
v -0.5127 0.3792 0.2161
v -0.6187 0.3238 0.2275
vn -0.0904 -0.0323 -0.9954
v -0.5639 0.5222 0.2161
v -0.6187 0.3238 0.2275
v -0.7057 0.4537 0.2275
vn -0.0607 -0.0407 -0.9973
v -0.5127 0.3792 0.2161
v -0.4871 0.3077 0.3039
v -0.5752 0.2588 0.3039
vn 0.3688 -0.6652 -0.6492
v -0.5127 0.3792 0.2161
v -0.5752 0.2588 0.3039
v -0.6187 0.3238 0.2275
vn 0.2658 -0.6545 -0.7078
v -0.5752 0.2588 0.3039
v -0.6187 0.3238 0.3803
v -0.7126 0.2401 0.3779
vn 0.4568 -0.5323 0.7127
v -0.5752 0.2588 0.3039
v -0.7126 0.2401 0.3779
v -0.6528 0.1862 0.3039
vn 0.4636 -0.4952 0.7347
v -0.6187 0.3238 0.3803
v -0.7057 0.4537 0.3803
v -0.8321 0.3479 0.3779
vn -0.0118 -0.0079 0.9999
v -0.6187 0.3238 0.3803
v -0.8321 0.3479 0.3779
v -0.7126 0.2401 0.3779
vn -0.0125 -0.0139 0.9998
v -0.7057 0.4537 0.3803
v -0.7492 0.5186 0.3039
v -0.8918 0.4019 0.3039
vn -0.4438 0.5420 0.7136
v -0.7057 0.4537 0.3803
v -0.8918 0.4019 0.3039
v -0.8321 0.3479 0.3779
vn -0.4443 0.5147 0.7333
v -0.7492 0.5186 0.3039
v -0.7057 0.4537 0.2275
v -0.8321 0.3479 0.2298
vn -0.4579 0.5315 -0.7126
v -0.7492 0.5186 0.3039
v -0.8321 0.3479 0.2298
v -0.8918 0.4019 0.3039
vn -0.4316 0.5271 -0.7320
v -0.7057 0.4537 0.2275
v -0.6187 0.3238 0.2275
v -0.7126 0.2401 0.2298
vn -0.0156 -0.0104 -0.9998
v -0.7057 0.4537 0.2275
v -0.7126 0.2401 0.2298
v -0.8321 0.3479 0.2298
vn -0.0096 -0.0106 -0.9999
v -0.6187 0.3238 0.2275
v -0.5752 0.2588 0.3039
v -0.6528 0.1862 0.3039
vn 0.4809 -0.5137 -0.7106
v -0.6187 0.3238 0.2275
v -0.6528 0.1862 0.3039
v -0.7126 0.2401 0.2298
vn 0.4424 -0.5166 -0.7331
v -0.6528 0.1862 0.3039
v -0.7126 0.2401 0.3779
v -0.7867 0.1308 0.3880
vn 0.5969 -0.3380 0.7277
v -0.6528 0.1862 0.3039
v -0.7867 0.1308 0.3880
v -0.7135 0.0919 0.3039
vn 0.5999 -0.3863 0.7007
v -0.7126 0.2401 0.3779
v -0.8321 0.3479 0.3779
v -0.9332 0.2085 0.3880
vn 0.0393 0.0436 0.9983
v -0.7126 0.2401 0.3779
v -0.9332 0.2085 0.3880
v -0.7867 0.1308 0.3880
vn 0.0358 0.0675 0.9971
v -0.8321 0.3479 0.3779
v -0.8918 0.4019 0.3039
v -1.0064 0.2473 0.3039
vn -0.5452 0.4044 0.7343
v -0.8321 0.3479 0.3779
v -1.0064 0.2473 0.3039
v -0.9332 0.2085 0.3880
vn -0.5573 0.4544 0.6950
v -0.8918 0.4019 0.3039
v -0.8321 0.3479 0.2298
v -0.9332 0.2085 0.2198
vn -0.5220 0.4317 -0.7356
v -0.8918 0.4019 0.3039
v -0.9332 0.2085 0.2198
v -1.0064 0.2473 0.3039
vn -0.5752 0.4267 -0.6979
v -0.8321 0.3479 0.2298
v -0.7126 0.2401 0.2298
v -0.7867 0.1308 0.2198
vn 0.0514 0.0570 -0.9971
v -0.8321 0.3479 0.2298
v -0.7867 0.1308 0.2198
v -0.9332 0.2085 0.2198
vn 0.0276 0.0520 -0.9983
v -0.7126 0.2401 0.2298
v -0.6528 0.1862 0.3039
v -0.7135 0.0919 0.3039
vn 0.5734 -0.3692 -0.7314
v -0.7126 0.2401 0.2298
v -0.7135 0.0919 0.3039
v -0.7867 0.1308 0.2198
vn 0.6179 -0.3546 -0.7017
v -0.7135 0.0919 0.3039
v -0.7867 0.1308 0.3880
v -0.8343 0.0004 0.4065
vn 0.7068 -0.1598 0.6891
v -0.7135 0.0919 0.3039
v -0.8343 0.0004 0.4065
v -0.7513 -0.0200 0.3039
vn 0.7292 -0.2464 0.6384
v -0.7867 0.1308 0.3880
v -0.9332 0.2085 0.3880
v -1.0002 0.0412 0.4065
vn 0.0482 0.0909 0.9947
v -0.7867 0.1308 0.3880
v -1.0002 0.0412 0.4065
v -0.8343 0.0004 0.4065
vn 0.0318 0.1292 0.9911
v -0.9332 0.2085 0.3880
v -1.0064 0.2473 0.3039
v -1.0832 0.0616 0.3039
vn -0.6598 0.2726 0.7003
v -0.9332 0.2085 0.3880
v -1.0832 0.0616 0.3039
v -1.0002 0.0412 0.4065
vn -0.6941 0.3479 0.6302
v -1.0064 0.2473 0.3039
v -0.9332 0.2085 0.2198
v -1.0002 0.0412 0.2012
vn -0.6309 0.3305 -0.7019
v -1.0064 0.2473 0.3039
v -1.0002 0.0412 0.2012
v -1.0832 0.0616 0.3039
vn -0.7136 0.2949 -0.6354
v -0.9332 0.2085 0.2198
v -0.7867 0.1308 0.2198
v -0.8343 0.0004 0.2012
vn 0.0626 0.1180 -0.9910
v -0.9332 0.2085 0.2198
v -0.8343 0.0004 0.2012
v -1.0002 0.0412 0.2012
vn 0.0247 0.1003 -0.9947
v -0.7867 0.1308 0.2198
v -0.7135 0.0919 0.3039
v -0.7513 -0.0200 0.3039
vn 0.6791 -0.2294 -0.6972
v -0.7867 0.1308 0.2198
v -0.7513 -0.0200 0.3039
v -0.8343 0.0004 0.2012
vn 0.7469 -0.1815 -0.6397
v -0.7513 -0.0200 0.3039
v -0.8343 0.0004 0.4065
v -0.8493 -0.1446 0.4243
vn 0.7774 -0.0034 0.6290
v -0.7513 -0.0200 0.3039
v -0.8493 -0.1446 0.4243
v -0.7612 -0.1442 0.3039
vn 0.8056 -0.0642 0.5890
v -0.8343 0.0004 0.4065
v -1.0002 0.0412 0.4065
v -1.0255 -0.1455 0.4243
vn 0.0226 0.0917 0.9955
v -0.8343 0.0004 0.4065
v -1.0255 -0.1455 0.4243
v -0.8493 -0.1446 0.4243
vn -0.0006 0.1218 0.9926
v -1.0002 0.0412 0.4065
v -1.0832 0.0616 0.3039
v -1.1136 -0.1460 0.3039
vn -0.7619 0.1116 0.6380
v -1.0002 0.0412 0.4065
v -1.1136 -0.1460 0.3039
v -1.0255 -0.1455 0.4243
vn -0.7966 0.1632 0.5821
v -1.0832 0.0616 0.3039
v -1.0002 0.0412 0.2012
v -1.0255 -0.1455 0.1834
vn -0.7513 0.1626 -0.6396
v -1.0832 0.0616 0.3039
v -1.0255 -0.1455 0.1834
v -1.1136 -0.1460 0.3039
vn -0.8017 0.1174 -0.5860
v -1.0002 0.0412 0.2012
v -0.8343 0.0004 0.2012
v -0.8493 -0.1446 0.1834
vn 0.0292 0.1187 -0.9925
v -1.0002 0.0412 0.2012
v -0.8493 -0.1446 0.1834
v -1.0255 -0.1455 0.1834
vn -0.0005 0.0948 -0.9955
v -0.8343 0.0004 0.2012
v -0.7513 -0.0200 0.3039
v -0.7612 -0.1442 0.3039
vn 0.7703 -0.0614 -0.6348
v -0.8343 0.0004 0.2012
v -0.7612 -0.1442 0.3039
v -0.8493 -0.1446 0.1834
vn 0.8071 -0.0112 -0.5903
v -0.7612 -0.1442 0.3039
v -0.8493 -0.1446 0.4243
v -0.8274 -0.2962 0.4321
vn 0.7982 0.1455 0.5845
v -0.7612 -0.1442 0.3039
v -0.8274 -0.2962 0.4321
v -0.7394 -0.2735 0.3039
vn 0.8056 0.1356 0.5767
v -0.8493 -0.1446 0.4243
v -1.0255 -0.1455 0.4243
v -1.0035 -0.3415 0.4321
vn -0.0002 0.0401 0.9992
v -0.8493 -0.1446 0.4243
v -1.0035 -0.3415 0.4321
v -0.8274 -0.2962 0.4321
vn -0.0128 0.0499 0.9987
v -1.0255 -0.1455 0.4243
v -1.1136 -0.1460 0.3039
v -1.0915 -0.3641 0.3039
vn -0.8043 -0.0815 0.5887
v -1.0255 -0.1455 0.4243
v -1.0915 -0.3641 0.3039
v -1.0035 -0.3415 0.4321
vn -0.8169 -0.0689 0.5726
v -1.1136 -0.1460 0.3039
v -1.0255 -0.1455 0.1834
v -1.0035 -0.3415 0.1756
vn -0.8052 -0.0669 -0.5893
v -1.1136 -0.1460 0.3039
v -1.0035 -0.3415 0.1756
v -1.0915 -0.3641 0.3039
vn -0.8149 -0.0826 -0.5737
v -1.0255 -0.1455 0.1834
v -0.8493 -0.1446 0.1834
v -0.8274 -0.2962 0.1756
vn -0.0003 0.0517 -0.9987
v -1.0255 -0.1455 0.1834
v -0.8274 -0.2962 0.1756
v -1.0035 -0.3415 0.1756
vn -0.0100 0.0390 -0.9992
v -0.8493 -0.1446 0.1834
v -0.7612 -0.1442 0.3039
v -0.7394 -0.2735 0.3039
vn 0.7995 0.1346 -0.5854
v -0.8493 -0.1446 0.1834
v -0.7394 -0.2735 0.3039
v -0.8274 -0.2962 0.1756
vn 0.8036 0.1458 -0.5771
v -0.7394 -0.2735 0.3039
v -0.8274 -0.2962 0.4321
v -0.7663 -0.4450 0.4265
vn 0.7639 0.2918 0.5756
v -0.7394 -0.2735 0.3039
v -0.7663 -0.4450 0.4265
v -0.6839 -0.4001 0.3039
vn 0.7284 0.3193 0.6062
v -0.8274 -0.2962 0.4321
v -1.0035 -0.3415 0.4321
v -0.9311 -0.5346 0.4265
vn 0.0069 -0.0267 0.9996
v -0.8274 -0.2962 0.4321
v -0.9311 -0.5346 0.4265
v -0.7663 -0.4450 0.4265
vn 0.0169 -0.0311 0.9994
v -1.0035 -0.3415 0.4321
v -1.0915 -0.3641 0.3039
v -1.0135 -0.5794 0.3039
vn -0.7684 -0.2782 0.5763
v -1.0035 -0.3415 0.4321
v -1.0135 -0.5794 0.3039
v -0.9311 -0.5346 0.4265
vn -0.7397 -0.2948 0.6049
v -1.0915 -0.3641 0.3039
v -1.0035 -0.3415 0.1756
v -0.9311 -0.5346 0.1813
vn -0.7605 -0.3017 -0.5750
v -1.0915 -0.3641 0.3039
v -0.9311 -0.5346 0.1813
v -1.0135 -0.5794 0.3039
vn -0.7499 -0.2716 -0.6032
v -1.0035 -0.3415 0.1756
v -0.8274 -0.2962 0.1756
v -0.7663 -0.4450 0.1813
vn 0.0089 -0.0344 -0.9994
v -1.0035 -0.3415 0.1756
v -0.7663 -0.4450 0.1813
v -0.9311 -0.5346 0.1813
vn 0.0133 -0.0244 -0.9996
v -0.8274 -0.2962 0.1756
v -0.7394 -0.2735 0.3039
v -0.6839 -0.4001 0.3039
vn 0.7506 0.3290 -0.5730
v -0.8274 -0.2962 0.1756
v -0.6839 -0.4001 0.3039
v -0.7663 -0.4450 0.1813
vn 0.7450 0.2830 -0.6041
v -0.6839 -0.4001 0.3039
v -0.7663 -0.4450 0.4265
v -0.6660 -0.5808 0.4118
vn 0.6695 0.4288 0.6066
v -0.6839 -0.4001 0.3039
v -0.6660 -0.5808 0.4118
v -0.5948 -0.5152 0.3039
vn 0.5891 0.4567 0.6667
v -0.7663 -0.4450 0.4265
v -0.9311 -0.5346 0.4265
v -0.8084 -0.7121 0.4118
vn 0.0327 -0.0601 0.9977
v -0.7663 -0.4450 0.4265
v -0.8084 -0.7121 0.4118
v -0.6660 -0.5808 0.4118
vn 0.0592 -0.0642 0.9962
v -0.9311 -0.5346 0.4265
v -1.0135 -0.5794 0.3039
v -0.8796 -0.7778 0.3039
vn -0.6594 -0.4452 0.6058
v -0.9311 -0.5346 0.4265
v -0.8796 -0.7778 0.3039
v -0.8084 -0.7121 0.4118
vn -0.5859 -0.4604 0.6669
v -1.0135 -0.5794 0.3039
v -0.9311 -0.5346 0.1813
v -0.8084 -0.7121 0.1960
vn -0.6321 -0.4870 -0.6028
v -1.0135 -0.5794 0.3039
v -0.8084 -0.7121 0.1960
v -0.8796 -0.7778 0.3039
vn -0.6199 -0.4185 -0.6638
v -0.9311 -0.5346 0.1813
v -0.7663 -0.4450 0.1813
v -0.6660 -0.5808 0.1960
vn 0.0419 -0.0770 -0.9961
v -0.9311 -0.5346 0.1813
v -0.6660 -0.5808 0.1960
v -0.8084 -0.7121 0.1960
vn 0.0466 -0.0505 -0.9976
v -0.7663 -0.4450 0.1813
v -0.6839 -0.4001 0.3039
v -0.5948 -0.5152 0.3039
vn 0.6307 0.4890 -0.6026
v -0.7663 -0.4450 0.1813
v -0.5948 -0.5152 0.3039
v -0.6660 -0.5808 0.1960
vn 0.6356 0.3978 -0.6616
v -0.5948 -0.5152 0.3039
v -0.6660 -0.5808 0.4118
v -0.5189 -0.7010 0.3983
vn 0.5072 0.5459 0.6669
v -0.5948 -0.5152 0.3039
v -0.5189 -0.7010 0.3983
v -0.4540 -0.6248 0.3039
vn 0.4220 0.5416 0.7270
v -0.6660 -0.5808 0.4118
v -0.8084 -0.7121 0.4118
v -0.6487 -0.8533 0.3983
vn 0.0430 -0.0466 0.9980
v -0.6660 -0.5808 0.4118
v -0.6487 -0.8533 0.3983
v -0.5189 -0.7010 0.3983
vn 0.0539 -0.0459 0.9975
v -0.8084 -0.7121 0.4118
v -0.8796 -0.7778 0.3039
v -0.7136 -0.9295 0.3039
vn -0.5028 -0.5502 0.6667
v -0.8084 -0.7121 0.4118
v -0.7136 -0.9295 0.3039
v -0.6487 -0.8533 0.3983
vn -0.4194 -0.5438 0.7269
v -0.8796 -0.7778 0.3039
v -0.8084 -0.7121 0.1960
v -0.6487 -0.8533 0.2095
vn -0.4634 -0.5875 -0.6634
v -0.8796 -0.7778 0.3039
v -0.6487 -0.8533 0.2095
v -0.7136 -0.9295 0.3039
vn -0.4631 -0.5068 -0.7271
v -0.8084 -0.7121 0.1960
v -0.6660 -0.5808 0.1960
v -0.5189 -0.7010 0.2095
vn 0.0485 -0.0526 -0.9974
v -0.8084 -0.7121 0.1960
v -0.5189 -0.7010 0.2095
v -0.6487 -0.8533 0.2095
vn 0.0480 -0.0409 -0.9980
v -0.6660 -0.5808 0.1960
v -0.5948 -0.5152 0.3039
v -0.4540 -0.6248 0.3039
vn 0.4601 0.5906 -0.6630
v -0.6660 -0.5808 0.1960
v -0.4540 -0.6248 0.3039
v -0.5189 -0.7010 0.2095
vn 0.4733 0.4977 -0.7268
v -0.1562 -0.0166 0.3039
v -0.1954 -0.0141 0.3683
v -0.2347 -0.0116 0.3039
vn -0.0635 -0.9980 0.0000
v -0.1562 -0.0166 0.3039
v -0.1169 -0.0191 0.3683
v -0.1954 -0.0141 0.3683
vn -0.0635 -0.9980 0.0000
v -0.1562 -0.0166 0.3039
v -0.0776 -0.0216 0.3039
v -0.1169 -0.0191 0.3683
vn -0.0635 -0.9980 0.0000
v -0.1562 -0.0166 0.3039
v -0.1169 -0.0191 0.2394
v -0.0776 -0.0216 0.3039
vn -0.0635 -0.9980 0.0000
v -0.1562 -0.0166 0.3039
v -0.1954 -0.0141 0.2394
v -0.1169 -0.0191 0.2394
vn -0.0635 -0.9980 0.0000
v -0.1562 -0.0166 0.3039
v -0.2347 -0.0116 0.3039
v -0.1954 -0.0141 0.2394
vn -0.0635 -0.9980 -0.0000
v -0.5838 -0.7772 0.3039
v -0.4540 -0.6248 0.3039
v -0.5189 -0.7010 0.3983
vn 0.7612 -0.6485 0.0000
v -0.5838 -0.7772 0.3039
v -0.5189 -0.7010 0.3983
v -0.6487 -0.8533 0.3983
vn 0.7612 -0.6485 0.0000
v -0.5838 -0.7772 0.3039
v -0.6487 -0.8533 0.3983
v -0.7136 -0.9295 0.3039
vn 0.7612 -0.6485 0.0000
v -0.5838 -0.7772 0.3039
v -0.7136 -0.9295 0.3039
v -0.6487 -0.8533 0.2095
vn 0.7612 -0.6485 -0.0000
v -0.5838 -0.7772 0.3039
v -0.6487 -0.8533 0.2095
v -0.5189 -0.7010 0.2095
vn 0.7612 -0.6485 -0.0000
v -0.5838 -0.7772 0.3039
v -0.5189 -0.7010 0.2095
v -0.4540 -0.6248 0.3039
vn 0.7612 -0.6485 -0.0000
f 1//1 2//1 3//1
f 4//2 5//2 6//2
f 7//3 8//3 9//3
f 10//4 11//4 12//4
f 13//5 14//5 15//5
f 16//6 17//6 18//6
f 19//7 20//7 21//7
f 22//8 23//8 24//8
f 25//9 26//9 27//9
f 28//10 29//10 30//10
f 31//11 32//11 33//11
f 34//12 35//12 36//12
f 37//13 38//13 39//13
f 40//14 41//14 42//14
f 43//15 44//15 45//15
f 46//16 47//16 48//16
f 49//17 50//17 51//17
f 52//18 53//18 54//18
f 55//19 56//19 57//19
f 58//20 59//20 60//20
f 61//21 62//21 63//21
f 64//22 65//22 66//22
f 67//23 68//23 69//23
f 70//24 71//24 72//24
f 73//25 74//25 75//25
f 76//26 77//26 78//26
f 79//27 80//27 81//27
f 82//28 83//28 84//28
f 85//29 86//29 87//29
f 88//30 89//30 90//30
f 91//31 92//31 93//31
f 94//32 95//32 96//32
f 97//33 98//33 99//33
f 100//34 101//34 102//34
f 103//35 104//35 105//35
f 106//36 107//36 108//36
f 109//37 110//37 111//37
f 112//38 113//38 114//38
f 115//39 116//39 117//39
f 118//40 119//40 120//40
f 121//41 122//41 123//41
f 124//42 125//42 126//42
f 127//43 128//43 129//43
f 130//44 131//44 132//44
f 133//45 134//45 135//45
f 136//46 137//46 138//46
f 139//47 140//47 141//47
f 142//48 143//48 144//48
f 145//49 146//49 147//49
f 148//50 149//50 150//50
f 151//51 152//51 153//51
f 154//52 155//52 156//52
f 157//53 158//53 159//53
f 160//54 161//54 162//54
f 163//55 164//55 165//55
f 166//56 167//56 168//56
f 169//57 170//57 171//57
f 172//58 173//58 174//58
f 175//59 176//59 177//59
f 178//60 179//60 180//60
f 181//61 182//61 183//61
f 184//62 185//62 186//62
f 187//63 188//63 189//63
f 190//64 191//64 192//64
f 193//65 194//65 195//65
f 196//66 197//66 198//66
f 199//67 200//67 201//67
f 202//68 203//68 204//68
f 205//69 206//69 207//69
f 208//70 209//70 210//70
f 211//71 212//71 213//71
f 214//72 215//72 216//72
f 217//73 218//73 219//73
f 220//74 221//74 222//74
f 223//75 224//75 225//75
f 226//76 227//76 228//76
f 229//77 230//77 231//77
f 232//78 233//78 234//78
f 235//79 236//79 237//79
f 238//80 239//80 240//80
f 241//81 242//81 243//81
f 244//82 245//82 246//82
f 247//83 248//83 249//83
f 250//84 251//84 252//84
f 253//85 254//85 255//85
f 256//86 257//86 258//86
f 259//87 260//87 261//87
f 262//88 263//88 264//88
f 265//89 266//89 267//89
f 268//90 269//90 270//90
f 271//91 272//91 273//91
f 274//92 275//92 276//92
f 277//93 278//93 279//93
f 280//94 281//94 282//94
f 283//95 284//95 285//95
f 286//96 287//96 288//96
f 289//97 290//97 291//97
f 292//98 293//98 294//98
f 295//99 296//99 297//99
f 298//100 299//100 300//100
f 301//101 302//101 303//101
f 304//102 305//102 306//102
f 307//103 308//103 309//103
f 310//104 311//104 312//104
f 313//105 314//105 315//105
f 316//106 317//106 318//106
f 319//107 320//107 321//107
f 322//108 323//108 324//108
f 325//109 326//109 327//109
f 328//110 329//110 330//110
f 331//111 332//111 333//111
f 334//112 335//112 336//112
f 337//113 338//113 339//113
f 340//114 341//114 342//114
f 343//115 344//115 345//115
f 346//116 347//116 348//116
f 349//117 350//117 351//117
f 352//118 353//118 354//118
f 355//119 356//119 357//119
f 358//120 359//120 360//120
f 361//121 362//121 363//121
f 364//122 365//122 366//122
f 367//123 368//123 369//123
f 370//124 371//124 372//124
f 373//125 374//125 375//125
f 376//126 377//126 378//126
f 379//127 380//127 381//127
f 382//128 383//128 384//128
f 385//129 386//129 387//129
f 388//130 389//130 390//130
f 391//131 392//131 393//131
f 394//132 395//132 396//132
f 397//133 398//133 399//133
f 400//134 401//134 402//134
f 403//135 404//135 405//135
f 406//136 407//136 408//136
f 409//137 410//137 411//137
f 412//138 413//138 414//138
f 415//139 416//139 417//139
f 418//140 419//140 420//140
f 421//141 422//141 423//141
f 424//142 425//142 426//142
f 427//143 428//143 429//143
f 430//144 431//144 432//144
f 433//145 434//145 435//145
f 436//146 437//146 438//146
f 439//147 440//147 441//147
f 442//148 443//148 444//148
f 445//149 446//149 447//149
f 448//150 449//150 450//150
f 451//151 452//151 453//151
f 454//152 455//152 456//152
f 457//153 458//153 459//153
f 460//154 461//154 462//154
f 463//155 464//155 465//155
f 466//156 467//156 468//156
f 469//157 470//157 471//157
f 472//158 473//158 474//158
f 475//159 476//159 477//159
f 478//160 479//160 480//160
f 481//161 482//161 483//161
f 484//162 485//162 486//162
f 487//163 488//163 489//163
f 490//164 491//164 492//164
f 493//165 494//165 495//165
f 496//166 497//166 498//166
f 499//167 500//167 501//167
f 502//168 503//168 504//168
f 505//169 506//169 507//169
f 508//170 509//170 510//170
f 511//171 512//171 513//171
f 514//172 515//172 516//172
f 517//173 518//173 519//173
f 520//174 521//174 522//174
f 523//175 524//175 525//175
f 526//176 527//176 528//176
f 529//177 530//177 531//177
f 532//178 533//178 534//178
f 535//179 536//179 537//179
f 538//180 539//180 540//180
f 541//181 542//181 543//181
f 544//182 545//182 546//182
f 547//183 548//183 549//183
f 550//184 551//184 552//184
f 553//185 554//185 555//185
f 556//186 557//186 558//186
f 559//187 560//187 561//187
f 562//188 563//188 564//188
f 565//189 566//189 567//189
f 568//190 569//190 570//190
f 571//191 572//191 573//191
f 574//192 575//192 576//192
f 577//193 578//193 579//193
f 580//194 581//194 582//194
f 583//195 584//195 585//195
f 586//196 587//196 588//196
f 589//197 590//197 591//197
f 592//198 593//198 594//198
f 595//199 596//199 597//199
f 598//200 599//200 600//200
f 601//201 602//201 603//201
f 604//202 605//202 606//202
f 607//203 608//203 609//203
f 610//204 611//204 612//204
f 613//205 614//205 615//205
f 616//206 617//206 618//206
f 619//207 620//207 621//207
f 622//208 623//208 624//208
f 625//209 626//209 627//209
f 628//210 629//210 630//210
f 631//211 632//211 633//211
f 634//212 635//212 636//212
f 637//213 638//213 639//213
f 640//214 641//214 642//214
f 643//215 644//215 645//215
f 646//216 647//216 648//216
f 649//217 650//217 651//217
f 652//218 653//218 654//218
f 655//219 656//219 657//219
f 658//220 659//220 660//220
f 661//221 662//221 663//221
f 664//222 665//222 666//222
f 667//223 668//223 669//223
f 670//224 671//224 672//224
f 673//225 674//225 675//225
f 676//226 677//226 678//226
f 679//227 680//227 681//227
f 682//228 683//228 684//228
f 685//229 686//229 687//229
f 688//230 689//230 690//230
f 691//231 692//231 693//231
f 694//232 695//232 696//232
f 697//233 698//233 699//233
f 700//234 701//234 702//234
f 703//235 704//235 705//235
f 706//236 707//236 708//236
f 709//237 710//237 711//237
f 712//238 713//238 714//238
f 715//239 716//239 717//239
f 718//240 719//240 720//240
f 721//241 722//241 723//241
f 724//242 725//242 726//242
f 727//243 728//243 729//243
f 730//244 731//244 732//244
f 733//245 734//245 735//245
f 736//246 737//246 738//246
f 739//247 740//247 741//247
f 742//248 743//248 744//248
f 745//249 746//249 747//249
f 748//250 749//250 750//250
f 751//251 752//251 753//251
f 754//252 755//252 756//252
f 757//253 758//253 759//253
f 760//254 761//254 762//254
f 763//255 764//255 765//255
f 766//256 767//256 768//256
f 769//257 770//257 771//257
f 772//258 773//258 774//258
f 775//259 776//259 777//259
f 778//260 779//260 780//260
f 781//261 782//261 783//261
f 784//262 785//262 786//262
f 787//263 788//263 789//263
f 790//264 791//264 792//264
f 793//265 794//265 795//265
f 796//266 797//266 798//266
f 799//267 800//267 801//267
f 802//268 803//268 804//268
f 805//269 806//269 807//269
f 808//270 809//270 810//270
f 811//271 812//271 813//271
f 814//272 815//272 816//272
f 817//273 818//273 819//273
f 820//274 821//274 822//274
f 823//275 824//275 825//275
f 826//276 827//276 828//276
f 829//277 830//277 831//277
f 832//278 833//278 834//278
f 835//279 836//279 837//279
f 838//280 839//280 840//280
f 841//281 842//281 843//281
f 844//282 845//282 846//282
f 847//283 848//283 849//283
f 850//284 851//284 852//284
f 853//285 854//285 855//285
f 856//286 857//286 858//286
f 859//287 860//287 861//287
f 862//288 863//288 864//288
f 865//289 866//289 867//289
f 868//290 869//290 870//290
f 871//291 872//291 873//291
f 874//292 875//292 876//292
f 877//293 878//293 879//293
f 880//294 881//294 882//294
f 883//295 884//295 885//295
f 886//296 887//296 888//296
f 889//297 890//297 891//297
f 892//298 893//298 894//298
f 895//299 896//299 897//299
f 898//300 899//300 900//300
f 901//301 902//301 903//301
f 904//302 905//302 906//302
f 907//303 908//303 909//303
f 910//304 911//304 912//304
f 913//305 914//305 915//305
f 916//306 917//306 918//306
f 919//307 920//307 921//307
f 922//308 923//308 924//308
f 925//309 926//309 927//309
f 928//310 929//310 930//310
f 931//311 932//311 933//311
f 934//312 935//312 936//312
f 937//313 938//313 939//313
f 940//314 941//314 942//314
f 943//315 944//315 945//315
f 946//316 947//316 948//316
f 949//317 950//317 951//317
f 952//318 953//318 954//318
f 955//319 956//319 957//319
f 958//320 959//320 960//320
f 961//321 962//321 963//321
f 964//322 965//322 966//322
f 967//323 968//323 969//323
f 970//324 971//324 972//324
f 973//325 974//325 975//325
f 976//326 977//326 978//326
f 979//327 980//327 981//327
f 982//328 983//328 984//328
f 985//329 986//329 987//329
f 988//330 989//330 990//330
f 991//331 992//331 993//331
f 994//332 995//332 996//332
f 997//333 998//333 999//333
f 1000//334 1001//334 1002//334
f 1003//335 1004//335 1005//335
f 1006//336 1007//336 1008//336
f 1009//337 1010//337 1011//337
f 1012//338 1013//338 1014//338
f 1015//339 1016//339 1017//339
f 1018//340 1019//340 1020//340
f 1021//341 1022//341 1023//341
f 1024//342 1025//342 1026//342
f 1027//343 1028//343 1029//343
f 1030//344 1031//344 1032//344
f 1033//345 1034//345 1035//345
f 1036//346 1037//346 1038//346
f 1039//347 1040//347 1041//347
f 1042//348 1043//348 1044//348
f 1045//349 1046//349 1047//349
f 1048//350 1049//350 1050//350
f 1051//351 1052//351 1053//351
f 1054//352 1055//352 1056//352
f 1057//353 1058//353 1059//353
f 1060//354 1061//354 1062//354
f 1063//355 1064//355 1065//355
f 1066//356 1067//356 1068//356
f 1069//357 1070//357 1071//357
f 1072//358 1073//358 1074//358
f 1075//359 1076//359 1077//359
f 1078//360 1079//360 1080//360
f 1081//361 1082//361 1083//361
f 1084//362 1085//362 1086//362
f 1087//363 1088//363 1089//363
f 1090//364 1091//364 1092//364
f 1093//365 1094//365 1095//365
f 1096//366 1097//366 1098//366
f 1099//367 1100//367 1101//367
f 1102//368 1103//368 1104//368
f 1105//369 1106//369 1107//369
f 1108//370 1109//370 1110//370
f 1111//371 1112//371 1113//371
f 1114//372 1115//372 1116//372
f 1117//373 1118//373 1119//373
f 1120//374 1121//374 1122//374
f 1123//375 1124//375 1125//375
f 1126//376 1127//376 1128//376
f 1129//377 1130//377 1131//377
f 1132//378 1133//378 1134//378
f 1135//379 1136//379 1137//379
f 1138//380 1139//380 1140//380
f 1141//381 1142//381 1143//381
f 1144//382 1145//382 1146//382
f 1147//383 1148//383 1149//383
f 1150//384 1151//384 1152//384
f 1153//385 1154//385 1155//385
f 1156//386 1157//386 1158//386
f 1159//387 1160//387 1161//387
f 1162//388 1163//388 1164//388
f 1165//389 1166//389 1167//389
f 1168//390 1169//390 1170//390
f 1171//391 1172//391 1173//391
f 1174//392 1175//392 1176//392
f 1177//393 1178//393 1179//393
f 1180//394 1181//394 1182//394
f 1183//395 1184//395 1185//395
f 1186//396 1187//396 1188//396
f 1189//397 1190//397 1191//397
f 1192//398 1193//398 1194//398
f 1195//399 1196//399 1197//399
f 1198//400 1199//400 1200//400
f 1201//401 1202//401 1203//401
f 1204//402 1205//402 1206//402
f 1207//403 1208//403 1209//403
f 1210//404 1211//404 1212//404
f 1213//405 1214//405 1215//405
f 1216//406 1217//406 1218//406
f 1219//407 1220//407 1221//407
f 1222//408 1223//408 1224//408
f 1225//409 1226//409 1227//409
f 1228//410 1229//410 1230//410
f 1231//411 1232//411 1233//411
f 1234//412 1235//412 1236//412
f 1237//413 1238//413 1239//413
f 1240//414 1241//414 1242//414
f 1243//415 1244//415 1245//415
f 1246//416 1247//416 1248//416
f 1249//417 1250//417 1251//417
f 1252//418 1253//418 1254//418
f 1255//419 1256//419 1257//419
f 1258//420 1259//420 1260//420
f 1261//421 1262//421 1263//421
f 1264//422 1265//422 1266//422
f 1267//423 1268//423 1269//423
f 1270//424 1271//424 1272//424
f 1273//425 1274//425 1275//425
f 1276//426 1277//426 1278//426
f 1279//427 1280//427 1281//427
f 1282//428 1283//428 1284//428
f 1285//429 1286//429 1287//429
f 1288//430 1289//430 1290//430
f 1291//431 1292//431 1293//431
f 1294//432 1295//432 1296//432
f 1297//433 1298//433 1299//433
f 1300//434 1301//434 1302//434
f 1303//435 1304//435 1305//435
f 1306//436 1307//436 1308//436
f 1309//437 1310//437 1311//437
f 1312//438 1313//438 1314//438
f 1315//439 1316//439 1317//439
f 1318//440 1319//440 1320//440
f 1321//441 1322//441 1323//441
f 1324//442 1325//442 1326//442
f 1327//443 1328//443 1329//443
f 1330//444 1331//444 1332//444
f 1333//445 1334//445 1335//445
f 1336//446 1337//446 1338//446
f 1339//447 1340//447 1341//447
f 1342//448 1343//448 1344//448
f 1345//449 1346//449 1347//449
f 1348//450 1349//450 1350//450
f 1351//451 1352//451 1353//451
f 1354//452 1355//452 1356//452
f 1357//453 1358//453 1359//453
f 1360//454 1361//454 1362//454
f 1363//455 1364//455 1365//455
f 1366//456 1367//456 1368//456
f 1369//457 1370//457 1371//457
f 1372//458 1373//458 1374//458
f 1375//459 1376//459 1377//459
f 1378//460 1379//460 1380//460
f 1381//461 1382//461 1383//461
f 1384//462 1385//462 1386//462
f 1387//463 1388//463 1389//463
f 1390//464 1391//464 1392//464
f 1393//465 1394//465 1395//465
f 1396//466 1397//466 1398//466
f 1399//467 1400//467 1401//467
f 1402//468 1403//468 1404//468
f 1405//469 1406//469 1407//469
f 1408//470 1409//470 1410//470
f 1411//471 1412//471 1413//471
f 1414//472 1415//472 1416//472
f 1417//473 1418//473 1419//473
f 1420//474 1421//474 1422//474
f 1423//475 1424//475 1425//475
f 1426//476 1427//476 1428//476
f 1429//477 1430//477 1431//477
f 1432//478 1433//478 1434//478
f 1435//479 1436//479 1437//479
f 1438//480 1439//480 1440//480
f 1441//481 1442//481 1443//481
f 1444//482 1445//482 1446//482
f 1447//483 1448//483 1449//483
f 1450//484 1451//484 1452//484
f 1453//485 1454//485 1455//485
f 1456//486 1457//486 1458//486
f 1459//487 1460//487 1461//487
f 1462//488 1463//488 1464//488
f 1465//489 1466//489 1467//489
f 1468//490 1469//490 1470//490
f 1471//491 1472//491 1473//491
f 1474//492 1475//492 1476//492
f 1477//493 1478//493 1479//493
f 1480//494 1481//494 1482//494
f 1483//495 1484//495 1485//495
f 1486//496 1487//496 1488//496
f 1489//497 1490//497 1491//497
f 1492//498 1493//498 1494//498
f 1495//499 1496//499 1497//499
f 1498//500 1499//500 1500//500
f 1501//501 1502//501 1503//501
f 1504//502 1505//502 1506//502
f 1507//503 1508//503 1509//503
f 1510//504 1511//504 1512//504
f 1513//505 1514//505 1515//505
f 1516//506 1517//506 1518//506
f 1519//507 1520//507 1521//507
f 1522//508 1523//508 1524//508
f 1525//509 1526//509 1527//509
f 1528//510 1529//510 1530//510
f 1531//511 1532//511 1533//511
f 1534//512 1535//512 1536//512
f 1537//513 1538//513 1539//513
f 1540//514 1541//514 1542//514
f 1543//515 1544//515 1545//515
f 1546//516 1547//516 1548//516
f 1549//517 1550//517 1551//517
f 1552//518 1553//518 1554//518
f 1555//519 1556//519 1557//519
f 1558//520 1559//520 1560//520
f 1561//521 1562//521 1563//521
f 1564//522 1565//522 1566//522
f 1567//523 1568//523 1569//523
f 1570//524 1571//524 1572//524
f 1573//525 1574//525 1575//525
f 1576//526 1577//526 1578//526
f 1579//527 1580//527 1581//527
f 1582//528 1583//528 1584//528
