# sun_mask_headdress - original low-poly mesh generated by tools/make_artifact_meshes.py (studs, +Y up, front +Z)
o sun_mask_headdress
v -1.0000 0.9500 -0.5500
v -1.0500 0.9500 0.3500
v -0.9500 1.5500 0.0500
vn -0.9890 0.1374 -0.0549
v 1.0000 0.9500 -0.5500
v 0.9500 1.5500 0.0500
v 1.0500 0.9500 0.3500
vn 0.9890 0.1374 -0.0549
v 1.0000 0.9500 -0.5500
v 0.8500 1.5000 -0.5000
v 0.9500 1.5500 0.0500
vn 0.9414 0.2746 -0.1961
v -0.8500 1.5000 -0.5000
v -1.0000 0.9500 -0.5500
v -0.9500 1.5500 0.0500
vn -0.9414 0.2746 -0.1961
v 0.9500 1.5500 0.0500
v -0.9500 1.5500 0.0500
v -1.0500 0.9500 0.3500
vn 0.0000 0.4472 0.8944
v 0.9500 1.5500 0.0500
v -1.0500 0.9500 0.3500
v 1.0500 0.9500 0.3500
vn 0.0000 0.4472 0.8944
v 1.0000 0.9500 -0.5500
v 1.0500 0.9500 0.3500
v -1.0500 0.9500 0.3500
vn 0.0000 -1.0000 0.0000
v 1.0000 0.9500 -0.5500
v -1.0500 0.9500 0.3500
v -1.0000 0.9500 -0.5500
vn 0.0000 -1.0000 0.0000
v -0.8500 1.5000 -0.5000
v -0.9500 1.5500 0.0500
v 0.9500 1.5500 0.0500
vn 0.0000 0.9959 -0.0905
v -0.8500 1.5000 -0.5000
v 0.9500 1.5500 0.0500
v 0.8500 1.5000 -0.5000
vn 0.0000 0.9959 -0.0905
v -0.8500 1.5000 -0.5000
v 1.0000 0.9500 -0.5500
v -1.0000 0.9500 -0.5500
vn 0.0000 0.0905 -0.9959
v -0.8500 1.5000 -0.5000
v 0.8500 1.5000 -0.5000
v 1.0000 0.9500 -0.5500
vn 0.0000 0.0905 -0.9959
v -0.9500 1.0000 -0.5000
v -1.4000 0.9000 -0.5000
v -0.9000 1.0000 0.3000
vn -0.2169 0.9761 0.0136
v -1.3500 0.9000 0.0000
v -0.9000 1.0000 0.3000
v -1.4000 0.9000 -0.5000
vn -0.2316 0.9725 0.0232
v -1.3500 0.9000 0.0000
v -1.3000 -1.3000 0.1000
v -0.9000 1.0000 0.3000
vn -0.5584 0.0250 0.8292
v -0.9000 -0.2000 0.3000
v -0.9000 1.0000 0.3000
v -1.3000 -1.3000 0.1000
vn -0.4472 0.0000 0.8944
v -0.9000 -0.2000 0.3000
v -0.9500 1.0000 -0.5000
v -0.9000 1.0000 0.3000
vn 0.9981 0.0000 -0.0624
v -0.9500 -0.2000 -0.4500
v -1.3000 -1.3000 0.1000
v -1.3500 -1.3000 -0.4000
vn 0.9343 -0.3440 -0.0934
v -0.9500 -0.2000 -0.4500
v -0.9000 -0.2000 0.3000
v -1.3000 -1.3000 0.1000
vn 0.9416 -0.3310 -0.0628
v -0.9500 -0.2000 -0.4500
v -0.9500 1.0000 -0.5000
v -0.9000 -0.2000 0.3000
vn 0.9978 -0.0028 -0.0665
v -0.9500 -0.2000 -0.4500
v -1.3500 -1.3000 -0.4000
v -1.4000 0.9000 -0.5000
vn 0.0000 -0.0454 -0.9990
v -0.9500 -0.2000 -0.4500
v -1.4000 0.9000 -0.5000
v -0.9500 1.0000 -0.5000
vn 0.0093 -0.0416 -0.9991
v -1.3500 0.9000 0.0000
v -1.3500 -1.3000 -0.4000
v -1.3000 -1.3000 0.1000
vn -0.9949 -0.0181 0.0995
v -1.3500 0.9000 0.0000
v -1.4000 0.9000 -0.5000
v -1.3500 -1.3000 -0.4000
vn -0.9949 -0.0181 0.0995
v 0.9500 1.0000 -0.5000
v 0.9000 1.0000 0.3000
v 1.4000 0.9000 -0.5000
vn 0.2169 0.9761 0.0136
v 1.3500 0.9000 0.0000
v 1.4000 0.9000 -0.5000
v 0.9000 1.0000 0.3000
vn 0.2316 0.9725 0.0232
v 1.3500 0.9000 0.0000
v 0.9000 1.0000 0.3000
v 1.3000 -1.3000 0.1000
vn 0.5584 0.0250 0.8292
v 0.9000 -0.2000 0.3000
v 1.3000 -1.3000 0.1000
v 0.9000 1.0000 0.3000
vn 0.4472 -0.0000 0.8944
v 0.9000 -0.2000 0.3000
v 0.9000 1.0000 0.3000
v 0.9500 1.0000 -0.5000
vn -0.9981 0.0000 -0.0624
v 0.9500 -0.2000 -0.4500
v 0.9000 -0.2000 0.3000
v 0.9500 1.0000 -0.5000
vn -0.9978 -0.0028 -0.0665
v 0.9500 -0.2000 -0.4500
v 1.4000 0.9000 -0.5000
v 1.3500 -1.3000 -0.4000
vn 0.0000 -0.0454 -0.9990
v 0.9500 -0.2000 -0.4500
v 0.9500 1.0000 -0.5000
v 1.4000 0.9000 -0.5000
vn -0.0093 -0.0416 -0.9991
v 0.9500 -0.2000 -0.4500
v 1.3500 -1.3000 -0.4000
v 1.3000 -1.3000 0.1000
vn -0.9343 -0.3440 -0.0934
v 0.9500 -0.2000 -0.4500
v 1.3000 -1.3000 0.1000
v 0.9000 -0.2000 0.3000
vn -0.9416 -0.3310 -0.0628
v 1.3500 0.9000 0.0000
v 1.3000 -1.3000 0.1000
v 1.3500 -1.3000 -0.4000
vn 0.9949 -0.0181 0.0995
v 1.3500 0.9000 0.0000
v 1.3500 -1.3000 -0.4000
v 1.4000 0.9000 -0.5000
vn 0.9949 -0.0181 0.0995
f 1//1 2//1 3//1
f 4//2 5//2 6//2
f 7//3 8//3 9//3
f 10//4 11//4 12//4
f 13//5 14//5 15//5
f 16//6 17//6 18//6
f 19//7 20//7 21//7
f 22//8 23//8 24//8
f 25//9 26//9 27//9
f 28//10 29//10 30//10
f 31//11 32//11 33//11
f 34//12 35//12 36//12
f 37//13 38//13 39//13
f 40//14 41//14 42//14
f 43//15 44//15 45//15
f 46//16 47//16 48//16
f 49//17 50//17 51//17
f 52//18 53//18 54//18
f 55//19 56//19 57//19
f 58//20 59//20 60//20
f 61//21 62//21 63//21
f 64//22 65//22 66//22
f 67//23 68//23 69//23
f 70//24 71//24 72//24
f 73//25 74//25 75//25
f 76//26 77//26 78//26
f 79//27 80//27 81//27
f 82//28 83//28 84//28
f 85//29 86//29 87//29
f 88//30 89//30 90//30
f 91//31 92//31 93//31
f 94//32 95//32 96//32
f 97//33 98//33 99//33
f 100//34 101//34 102//34
f 103//35 104//35 105//35
f 106//36 107//36 108//36
