# sun_mask_stripe - original low-poly mesh generated by tools/make_artifact_meshes.py (studs, +Y up, front +Z)
o sun_mask_stripe
v -1.2000 0.9000 0.1200
v -1.3600 0.8600 0.1000
v -1.1800 -1.2000 0.2000
vn -0.1329 0.0365 0.9905
v -1.3200 -1.2800 0.1200
v -1.1800 -1.2000 0.2000
v -1.3600 0.8600 0.1000
vn -0.4956 -0.0011 0.8685
v -1.3600 0.8600 -0.4500
v -1.2000 0.9000 -0.4500
v -1.3200 -1.2800 -0.4000
vn 0.0058 -0.0232 -0.9997
v -1.1800 -1.2000 -0.4000
v -1.3200 -1.2800 -0.4000
v -1.2000 0.9000 -0.4500
vn 0.0135 -0.0237 -0.9996
v -1.3600 0.8600 -0.4500
v -1.2000 0.9000 0.1200
v -1.2000 0.9000 -0.4500
vn -0.2425 0.9701 0.0000
v -1.3600 0.8600 -0.4500
v -1.3600 0.8600 0.1000
v -1.2000 0.9000 0.1200
vn -0.2425 0.9701 0.0000
v -1.3600 0.8600 -0.4500
v -1.3200 -1.2800 0.1200
v -1.3600 0.8600 0.1000
vn -0.9998 -0.0187 0.0000
v -1.3600 0.8600 -0.4500
v -1.3200 -1.2800 -0.4000
v -1.3200 -1.2800 0.1200
vn -0.9998 -0.0187 0.0000
v -1.1800 -1.2000 -0.4000
v -1.2000 0.9000 -0.4500
v -1.2000 0.9000 0.1200
vn 1.0000 0.0095 0.0000
v -1.1800 -1.2000 -0.4000
v -1.2000 0.9000 0.1200
v -1.1800 -1.2000 0.2000
vn 1.0000 0.0095 -0.0000
v -1.1800 -1.2000 -0.4000
v -1.3200 -1.2800 0.1200
v -1.3200 -1.2800 -0.4000
vn 0.4961 -0.8682 0.0000
v -1.1800 -1.2000 -0.4000
v -1.1800 -1.2000 0.2000
v -1.3200 -1.2800 0.1200
vn 0.4961 -0.8682 0.0000
v 1.2000 0.9000 0.1200
v 1.1800 -1.2000 0.2000
v 1.3600 0.8600 0.1000
vn 0.1329 0.0365 0.9905
v 1.3200 -1.2800 0.1200
v 1.3600 0.8600 0.1000
v 1.1800 -1.2000 0.2000
vn 0.4956 -0.0011 0.8685
v 1.1800 -1.2000 -0.4000
v 1.2000 0.9000 -0.4500
v 1.3200 -1.2800 -0.4000
vn -0.0135 -0.0237 -0.9996
v 1.3600 0.8600 -0.4500
v 1.3200 -1.2800 -0.4000
v 1.2000 0.9000 -0.4500
vn -0.0058 -0.0232 -0.9997
v 1.1800 -1.2000 -0.4000
v 1.2000 0.9000 0.1200
v 1.2000 0.9000 -0.4500
vn -1.0000 0.0095 0.0000
v 1.1800 -1.2000 -0.4000
v 1.1800 -1.2000 0.2000
v 1.2000 0.9000 0.1200
vn -1.0000 0.0095 0.0000
v 1.1800 -1.2000 -0.4000
v 1.3200 -1.2800 0.1200
v 1.1800 -1.2000 0.2000
vn -0.4961 -0.8682 0.0000
v 1.1800 -1.2000 -0.4000
v 1.3200 -1.2800 -0.4000
v 1.3200 -1.2800 0.1200
vn -0.4961 -0.8682 0.0000
v 1.3600 0.8600 -0.4500
v 1.2000 0.9000 -0.4500
v 1.2000 0.9000 0.1200
vn 0.2425 0.9701 0.0000
v 1.3600 0.8600 -0.4500
v 1.2000 0.9000 0.1200
v 1.3600 0.8600 0.1000
vn 0.2425 0.9701 -0.0000
v 1.3600 0.8600 -0.4500
v 1.3200 -1.2800 0.1200
v 1.3200 -1.2800 -0.4000
vn 0.9998 -0.0187 0.0000
v 1.3600 0.8600 -0.4500
v 1.3600 0.8600 0.1000
v 1.3200 -1.2800 0.1200
vn 0.9998 -0.0187 0.0000
v 0.0000 -1.9500 0.0500
v 0.2200 -1.5000 0.1200
v -0.2200 -1.5000 0.1200
vn 0.0000 -0.1537 0.9881
v -0.1800 -1.5000 -0.1000
v 0.0000 -1.9500 0.0500
v -0.2200 -1.5000 0.1200
vn -0.8961 -0.4128 -0.1629
v 0.1800 -1.5000 -0.1000
v 0.2200 -1.5000 0.1200
v 0.0000 -1.9500 0.0500
vn 0.8961 -0.4128 -0.1629
v 0.1800 -1.5000 -0.1000
v 0.0000 -1.9500 0.0500
v -0.1800 -1.5000 -0.1000
vn -0.0000 -0.3162 -0.9487
v 0.1800 -1.5000 -0.1000
v -0.1800 -1.5000 -0.1000
v -0.2200 -1.5000 0.1200
vn 0.0000 1.0000 0.0000
v 0.1800 -1.5000 -0.1000
v -0.2200 -1.5000 0.1200
v 0.2200 -1.5000 0.1200
vn 0.0000 1.0000 -0.0000
f 1//1 2//1 3//1
f 4//2 5//2 6//2
f 7//3 8//3 9//3
f 10//4 11//4 12//4
f 13//5 14//5 15//5
f 16//6 17//6 18//6
f 19//7 20//7 21//7
f 22//8 23//8 24//8
f 25//9 26//9 27//9
f 28//10 29//10 30//10
f 31//11 32//11 33//11
f 34//12 35//12 36//12
f 37//13 38//13 39//13
f 40//14 41//14 42//14
f 43//15 44//15 45//15
f 46//16 47//16 48//16
f 49//17 50//17 51//17
f 52//18 53//18 54//18
f 55//19 56//19 57//19
f 58//20 59//20 60//20
f 61//21 62//21 63//21
f 64//22 65//22 66//22
f 67//23 68//23 69//23
f 70//24 71//24 72//24
f 73//25 74//25 75//25
f 76//26 77//26 78//26
f 79//27 80//27 81//27
f 82//28 83//28 84//28
f 85//29 86//29 87//29
f 88//30 89//30 90//30
