# fossil_claw_bone - original low-poly mesh generated by tools/make_artifact_meshes.py (studs, +Y up, front +Z)
o fossil_claw_bone
v 1.1944 -0.8396 -0.6832
v 0.8196 -0.8786 -0.4831
v 0.8309 -0.7319 -0.4494
vn -0.4769 0.2314 -0.8480
v 1.1944 -0.8396 -0.6832
v 0.8309 -0.7319 -0.4494
v 1.1781 -0.6837 -0.6356
vn -0.4845 0.2091 -0.8495
v 0.8196 -0.8786 -0.4831
v 0.6644 -0.8948 -0.0000
v 0.6871 -0.7519 -0.0000
vn -0.9427 0.1499 -0.2979
v 0.8196 -0.8786 -0.4831
v 0.6871 -0.7519 -0.0000
v 0.8309 -0.7319 -0.4494
vn -0.9447 0.1408 -0.2961
v 0.6644 -0.8948 -0.0000
v 0.8196 -0.8786 0.4831
v 0.8309 -0.7319 0.4494
vn -0.9439 0.1413 0.2986
v 0.6644 -0.8948 -0.0000
v 0.8309 -0.7319 0.4494
v 0.6871 -0.7519 -0.0000
vn -0.9435 0.1501 0.2953
v 0.8196 -0.8786 0.4831
v 1.1944 -0.8396 0.6832
v 1.1781 -0.6837 0.6356
vn -0.4774 0.2109 0.8530
v 0.8196 -0.8786 0.4831
v 1.1781 -0.6837 0.6356
v 0.8309 -0.7319 0.4494
vn -0.4844 0.2310 0.8438
v 1.1944 -0.8396 0.6832
v 1.5692 -0.8005 0.4831
v 1.5254 -0.6355 0.4494
vn 0.4274 0.2884 0.8568
v 1.1944 -0.8396 0.6832
v 1.5254 -0.6355 0.4494
v 1.1781 -0.6837 0.6356
vn 0.4167 0.3051 0.8563
v 1.5692 -0.8005 0.4831
v 1.7244 -0.7843 0.0000
v 1.6692 -0.6155 0.0000
vn 0.9063 0.2966 0.3012
v 1.5692 -0.8005 0.4831
v 1.6692 -0.6155 0.0000
v 1.5254 -0.6355 0.4494
vn 0.9040 0.3019 0.3027
v 1.7244 -0.7843 0.0000
v 1.5692 -0.8005 -0.4831
v 1.5254 -0.6355 -0.4494
vn 0.9047 0.3017 -0.3008
v 1.7244 -0.7843 0.0000
v 1.5254 -0.6355 -0.4494
v 1.6692 -0.6155 0.0000
vn 0.9057 0.2964 -0.3030
v 1.5692 -0.8005 -0.4831
v 1.1944 -0.8396 -0.6832
v 1.1781 -0.6837 -0.6356
vn 0.4236 0.3048 -0.8530
v 1.5692 -0.8005 -0.4831
v 1.1781 -0.6837 -0.6356
v 1.5254 -0.6355 -0.4494
vn 0.4213 0.2875 -0.8602
v 1.1781 -0.6837 -0.6356
v 0.8309 -0.7319 -0.4494
v 0.8451 -0.5933 -0.4011
vn -0.4811 0.3319 -0.8114
v 1.1781 -0.6837 -0.6356
v 0.8451 -0.5933 -0.4011
v 1.1513 -0.5293 -0.5673
vn -0.5023 0.2753 -0.8197
v 0.8309 -0.7319 -0.4494
v 0.6871 -0.7519 -0.0000
v 0.7182 -0.6198 -0.0000
vn -0.9320 0.2196 -0.2885
v 0.8309 -0.7319 -0.4494
v 0.7182 -0.6198 -0.0000
v 0.8451 -0.5933 -0.4011
vn -0.9388 0.1948 -0.2840
v 0.6871 -0.7519 -0.0000
v 0.8309 -0.7319 0.4494
v 0.8451 -0.5933 0.4011
vn -0.9363 0.1969 0.2909
v 0.6871 -0.7519 -0.0000
v 0.8451 -0.5933 0.4011
v 0.7182 -0.6198 -0.0000
vn -0.9342 0.2201 0.2809
v 0.8309 -0.7319 0.4494
v 1.1781 -0.6837 0.6356
v 1.1513 -0.5293 0.5673
vn -0.4834 0.2825 0.8285
v 0.8309 -0.7319 0.4494
v 1.1513 -0.5293 0.5673
v 0.8451 -0.5933 0.4011
vn -0.5025 0.3298 0.7992
v 1.1781 -0.6837 0.6356
v 1.5254 -0.6355 0.4494
v 1.4576 -0.4653 0.4011
vn 0.3918 0.3922 0.8323
v 1.1781 -0.6837 0.6356
v 1.4576 -0.4653 0.4011
v 1.1513 -0.5293 0.5673
vn 0.3598 0.4290 0.8285
v 1.5254 -0.6355 0.4494
v 1.6692 -0.6155 0.0000
v 1.5844 -0.4387 0.0000
vn 0.8618 0.4132 0.2942
v 1.5254 -0.6355 0.4494
v 1.5844 -0.4387 0.0000
v 1.4576 -0.4653 0.4011
vn 0.8546 0.4250 0.2984
v 1.6692 -0.6155 0.0000
v 1.5254 -0.6355 -0.4494
v 1.4576 -0.4653 -0.4011
vn 0.8568 0.4244 -0.2930
v 1.6692 -0.6155 0.0000
v 1.4576 -0.4653 -0.4011
v 1.5844 -0.4387 0.0000
vn 0.8604 0.4125 -0.2994
v 1.5254 -0.6355 -0.4494
v 1.1781 -0.6837 -0.6356
v 1.1513 -0.5293 -0.5673
vn 0.3800 0.4286 -0.8197
v 1.5254 -0.6355 -0.4494
v 1.1513 -0.5293 -0.5673
v 1.4576 -0.4653 -0.4011
vn 0.3754 0.3883 -0.8416
v 1.1513 -0.5293 -0.5673
v 0.8451 -0.5933 -0.4011
v 0.8463 -0.4524 -0.3565
vn -0.5020 0.2649 -0.8233
v 1.1513 -0.5293 -0.5673
v 0.8463 -0.4524 -0.3565
v 1.1140 -0.3771 -0.5042
vn -0.5175 0.2161 -0.8279
v 0.8451 -0.5933 -0.4011
v 0.7182 -0.6198 -0.0000
v 0.7354 -0.4836 -0.0000
vn -0.9488 0.1200 -0.2921
v 0.8451 -0.5933 -0.4011
v 0.7354 -0.4836 -0.0000
v 0.8463 -0.4524 -0.3565
vn -0.9526 0.0995 -0.2876
v 0.7182 -0.6198 -0.0000
v 0.8451 -0.5933 0.4011
v 0.8463 -0.4524 0.3565
vn -0.9504 0.1015 0.2939
v 0.7182 -0.6198 -0.0000
v 0.8463 -0.4524 0.3565
v 0.7354 -0.4836 -0.0000
vn -0.9509 0.1202 0.2852
v 0.8451 -0.5933 0.4011
v 1.1513 -0.5293 0.5673
v 1.1140 -0.3771 0.5042
vn -0.5005 0.2238 0.8363
v 0.8451 -0.5933 0.4011
v 1.1140 -0.3771 0.5042
v 0.8463 -0.4524 0.3565
vn -0.5216 0.2616 0.8121
v 1.1513 -0.5293 0.5673
v 1.4576 -0.4653 0.4011
v 1.3817 -0.3017 0.3565
vn 0.3709 0.4004 0.8379
v 1.1513 -0.5293 0.5673
v 1.3817 -0.3017 0.3565
v 1.1140 -0.3771 0.5042
vn 0.3404 0.4298 0.8363
v 1.4576 -0.4653 0.4011
v 1.5844 -0.4387 0.0000
v 1.4926 -0.2705 0.0000
vn 0.8386 0.4577 0.2955
v 1.4576 -0.4653 0.4011
v 1.4926 -0.2705 0.0000
v 1.3817 -0.3017 0.3565
vn 0.8317 0.4674 0.2996
v 1.5844 -0.4387 0.0000
v 1.4576 -0.4653 -0.4011
v 1.3817 -0.3017 -0.3565
vn 0.8338 0.4670 -0.2946
v 1.5844 -0.4387 0.0000
v 1.3817 -0.3017 -0.3565
v 1.4926 -0.2705 0.0000
vn 0.8372 0.4569 -0.3004
v 1.4576 -0.4653 -0.4011
v 1.1513 -0.5293 -0.5673
v 1.1140 -0.3771 -0.5042
vn 0.3591 0.4308 -0.8279
v 1.4576 -0.4653 -0.4011
v 1.1140 -0.3771 -0.5042
v 1.3817 -0.3017 -0.3565
vn 0.3557 0.3958 -0.8467
v 1.1140 -0.3771 -0.5042
v 0.8463 -0.4524 -0.3565
v 0.8248 -0.3139 -0.3290
vn -0.5010 0.0935 -0.8604
v 1.1140 -0.3771 -0.5042
v 0.8248 -0.3139 -0.3290
v 1.0665 -0.2277 -0.4652
vn -0.5071 0.0631 -0.8596
v 0.8463 -0.4524 -0.3565
v 0.7354 -0.4836 -0.0000
v 0.7247 -0.3496 -0.0000
vn -0.9502 -0.0763 -0.3022
v 0.8463 -0.4524 -0.3565
v 0.7247 -0.3496 -0.0000
v 0.8248 -0.3139 -0.3290
vn -0.9502 -0.0883 -0.2988
v 0.7354 -0.4836 -0.0000
v 0.8463 -0.4524 0.3565
v 0.8248 -0.3139 0.3290
vn -0.9490 -0.0873 0.3028
v 0.7354 -0.4836 -0.0000
v 0.8248 -0.3139 0.3290
v 0.7247 -0.3496 -0.0000
vn -0.9515 -0.0764 0.2979
v 0.8463 -0.4524 0.3565
v 1.1140 -0.3771 0.5042
v 1.0665 -0.2277 0.4652
vn -0.4965 0.0679 0.8654
v 0.8463 -0.4524 0.3565
v 1.0665 -0.2277 0.4652
v 0.8248 -0.3139 0.3290
vn -0.5133 0.0902 0.8535
v 1.1140 -0.3771 0.5042
v 1.3817 -0.3017 0.3565
v 1.3082 -0.1416 0.3290
vn 0.3848 0.3256 0.8637
v 1.1140 -0.3771 0.5042
v 1.3082 -0.1416 0.3290
v 1.0665 -0.2277 0.4652
vn 0.3658 0.3426 0.8654
v 1.3817 -0.3017 0.3565
v 1.4926 -0.2705 0.0000
v 1.4083 -0.1059 0.0000
vn 0.8485 0.4347 0.3019
v 1.3817 -0.3017 0.3565
v 1.4083 -0.1059 0.0000
v 1.3082 -0.1416 0.3290
vn 0.8445 0.4405 0.3048
v 1.4926 -0.2705 0.0000
v 1.3817 -0.3017 -0.3565
v 1.3082 -0.1416 -0.3290
vn 0.8456 0.4404 -0.3015
v 1.4926 -0.2705 0.0000
v 1.3082 -0.1416 -0.3290
v 1.4083 -0.1059 0.0000
vn 0.8476 0.4343 -0.3050
v 1.3817 -0.3017 -0.3565
v 1.1140 -0.3771 -0.5042
v 1.0665 -0.2277 -0.4652
vn 0.3772 0.3447 -0.8596
v 1.3817 -0.3017 -0.3565
v 1.0665 -0.2277 -0.4652
v 1.3082 -0.1416 -0.3290
vn 0.3752 0.3221 -0.8692
v 1.0665 -0.2277 -0.4652
v 0.8248 -0.3139 -0.3290
v 0.7796 -0.1818 -0.3205
vn -0.4610 -0.1012 -0.8816
v 1.0665 -0.2277 -0.4652
v 0.7796 -0.1818 -0.3205
v 1.0089 -0.0820 -0.4533
vn -0.4617 -0.1104 -0.8801
v 0.8248 -0.3139 -0.3290
v 0.7247 -0.3496 -0.0000
v 0.6847 -0.2231 -0.0000
vn -0.9074 -0.2869 -0.3073
v 0.8248 -0.3139 -0.3290
v 0.6847 -0.2231 -0.0000
v 0.7796 -0.1818 -0.3205
vn -0.9067 -0.2903 -0.3060
v 0.7247 -0.3496 -0.0000
v 0.8248 -0.3139 0.3290
v 0.7796 -0.1818 0.3205
vn -0.9063 -0.2901 0.3073
v 0.7247 -0.3496 -0.0000
v 0.7796 -0.1818 0.3205
v 0.6847 -0.2231 -0.0000
vn -0.9078 -0.2870 0.3059
v 0.8248 -0.3139 0.3290
v 1.0665 -0.2277 0.4652
v 1.0089 -0.0820 0.4533
vn -0.4584 -0.1090 0.8820
v 0.8248 -0.3139 0.3290
v 1.0089 -0.0820 0.4533
v 0.7796 -0.1818 0.3205
vn -0.4647 -0.1026 0.8795
v 1.0665 -0.2277 0.4652
v 1.3082 -0.1416 0.3290
v 1.2381 0.0178 0.3205
vn 0.4148 0.2291 0.8806
v 1.0665 -0.2277 0.4652
v 1.2381 0.0178 0.3205
v 1.0089 -0.0820 0.4533
vn 0.4090 0.2340 0.8820
v 1.3082 -0.1416 0.3290
v 1.4083 -0.1059 0.0000
v 1.3330 0.0591 0.0000
vn 0.8661 0.3950 0.3064
v 1.3082 -0.1416 0.3290
v 1.3330 0.0591 0.0000
v 1.2381 0.0178 0.3205
vn 0.8650 0.3967 0.3074
v 1.4083 -0.1059 0.0000
v 1.3082 -0.1416 -0.3290
v 1.2381 0.0178 -0.3205
vn 0.8653 0.3968 -0.3064
v 1.4083 -0.1059 0.0000
v 1.2381 0.0178 -0.3205
v 1.3330 0.0591 0.0000
vn 0.8658 0.3948 -0.3074
v 1.3082 -0.1416 -0.3290
v 1.0665 -0.2277 -0.4652
v 1.0089 -0.0820 -0.4533
vn 0.4124 0.2352 -0.8801
v 1.3082 -0.1416 -0.3290
v 1.0089 -0.0820 -0.4533
v 1.2381 0.0178 -0.3205
vn 0.4118 0.2279 -0.8823
v 1.0089 -0.0820 -0.4533
v 0.7796 -0.1818 -0.3205
v 0.7178 -0.0566 -0.3230
vn -0.4143 -0.2225 -0.8825
v 1.0089 -0.0820 -0.4533
v 0.7178 -0.0566 -0.3230
v 0.9414 0.0595 -0.4568
vn -0.4143 -0.2198 -0.8832
v 0.7796 -0.1818 -0.3205
v 0.6847 -0.2231 -0.0000
v 0.6252 -0.1047 -0.0000
vn -0.8503 -0.4274 -0.3070
v 0.7796 -0.1818 -0.3205
v 0.6252 -0.1047 -0.0000
v 0.7178 -0.0566 -0.3230
vn -0.8507 -0.4264 -0.3074
v 0.6847 -0.2231 -0.0000
v 0.7796 -0.1818 0.3205
v 0.7178 -0.0566 0.3230
vn -0.8508 -0.4265 0.3070
v 0.6847 -0.2231 -0.0000
v 0.7178 -0.0566 0.3230
v 0.6252 -0.1047 -0.0000
vn -0.8502 -0.4273 0.3074
v 0.7796 -0.1818 0.3205
v 1.0089 -0.0820 0.4533
v 0.9414 0.0595 0.4568
vn -0.4153 -0.2202 0.8826
v 0.7796 -0.1818 0.3205
v 0.9414 0.0595 0.4568
v 0.7178 -0.0566 0.3230
vn -0.4132 -0.2220 0.8832
v 1.0089 -0.0820 0.4533
v 1.2381 0.0178 0.3205
v 1.1651 0.1755 0.3230
vn 0.4309 0.1852 0.8832
v 1.0089 -0.0820 0.4533
v 1.1651 0.1755 0.3230
v 0.9414 0.0595 0.4568
vn 0.4327 0.1838 0.8826
v 1.2381 0.0178 0.3205
v 1.3330 0.0591 0.0000
v 1.2577 0.2236 0.0000
vn 0.8653 0.3960 0.3074
v 1.2381 0.0178 0.3205
v 1.2577 0.2236 0.0000
v 1.1651 0.1755 0.3230
vn 0.8656 0.3955 0.3071
v 1.3330 0.0591 0.0000
v 1.2381 0.0178 -0.3205
v 1.1651 0.1755 -0.3230
vn 0.8655 0.3954 -0.3074
v 1.3330 0.0591 0.0000
v 1.1651 0.1755 -0.3230
v 1.2577 0.2236 0.0000
vn 0.8654 0.3960 -0.3071
v 1.2381 0.0178 -0.3205
v 1.0089 -0.0820 -0.4533
v 0.9414 0.0595 -0.4568
vn 0.4317 0.1833 -0.8832
v 1.2381 0.0178 -0.3205
v 0.9414 0.0595 -0.4568
v 1.1651 0.1755 -0.3230
vn 0.4318 0.1856 -0.8827
v 0.9414 0.0595 -0.4568
v 0.7178 -0.0566 -0.3230
v 0.6485 0.0645 -0.3242
vn -0.4038 -0.2397 -0.8829
v 0.9414 0.0595 -0.4568
v 0.6485 0.0645 -0.3242
v 0.8646 0.1960 -0.4586
vn -0.4039 -0.2384 -0.8832
v 0.7178 -0.0566 -0.3230
v 0.6252 -0.1047 -0.0000
v 0.5591 0.0100 -0.0000
vn -0.8245 -0.4752 -0.3072
v 0.7178 -0.0566 -0.3230
v 0.5591 0.0100 -0.0000
v 0.6485 0.0645 -0.3242
vn -0.8247 -0.4747 -0.3074
v 0.6252 -0.1047 -0.0000
v 0.7178 -0.0566 0.3230
v 0.6485 0.0645 0.3242
vn -0.8248 -0.4748 0.3072
v 0.6252 -0.1047 -0.0000
v 0.6485 0.0645 0.3242
v 0.5591 0.0100 -0.0000
vn -0.8245 -0.4751 0.3074
v 0.7178 -0.0566 0.3230
v 0.9414 0.0595 0.4568
v 0.8646 0.1960 0.4586
vn -0.4044 -0.2387 0.8829
v 0.7178 -0.0566 0.3230
v 0.8646 0.1960 0.4586
v 0.6485 0.0645 0.3242
vn -0.4033 -0.2394 0.8832
v 0.9414 0.0595 0.4568
v 1.1651 0.1755 0.3230
v 1.0806 0.3276 0.3242
vn 0.4129 0.2226 0.8832
v 0.9414 0.0595 0.4568
v 1.0806 0.3276 0.3242
v 0.8646 0.1960 0.4586
vn 0.4138 0.2220 0.8829
v 1.1651 0.1755 0.3230
v 1.2577 0.2236 0.0000
v 1.1701 0.3820 0.0000
vn 0.8326 0.4608 0.3073
v 1.1651 0.1755 0.3230
v 1.1701 0.3820 0.0000
v 1.0806 0.3276 0.3242
vn 0.8328 0.4606 0.3072
v 1.2577 0.2236 0.0000
v 1.1651 0.1755 -0.3230
v 1.0806 0.3276 -0.3242
vn 0.8327 0.4605 -0.3073
v 1.2577 0.2236 0.0000
v 1.0806 0.3276 -0.3242
v 1.1701 0.3820 0.0000
vn 0.8326 0.4608 -0.3072
v 1.1651 0.1755 -0.3230
v 0.9414 0.0595 -0.4568
v 0.8646 0.1960 -0.4586
vn 0.4133 0.2217 -0.8832
v 1.1651 0.1755 -0.3230
v 0.8646 0.1960 -0.4586
v 1.0806 0.3276 -0.3242
vn 0.4133 0.2228 -0.8829
v 0.8646 0.1960 -0.4586
v 0.6485 0.0645 -0.3242
v 0.5779 0.1853 -0.3149
vn -0.4347 -0.1859 -0.8812
v 0.8646 0.1960 -0.4586
v 0.5779 0.1853 -0.3149
v 0.7786 0.3270 -0.4453
vn -0.4335 -0.1959 -0.8796
v 0.6485 0.0645 -0.3242
v 0.5591 0.0100 -0.0000
v 0.4948 0.1266 -0.0000
vn -0.8335 -0.4592 -0.3072
v 0.6485 0.0645 -0.3242
v 0.4948 0.1266 -0.0000
v 0.5779 0.1853 -0.3149
vn -0.8321 -0.4627 -0.3058
v 0.5591 0.0100 -0.0000
v 0.6485 0.0645 0.3242
v 0.5779 0.1853 0.3149
vn -0.8318 -0.4624 0.3072
v 0.5591 0.0100 -0.0000
v 0.5779 0.1853 0.3149
v 0.4948 0.1266 -0.0000
vn -0.8340 -0.4594 0.3057
v 0.6485 0.0645 0.3242
v 0.8646 0.1960 0.4586
v 0.7786 0.3270 0.4453
vn -0.4303 -0.1936 0.8817
v 0.6485 0.0645 0.3242
v 0.7786 0.3270 0.4453
v 0.5779 0.1853 0.3149
vn -0.4384 -0.1883 0.8788
v 0.8646 0.1960 0.4586
v 1.0806 0.3276 0.3242
v 0.9792 0.4688 0.3149
vn 0.3561 0.3139 0.8801
v 0.8646 0.1960 0.4586
v 0.9792 0.4688 0.3149
v 0.7786 0.3270 0.4453
vn 0.3487 0.3178 0.8817
v 1.0806 0.3276 0.3242
v 1.1701 0.3820 0.0000
v 1.0623 0.5275 0.0000
vn 0.7648 0.5668 0.3063
v 1.0806 0.3276 0.3242
v 1.0623 0.5275 0.0000
v 0.9792 0.4688 0.3149
vn 0.7632 0.5684 0.3074
v 1.1701 0.3820 0.0000
v 1.0806 0.3276 -0.3242
v 0.9792 0.4688 -0.3149
vn 0.7635 0.5686 -0.3062
v 1.1701 0.3820 0.0000
v 0.9792 0.4688 -0.3149
v 1.0623 0.5275 0.0000
vn 0.7645 0.5666 -0.3074
v 1.0806 0.3276 -0.3242
v 0.8646 0.1960 -0.4586
v 0.7786 0.3270 -0.4453
vn 0.3521 0.3198 -0.8796
v 1.0806 0.3276 -0.3242
v 0.7786 0.3270 -0.4453
v 0.9792 0.4688 -0.3149
vn 0.3531 0.3119 -0.8820
v 0.7786 0.3270 -0.4453
v 0.5779 0.1853 -0.3149
v 0.5065 0.3075 -0.2931
vn -0.4776 -0.1244 -0.8697
v 0.7786 0.3270 -0.4453
v 0.5065 0.3075 -0.2931
v 0.6838 0.4519 -0.4146
vn -0.4749 -0.1465 -0.8677
v 0.5779 0.1853 -0.3149
v 0.4948 0.1266 -0.0000
v 0.4330 0.2478 -0.0000
vn -0.8484 -0.4329 -0.3046
v 0.5779 0.1853 -0.3149
v 0.4330 0.2478 -0.0000
v 0.5065 0.3075 -0.2931
vn -0.8455 -0.4405 -0.3017
v 0.4948 0.1266 -0.0000
v 0.5779 0.1853 0.3149
v 0.5065 0.3075 0.2931
vn -0.8449 -0.4396 0.3049
v 0.4948 0.1266 -0.0000
v 0.5065 0.3075 0.2931
v 0.4330 0.2478 -0.0000
vn -0.8494 -0.4334 0.3012
v 0.5779 0.1853 0.3149
v 0.7786 0.3270 0.4453
v 0.6838 0.4519 0.4146
vn -0.4682 -0.1402 0.8724
v 0.5779 0.1853 0.3149
v 0.6838 0.4519 0.4146
v 0.5065 0.3075 0.2931
vn -0.4859 -0.1302 0.8643
v 0.7786 0.3270 0.4453
v 0.9792 0.4688 0.3149
v 0.8612 0.5962 0.2931
vn 0.2786 0.4065 0.8701
v 0.7786 0.3270 0.4453
v 0.8612 0.5962 0.2931
v 0.6838 0.4519 0.4146
vn 0.2611 0.4132 0.8724
v 0.9792 0.4688 0.3149
v 1.0623 0.5275 0.0000
v 0.9346 0.6560 0.0000
vn 0.6761 0.6714 0.3036
v 0.9792 0.4688 0.3149
v 0.9346 0.6560 0.0000
v 0.8612 0.5962 0.2931
vn 0.6720 0.6744 0.3059
v 1.0623 0.5275 0.0000
v 0.9792 0.4688 -0.3149
v 0.8612 0.5962 -0.2931
vn 0.6729 0.6747 -0.3033
v 1.0623 0.5275 0.0000
v 0.8612 0.5962 -0.2931
v 0.9346 0.6560 0.0000
vn 0.6755 0.6708 -0.3061
v 0.9792 0.4688 -0.3149
v 0.7786 0.3270 -0.4453
v 0.6838 0.4519 -0.4146
vn 0.2689 0.4180 -0.8677
v 0.9792 0.4688 -0.3149
v 0.6838 0.4519 -0.4146
v 0.8612 0.5962 -0.2931
vn 0.2722 0.4013 -0.8746
v 0.6838 0.4519 -0.4146
v 0.5065 0.3075 -0.2931
v 0.4304 0.4295 -0.2638
vn -0.5014 -0.1064 -0.8587
v 0.6838 0.4519 -0.4146
v 0.4304 0.4295 -0.2638
v 0.5808 0.5700 -0.3731
vn -0.4979 -0.1336 -0.8569
v 0.5065 0.3075 -0.2931
v 0.4330 0.2478 -0.0000
v 0.3681 0.3713 -0.0000
vn -0.8440 -0.4433 -0.3019
v 0.5065 0.3075 -0.2931
v 0.3681 0.3713 -0.0000
v 0.4304 0.4295 -0.2638
vn -0.8404 -0.4525 -0.2982
v 0.4330 0.2478 -0.0000
v 0.5065 0.3075 0.2931
v 0.4304 0.4295 0.2638
vn -0.8397 -0.4510 0.3024
v 0.4330 0.2478 -0.0000
v 0.4304 0.4295 0.2638
v 0.3681 0.3713 -0.0000
vn -0.8452 -0.4440 0.2975
v 0.5065 0.3075 0.2931
v 0.6838 0.4519 0.4146
v 0.5808 0.5700 0.3731
vn -0.4897 -0.1243 0.8630
v 0.5065 0.3075 0.2931
v 0.5808 0.5700 0.3731
v 0.4304 0.4295 0.2638
vn -0.5117 -0.1146 0.8515
v 0.6838 0.4519 0.4146
v 0.8612 0.5962 0.2931
v 0.7312 0.7105 0.2638
vn 0.2127 0.4627 0.8606
v 0.6838 0.4519 0.4146
v 0.7312 0.7105 0.2638
v 0.5808 0.5700 0.3731
vn 0.1897 0.4683 0.8630
v 0.8612 0.5962 0.2931
v 0.9346 0.6560 0.0000
v 0.7935 0.7687 0.0000
vn 0.5949 0.7453 0.3011
v 0.8612 0.5962 0.2931
v 0.7935 0.7687 0.0000
v 0.7312 0.7105 0.2638
vn 0.5893 0.7484 0.3042
v 0.9346 0.6560 0.0000
v 0.8612 0.5962 -0.2931
v 0.7312 0.7105 -0.2638
vn 0.5905 0.7489 -0.3007
v 0.9346 0.6560 0.0000
v 0.7312 0.7105 -0.2638
v 0.7935 0.7687 0.0000
vn 0.5942 0.7444 -0.3045
v 0.8612 0.5962 -0.2931
v 0.6838 0.4519 -0.4146
v 0.5808 0.5700 -0.3731
vn 0.2000 0.4751 -0.8569
v 0.8612 0.5962 -0.2931
v 0.5808 0.5700 -0.3731
v 0.7312 0.7105 -0.2638
vn 0.2047 0.4551 -0.8666
v 0.5808 0.5700 -0.3731
v 0.4304 0.4295 -0.2638
v 0.3451 0.5471 -0.2345
vn -0.4916 -0.1421 -0.8591
v 0.5808 0.5700 -0.3731
v 0.3451 0.5471 -0.2345
v 0.4700 0.6808 -0.3316
vn -0.4878 -0.1670 -0.8568
v 0.4304 0.4295 -0.2638
v 0.3681 0.3713 -0.0000
v 0.2934 0.4918 -0.0000
vn -0.8101 -0.5024 -0.3021
v 0.4304 0.4295 -0.2638
v 0.2934 0.4918 -0.0000
v 0.3451 0.5471 -0.2345
vn -0.8066 -0.5103 -0.2984
v 0.3681 0.3713 -0.0000
v 0.4304 0.4295 0.2638
v 0.3451 0.5471 0.2345
vn -0.8060 -0.5088 0.3025
v 0.3681 0.3713 -0.0000
v 0.3451 0.5471 0.2345
v 0.2934 0.4918 -0.0000
vn -0.8113 -0.5031 0.2977
v 0.4304 0.4295 0.2638
v 0.5808 0.5700 0.3731
v 0.4700 0.6808 0.3316
vn -0.4803 -0.1571 0.8629
v 0.4304 0.4295 0.2638
v 0.4700 0.6808 0.3316
v 0.3451 0.5471 0.2345
vn -0.5013 -0.1509 0.8520
v 0.5808 0.5700 0.3731
v 0.7312 0.7105 0.2638
v 0.5948 0.8145 0.2345
vn 0.1791 0.4775 0.8602
v 0.5808 0.5700 0.3731
v 0.5948 0.8145 0.2345
v 0.4700 0.6808 0.3316
vn 0.1571 0.4803 0.8629
v 0.7312 0.7105 0.2638
v 0.7935 0.7687 0.0000
v 0.6466 0.8698 0.0000
vn 0.5409 0.7854 0.3009
v 0.7312 0.7105 0.2638
v 0.6466 0.8698 0.0000
v 0.5948 0.8145 0.2345
vn 0.5355 0.7879 0.3041
v 0.7935 0.7687 0.0000
v 0.7312 0.7105 -0.2638
v 0.5948 0.8145 -0.2345
vn 0.5367 0.7884 -0.3006
v 0.7935 0.7687 0.0000
v 0.5948 0.8145 -0.2345
v 0.6466 0.8698 0.0000
vn 0.5403 0.7845 -0.3044
v 0.7312 0.7105 -0.2638
v 0.5808 0.5700 -0.3731
v 0.4700 0.6808 -0.3316
vn 0.1670 0.4878 -0.8568
v 0.7312 0.7105 -0.2638
v 0.4700 0.6808 -0.3316
v 0.5948 0.8145 -0.2345
vn 0.1715 0.4693 -0.8662
v 0.4700 0.6808 -0.3316
v 0.3451 0.5471 -0.2345
v 0.2482 0.6564 -0.2106
vn -0.4506 -0.2096 -0.8677
v 0.4700 0.6808 -0.3316
v 0.2482 0.6564 -0.2106
v 0.3519 0.7838 -0.2978
vn -0.4470 -0.2284 -0.8649
v 0.3451 0.5471 -0.2345
v 0.2934 0.4918 -0.0000
v 0.2053 0.6037 -0.0000
vn -0.7483 -0.5895 -0.3042
v 0.3451 0.5471 -0.2345
v 0.2053 0.6037 -0.0000
v 0.2482 0.6564 -0.2106
vn -0.7452 -0.5950 -0.3011
v 0.2934 0.4918 -0.0000
v 0.3451 0.5471 0.2345
v 0.2482 0.6564 0.2106
vn -0.7448 -0.5938 0.3045
v 0.2934 0.4918 -0.0000
v 0.2482 0.6564 0.2106
v 0.2053 0.6037 -0.0000
vn -0.7492 -0.5902 0.3007
v 0.3451 0.5471 0.2345
v 0.4700 0.6808 0.3316
v 0.3519 0.7838 0.2978
vn -0.4412 -0.2201 0.8700
v 0.3451 0.5471 0.2345
v 0.3519 0.7838 0.2978
v 0.2482 0.6564 0.2106
vn -0.4580 -0.2174 0.8620
v 0.4700 0.6808 0.3316
v 0.5948 0.8145 0.2345
v 0.4556 0.9112 0.2106
vn 0.1750 0.4665 0.8670
v 0.4700 0.6808 0.3316
v 0.4556 0.9112 0.2106
v 0.3519 0.7838 0.2978
vn 0.1581 0.4670 0.8700
v 0.5948 0.8145 0.2345
v 0.6466 0.8698 0.0000
v 0.4985 0.9640 0.0000
vn 0.5113 0.8043 0.3027
v 0.5948 0.8145 0.2345
v 0.4985 0.9640 0.0000
v 0.4556 0.9112 0.2106
vn 0.5072 0.8059 0.3054
v 0.6466 0.8698 0.0000
v 0.5948 0.8145 -0.2345
v 0.4556 0.9112 -0.2106
vn 0.5081 0.8064 -0.3025
v 0.6466 0.8698 0.0000
v 0.4556 0.9112 -0.2106
v 0.4985 0.9640 0.0000
vn 0.5109 0.8035 -0.3055
v 0.5948 0.8145 -0.2345
v 0.4700 0.6808 -0.3316
v 0.3519 0.7838 -0.2978
vn 0.1655 0.4739 -0.8649
v 0.5948 0.8145 -0.2345
v 0.3519 0.7838 -0.2978
v 0.4556 0.9112 -0.2106
vn 0.1692 0.4594 -0.8720
v 0.3519 0.7838 -0.2978
v 0.2482 0.6564 -0.2106
v 0.1402 0.7556 -0.1930
vn -0.3966 -0.2766 -0.8753
v 0.3519 0.7838 -0.2978
v 0.1402 0.7556 -0.1930
v 0.2270 0.8786 -0.2729
vn -0.3935 -0.2894 -0.8726
v 0.2482 0.6564 -0.2106
v 0.2053 0.6037 -0.0000
v 0.1042 0.7047 -0.0000
vn -0.6731 -0.6733 -0.3060
v 0.2482 0.6564 -0.2106
v 0.1042 0.7047 -0.0000
v 0.1402 0.7556 -0.1930
vn -0.6708 -0.6767 -0.3036
v 0.2053 0.6037 -0.0000
v 0.2482 0.6564 0.2106
v 0.1402 0.7556 0.1930
vn -0.6705 -0.6759 0.3061
v 0.2053 0.6037 -0.0000
v 0.1402 0.7556 0.1930
v 0.1042 0.7047 -0.0000
vn -0.6737 -0.6738 0.3034
v 0.2482 0.6564 0.2106
v 0.3519 0.7838 0.2978
v 0.2270 0.8786 0.2729
vn -0.3895 -0.2831 0.8764
v 0.2482 0.6564 0.2106
v 0.2270 0.8786 0.2729
v 0.1402 0.7556 0.1930
vn -0.4015 -0.2827 0.8711
v 0.3519 0.7838 0.2978
v 0.4556 0.9112 0.2106
v 0.3139 1.0015 0.1930
vn 0.1796 0.4521 0.8737
v 0.3519 0.7838 0.2978
v 0.3139 1.0015 0.1930
v 0.2270 0.8786 0.2729
vn 0.1678 0.4513 0.8764
v 0.4556 0.9112 0.2106
v 0.4985 0.9640 0.0000
v 0.3499 1.0524 0.0000
vn 0.4870 0.8186 0.3045
v 0.4556 0.9112 0.2106
v 0.3499 1.0524 0.0000
v 0.3139 1.0015 0.1930
vn 0.4842 0.8195 0.3065
v 0.4985 0.9640 0.0000
v 0.4556 0.9112 -0.2106
v 0.3139 1.0015 -0.1930
vn 0.4847 0.8200 -0.3043
v 0.4985 0.9640 0.0000
v 0.3139 1.0015 -0.1930
v 0.3499 1.0524 0.0000
vn 0.4867 0.8180 -0.3066
v 0.4556 0.9112 -0.2106
v 0.3519 0.7838 -0.2978
v 0.2270 0.8786 -0.2729
vn 0.1727 0.4569 -0.8726
v 0.4556 0.9112 -0.2106
v 0.2270 0.8786 -0.2729
v 0.3139 1.0015 -0.1930
vn 0.1755 0.4465 -0.8774
v 0.2270 0.8786 -0.2729
v 0.1402 0.7556 -0.1930
v 0.0235 0.8455 -0.1788
vn -0.3541 -0.3209 -0.8784
v 0.2270 0.8786 -0.2729
v 0.0235 0.8455 -0.1788
v 0.0960 0.9646 -0.2528
vn -0.3514 -0.3306 -0.8759
v 0.1402 0.7556 -0.1930
v 0.1042 0.7047 -0.0000
v -0.0065 0.7961 -0.0000
vn -0.6060 -0.7339 -0.3067
v 0.1402 0.7556 -0.1930
v -0.0065 0.7961 -0.0000
v 0.0235 0.8455 -0.1788
vn -0.6041 -0.7363 -0.3047
v 0.1042 0.7047 -0.0000
v 0.1402 0.7556 0.1930
v 0.0235 0.8455 0.1788
vn -0.6039 -0.7357 0.3067
v 0.1042 0.7047 -0.0000
v 0.0235 0.8455 0.1788
v -0.0065 0.7961 -0.0000
vn -0.6065 -0.7345 0.3046
v 0.1402 0.7556 0.1930
v 0.2270 0.8786 0.2729
v 0.0960 0.9646 0.2528
vn -0.3484 -0.3254 0.8790
v 0.1402 0.7556 0.1930
v 0.0960 0.9646 0.2528
v 0.0235 0.8455 0.1788
vn -0.3578 -0.3262 0.8750
v 0.2270 0.8786 0.2729
v 0.3139 1.0015 0.1930
v 0.1685 1.0837 0.1788
vn 0.1690 0.4505 0.8766
v 0.2270 0.8786 0.2729
v 0.1685 1.0837 0.1788
v 0.0960 0.9646 0.2528
vn 0.1600 0.4491 0.8790
v 0.3139 1.0015 0.1930
v 0.3499 1.0524 0.0000
v 0.1986 1.1330 0.0000
vn 0.4477 0.8405 0.3052
v 0.3139 1.0015 0.1930
v 0.1986 1.1330 0.0000
v 0.1685 1.0837 0.1788
vn 0.4455 0.8410 0.3069
v 0.3499 1.0524 0.0000
v 0.3139 1.0015 -0.1930
v 0.1685 1.0837 -0.1788
vn 0.4459 0.8415 -0.3052
v 0.3499 1.0524 0.0000
v 0.1685 1.0837 -0.1788
v 0.1986 1.1330 0.0000
vn 0.4474 0.8400 -0.3070
v 0.3139 1.0015 -0.1930
v 0.2270 0.8786 -0.2729
v 0.0960 0.9646 -0.2528
vn 0.1636 0.4539 -0.8759
v 0.3139 1.0015 -0.1930
v 0.0960 0.9646 -0.2528
v 0.1685 1.0837 -0.1788
vn 0.1660 0.4458 -0.8796
v 0.0960 0.9646 -0.2528
v 0.0235 0.8455 -0.1788
v -0.0994 0.9280 -0.1639
vn -0.3357 -0.3414 -0.8779
v 0.0960 0.9646 -0.2528
v -0.0994 0.9280 -0.1639
v -0.0405 1.0414 -0.2317
vn -0.3327 -0.3510 -0.8753
v 0.0235 0.8455 -0.1788
v -0.0065 0.7961 -0.0000
v -0.1238 0.8810 -0.0000
vn -0.5581 -0.7710 -0.3066
v 0.0235 0.8455 -0.1788
v -0.1238 0.8810 -0.0000
v -0.0994 0.9280 -0.1639
vn -0.5562 -0.7733 -0.3045
v -0.0065 0.7961 -0.0000
v 0.0235 0.8455 0.1788
v -0.0994 0.9280 0.1639
vn -0.5560 -0.7726 0.3066
v -0.0065 0.7961 -0.0000
v -0.0994 0.9280 0.1639
v -0.1238 0.8810 -0.0000
vn -0.5585 -0.7716 0.3044
v 0.0235 0.8455 0.1788
v 0.0960 0.9646 0.2528
v -0.0405 1.0414 0.2317
vn -0.3300 -0.3453 0.8786
v 0.0235 0.8455 0.1788
v -0.0405 1.0414 0.2317
v -0.0994 0.9280 0.1639
vn -0.3391 -0.3471 0.8744
v 0.0960 0.9646 0.2528
v 0.1685 1.0837 0.1788
v 0.0184 1.1549 0.1639
vn 0.1329 0.4637 0.8760
v 0.0960 0.9646 0.2528
v 0.0184 1.1549 0.1639
v -0.0405 1.0414 0.2317
vn 0.1241 0.4613 0.8786
v 0.1685 1.0837 0.1788
v 0.1986 1.1330 0.0000
v 0.0427 1.2019 0.0000
vn 0.3850 0.8710 0.3051
v 0.1685 1.0837 0.1788
v 0.0427 1.2019 0.0000
v 0.0184 1.1549 0.1639
vn 0.3828 0.8714 0.3069
v 0.1986 1.1330 0.0000
v 0.1685 1.0837 -0.1788
v 0.0184 1.1549 -0.1639
vn 0.3832 0.8719 -0.3050
v 0.1986 1.1330 0.0000
v 0.0184 1.1549 -0.1639
v 0.0427 1.2019 0.0000
vn 0.3848 0.8705 -0.3069
v 0.1685 1.0837 -0.1788
v 0.0960 0.9646 -0.2528
v -0.0405 1.0414 -0.2317
vn 0.1275 0.4665 -0.8753
v 0.1685 1.0837 -0.1788
v -0.0405 1.0414 -0.2317
v 0.0184 1.1549 -0.1639
vn 0.1302 0.4584 -0.8791
v -0.0405 1.0414 -0.2317
v -0.0994 0.9280 -0.1639
v -0.2274 1.0047 -0.1457
vn -0.3341 -0.3501 -0.8751
v -0.0405 1.0414 -0.2317
v -0.2274 1.0047 -0.1457
v -0.1820 1.1089 -0.2060
vn -0.3305 -0.3611 -0.8720
v -0.0994 0.9280 -0.1639
v -0.1238 0.8810 -0.0000
v -0.2461 0.9615 -0.0000
vn -0.5233 -0.7953 -0.3060
v -0.0994 0.9280 -0.1639
v -0.2461 0.9615 -0.0000
v -0.2274 1.0047 -0.1457
vn -0.5211 -0.7977 -0.3035
v -0.1238 0.8810 -0.0000
v -0.0994 0.9280 0.1639
v -0.2274 1.0047 0.1457
vn -0.5209 -0.7969 0.3060
v -0.1238 0.8810 -0.0000
v -0.2274 1.0047 0.1457
v -0.2461 0.9615 -0.0000
vn -0.5237 -0.7960 0.3034
v -0.0994 0.9280 0.1639
v -0.0405 1.0414 0.2317
v -0.1820 1.1089 0.2060
vn -0.3278 -0.3539 0.8759
v -0.0994 0.9280 0.1639
v -0.1820 1.1089 0.2060
v -0.2274 1.0047 0.1457
vn -0.3378 -0.3573 0.8708
v -0.0405 1.0414 0.2317
v 0.0184 1.1549 0.1639
v -0.1366 1.2130 0.1457
vn 0.0783 0.4816 0.8729
v -0.0405 1.0414 0.2317
v -0.1366 1.2130 0.1457
v -0.1820 1.1089 0.2060
vn 0.0684 0.4776 0.8759
v 0.0184 1.1549 0.1639
v 0.0427 1.2019 0.0000
v -0.1179 1.2562 0.0000
vn 0.3052 0.9024 0.3042
v 0.0184 1.1549 0.1639
v -0.1179 1.2562 0.0000
v -0.1366 1.2130 0.1457
vn 0.3027 0.9025 0.3064
v 0.0427 1.2019 0.0000
v 0.0184 1.1549 -0.1639
v -0.1366 1.2130 -0.1457
vn 0.3032 0.9031 -0.3041
v 0.0427 1.2019 0.0000
v -0.1366 1.2130 -0.1457
v -0.1179 1.2562 0.0000
vn 0.3050 0.9017 -0.3064
v 0.0184 1.1549 -0.1639
v -0.0405 1.0414 -0.2317
v -0.1820 1.1089 -0.2060
vn 0.0722 0.4842 -0.8720
v 0.0184 1.1549 -0.1639
v -0.1820 1.1089 -0.2060
v -0.1366 1.2130 -0.1457
vn 0.0754 0.4750 -0.8768
v -0.1820 1.1089 -0.2060
v -0.2274 1.0047 -0.1457
v -0.3603 1.0753 -0.1241
vn -0.3325 -0.3601 -0.8716
v -0.1820 1.1089 -0.2060
v -0.3603 1.0753 -0.1241
v -0.3277 1.1665 -0.1756
vn -0.3286 -0.3722 -0.8680
v -0.2274 1.0047 -0.1457
v -0.2461 0.9615 -0.0000
v -0.3737 1.0375 -0.0000
vn -0.4872 -0.8182 -0.3052
v -0.2274 1.0047 -0.1457
v -0.3737 1.0375 -0.0000
v -0.3603 1.0753 -0.1241
vn -0.4849 -0.8206 -0.3023
v -0.2461 0.9615 -0.0000
v -0.2274 1.0047 0.1457
v -0.3603 1.0753 0.1241
vn -0.4848 -0.8196 0.3053
v -0.2461 0.9615 -0.0000
v -0.3603 1.0753 0.1241
v -0.3737 1.0375 -0.0000
vn -0.4877 -0.8190 0.3022
v -0.2274 1.0047 0.1457
v -0.1820 1.1089 0.2060
v -0.3277 1.1665 0.1756
vn -0.3261 -0.3635 0.8727
v -0.2274 1.0047 0.1457
v -0.3277 1.1665 0.1756
v -0.3603 1.0753 0.1241
vn -0.3363 -0.3687 0.8666
v -0.1820 1.1089 0.2060
v -0.1366 1.2130 0.1457
v -0.2952 1.2577 0.1241
vn 0.0211 0.4942 0.8691
v -0.1820 1.1089 0.2060
v -0.2952 1.2577 0.1241
v -0.3277 1.1665 0.1756
vn 0.0106 0.4882 0.8727
v -0.1366 1.2130 0.1457
v -0.1179 1.2562 0.0000
v -0.2818 1.2955 0.0000
vn 0.2220 0.9267 0.3032
v -0.1366 1.2130 0.1457
v -0.2818 1.2955 0.0000
v -0.2952 1.2577 0.1241
vn 0.2193 0.9265 0.3058
v -0.1179 1.2562 0.0000
v -0.1366 1.2130 -0.1457
v -0.2952 1.2577 -0.1241
vn 0.2199 0.9273 -0.3030
v -0.1179 1.2562 0.0000
v -0.2952 1.2577 -0.1241
v -0.2818 1.2955 0.0000
vn 0.2218 0.9259 -0.3058
v -0.1366 1.2130 -0.1457
v -0.1820 1.1089 -0.2060
v -0.3277 1.1665 -0.1756
vn 0.0148 0.4963 -0.8680
v -0.1366 1.2130 -0.1457
v -0.3277 1.1665 -0.1756
v -0.2952 1.2577 -0.1241
vn 0.0182 0.4861 -0.8737
v -0.3277 1.1665 -0.1756
v -0.3603 1.0753 -0.1241
v -0.5009 1.1392 -0.1007
vn -0.3164 -0.3778 -0.8701
v -0.3277 1.1665 -0.1756
v -0.5009 1.1392 -0.1007
v -0.4771 1.2140 -0.1424
vn -0.3147 -0.3837 -0.8682
v -0.3603 1.0753 -0.1241
v -0.3737 1.0375 -0.0000
v -0.5108 1.1082 -0.0000
vn -0.4365 -0.8465 -0.3050
v -0.3603 1.0753 -0.1241
v -0.5108 1.1082 -0.0000
v -0.5009 1.1392 -0.1007
vn -0.4355 -0.8474 -0.3036
v -0.3737 1.0375 -0.0000
v -0.3603 1.0753 0.1241
v -0.5009 1.1392 0.1007
vn -0.4355 -0.8469 0.3050
v -0.3737 1.0375 -0.0000
v -0.5009 1.1392 0.1007
v -0.5108 1.1082 -0.0000
vn -0.4367 -0.8469 0.3035
v -0.3603 1.0753 0.1241
v -0.3277 1.1665 0.1756
v -0.4771 1.2140 0.1424
vn -0.3137 -0.3790 0.8706
v -0.3603 1.0753 0.1241
v -0.4771 1.2140 0.1424
v -0.5009 1.1392 0.1007
vn -0.3181 -0.3822 0.8676
v -0.3277 1.1665 0.1756
v -0.2952 1.2577 0.1241
v -0.4532 1.2889 0.1007
vn -0.0298 0.4989 0.8661
v -0.3277 1.1665 0.1756
v -0.4532 1.2889 0.1007
v -0.4771 1.2140 0.1424
vn -0.0348 0.4950 0.8682
v -0.2952 1.2577 0.1241
v -0.2818 1.2955 0.0000
v -0.4433 1.3199 0.0000
vn 0.1426 0.9425 0.3023
v -0.2952 1.2577 0.1241
v -0.4433 1.3199 0.0000
v -0.4532 1.2889 0.1007
vn 0.1411 0.9422 0.3039
v -0.2818 1.2955 0.0000
v -0.2952 1.2577 -0.1241
v -0.4532 1.2889 -0.1007
vn 0.1415 0.9427 -0.3022
v -0.2818 1.2955 0.0000
v -0.4532 1.2889 -0.1007
v -0.4433 1.3199 0.0000
vn 0.1425 0.9420 -0.3040
v -0.2952 1.2577 -0.1241
v -0.3277 1.1665 -0.1756
v -0.4771 1.2140 -0.1424
vn -0.0328 0.4997 -0.8656
v -0.2952 1.2577 -0.1241
v -0.4771 1.2140 -0.1424
v -0.4532 1.2889 -0.1007
vn -0.0311 0.4941 -0.8688
v 1.1944 -0.8396 0.0000
v 0.8196 -0.8786 -0.4831
v 1.1944 -0.8396 -0.6832
vn 0.1037 -0.9946 0.0000
v 1.1944 -0.8396 0.0000
v 0.6644 -0.8948 -0.0000
v 0.8196 -0.8786 -0.4831
vn 0.1037 -0.9946 -0.0000
v 1.1944 -0.8396 0.0000
v 0.8196 -0.8786 0.4831
v 0.6644 -0.8948 -0.0000
vn 0.1037 -0.9946 0.0000
v 1.1944 -0.8396 0.0000
v 1.1944 -0.8396 0.6832
v 0.8196 -0.8786 0.4831
vn 0.1037 -0.9946 0.0000
v 1.1944 -0.8396 0.0000
v 1.5692 -0.8005 0.4831
v 1.1944 -0.8396 0.6832
vn 0.1037 -0.9946 0.0000
v 1.1944 -0.8396 0.0000
v 1.7244 -0.7843 0.0000
v 1.5692 -0.8005 0.4831
vn 0.1037 -0.9946 -0.0000
v 1.1944 -0.8396 0.0000
v 1.5692 -0.8005 -0.4831
v 1.7244 -0.7843 0.0000
vn 0.1037 -0.9946 0.0000
v 1.1944 -0.8396 0.0000
v 1.1944 -0.8396 -0.6832
v 1.5692 -0.8005 -0.4831
vn 0.1037 -0.9946 0.0000
f 1//1 2//1 3//1
f 4//2 5//2 6//2
f 7//3 8//3 9//3
f 10//4 11//4 12//4
f 13//5 14//5 15//5
f 16//6 17//6 18//6
f 19//7 20//7 21//7
f 22//8 23//8 24//8
f 25//9 26//9 27//9
f 28//10 29//10 30//10
f 31//11 32//11 33//11
f 34//12 35//12 36//12
f 37//13 38//13 39//13
f 40//14 41//14 42//14
f 43//15 44//15 45//15
f 46//16 47//16 48//16
f 49//17 50//17 51//17
f 52//18 53//18 54//18
f 55//19 56//19 57//19
f 58//20 59//20 60//20
f 61//21 62//21 63//21
f 64//22 65//22 66//22
f 67//23 68//23 69//23
f 70//24 71//24 72//24
f 73//25 74//25 75//25
f 76//26 77//26 78//26
f 79//27 80//27 81//27
f 82//28 83//28 84//28
f 85//29 86//29 87//29
f 88//30 89//30 90//30
f 91//31 92//31 93//31
f 94//32 95//32 96//32
f 97//33 98//33 99//33
f 100//34 101//34 102//34
f 103//35 104//35 105//35
f 106//36 107//36 108//36
f 109//37 110//37 111//37
f 112//38 113//38 114//38
f 115//39 116//39 117//39
f 118//40 119//40 120//40
f 121//41 122//41 123//41
f 124//42 125//42 126//42
f 127//43 128//43 129//43
f 130//44 131//44 132//44
f 133//45 134//45 135//45
f 136//46 137//46 138//46
f 139//47 140//47 141//47
f 142//48 143//48 144//48
f 145//49 146//49 147//49
f 148//50 149//50 150//50
f 151//51 152//51 153//51
f 154//52 155//52 156//52
f 157//53 158//53 159//53
f 160//54 161//54 162//54
f 163//55 164//55 165//55
f 166//56 167//56 168//56
f 169//57 170//57 171//57
f 172//58 173//58 174//58
f 175//59 176//59 177//59
f 178//60 179//60 180//60
f 181//61 182//61 183//61
f 184//62 185//62 186//62
f 187//63 188//63 189//63
f 190//64 191//64 192//64
f 193//65 194//65 195//65
f 196//66 197//66 198//66
f 199//67 200//67 201//67
f 202//68 203//68 204//68
f 205//69 206//69 207//69
f 208//70 209//70 210//70
f 211//71 212//71 213//71
f 214//72 215//72 216//72
f 217//73 218//73 219//73
f 220//74 221//74 222//74
f 223//75 224//75 225//75
f 226//76 227//76 228//76
f 229//77 230//77 231//77
f 232//78 233//78 234//78
f 235//79 236//79 237//79
f 238//80 239//80 240//80
f 241//81 242//81 243//81
f 244//82 245//82 246//82
f 247//83 248//83 249//83
f 250//84 251//84 252//84
f 253//85 254//85 255//85
f 256//86 257//86 258//86
f 259//87 260//87 261//87
f 262//88 263//88 264//88
f 265//89 266//89 267//89
f 268//90 269//90 270//90
f 271//91 272//91 273//91
f 274//92 275//92 276//92
f 277//93 278//93 279//93
f 280//94 281//94 282//94
f 283//95 284//95 285//95
f 286//96 287//96 288//96
f 289//97 290//97 291//97
f 292//98 293//98 294//98
f 295//99 296//99 297//99
f 298//100 299//100 300//100
f 301//101 302//101 303//101
f 304//102 305//102 306//102
f 307//103 308//103 309//103
f 310//104 311//104 312//104
f 313//105 314//105 315//105
f 316//106 317//106 318//106
f 319//107 320//107 321//107
f 322//108 323//108 324//108
f 325//109 326//109 327//109
f 328//110 329//110 330//110
f 331//111 332//111 333//111
f 334//112 335//112 336//112
f 337//113 338//113 339//113
f 340//114 341//114 342//114
f 343//115 344//115 345//115
f 346//116 347//116 348//116
f 349//117 350//117 351//117
f 352//118 353//118 354//118
f 355//119 356//119 357//119
f 358//120 359//120 360//120
f 361//121 362//121 363//121
f 364//122 365//122 366//122
f 367//123 368//123 369//123
f 370//124 371//124 372//124
f 373//125 374//125 375//125
f 376//126 377//126 378//126
f 379//127 380//127 381//127
f 382//128 383//128 384//128
f 385//129 386//129 387//129
f 388//130 389//130 390//130
f 391//131 392//131 393//131
f 394//132 395//132 396//132
f 397//133 398//133 399//133
f 400//134 401//134 402//134
f 403//135 404//135 405//135
f 406//136 407//136 408//136
f 409//137 410//137 411//137
f 412//138 413//138 414//138
f 415//139 416//139 417//139
f 418//140 419//140 420//140
f 421//141 422//141 423//141
f 424//142 425//142 426//142
f 427//143 428//143 429//143
f 430//144 431//144 432//144
f 433//145 434//145 435//145
f 436//146 437//146 438//146
f 439//147 440//147 441//147
f 442//148 443//148 444//148
f 445//149 446//149 447//149
f 448//150 449//150 450//150
f 451//151 452//151 453//151
f 454//152 455//152 456//152
f 457//153 458//153 459//153
f 460//154 461//154 462//154
f 463//155 464//155 465//155
f 466//156 467//156 468//156
f 469//157 470//157 471//157
f 472//158 473//158 474//158
f 475//159 476//159 477//159
f 478//160 479//160 480//160
f 481//161 482//161 483//161
f 484//162 485//162 486//162
f 487//163 488//163 489//163
f 490//164 491//164 492//164
f 493//165 494//165 495//165
f 496//166 497//166 498//166
f 499//167 500//167 501//167
f 502//168 503//168 504//168
f 505//169 506//169 507//169
f 508//170 509//170 510//170
f 511//171 512//171 513//171
f 514//172 515//172 516//172
f 517//173 518//173 519//173
f 520//174 521//174 522//174
f 523//175 524//175 525//175
f 526//176 527//176 528//176
f 529//177 530//177 531//177
f 532//178 533//178 534//178
f 535//179 536//179 537//179
f 538//180 539//180 540//180
f 541//181 542//181 543//181
f 544//182 545//182 546//182
f 547//183 548//183 549//183
f 550//184 551//184 552//184
f 553//185 554//185 555//185
f 556//186 557//186 558//186
f 559//187 560//187 561//187
f 562//188 563//188 564//188
f 565//189 566//189 567//189
f 568//190 569//190 570//190
f 571//191 572//191 573//191
f 574//192 575//192 576//192
f 577//193 578//193 579//193
f 580//194 581//194 582//194
f 583//195 584//195 585//195
f 586//196 587//196 588//196
f 589//197 590//197 591//197
f 592//198 593//198 594//198
f 595//199 596//199 597//199
f 598//200 599//200 600//200
f 601//201 602//201 603//201
f 604//202 605//202 606//202
f 607//203 608//203 609//203
f 610//204 611//204 612//204
f 613//205 614//205 615//205
f 616//206 617//206 618//206
f 619//207 620//207 621//207
f 622//208 623//208 624//208
f 625//209 626//209 627//209
f 628//210 629//210 630//210
f 631//211 632//211 633//211
f 634//212 635//212 636//212
f 637//213 638//213 639//213
f 640//214 641//214 642//214
f 643//215 644//215 645//215
f 646//216 647//216 648//216
f 649//217 650//217 651//217
f 652//218 653//218 654//218
f 655//219 656//219 657//219
f 658//220 659//220 660//220
f 661//221 662//221 663//221
f 664//222 665//222 666//222
f 667//223 668//223 669//223
f 670//224 671//224 672//224
f 673//225 674//225 675//225
f 676//226 677//226 678//226
f 679//227 680//227 681//227
f 682//228 683//228 684//228
f 685//229 686//229 687//229
f 688//230 689//230 690//230
f 691//231 692//231 693//231
f 694//232 695//232 696//232
f 697//233 698//233 699//233
f 700//234 701//234 702//234
f 703//235 704//235 705//235
f 706//236 707//236 708//236
f 709//237 710//237 711//237
f 712//238 713//238 714//238
f 715//239 716//239 717//239
f 718//240 719//240 720//240
f 721//241 722//241 723//241
f 724//242 725//242 726//242
f 727//243 728//243 729//243
f 730//244 731//244 732//244
f 733//245 734//245 735//245
f 736//246 737//246 738//246
f 739//247 740//247 741//247
f 742//248 743//248 744//248
f 745//249 746//249 747//249
f 748//250 749//250 750//250
f 751//251 752//251 753//251
f 754//252 755//252 756//252
f 757//253 758//253 759//253
f 760//254 761//254 762//254
f 763//255 764//255 765//255
f 766//256 767//256 768//256
f 769//257 770//257 771//257
f 772//258 773//258 774//258
f 775//259 776//259 777//259
f 778//260 779//260 780//260
f 781//261 782//261 783//261
f 784//262 785//262 786//262
f 787//263 788//263 789//263
f 790//264 791//264 792//264
f 793//265 794//265 795//265
f 796//266 797//266 798//266
f 799//267 800//267 801//267
f 802//268 803//268 804//268
f 805//269 806//269 807//269
f 808//270 809//270 810//270
f 811//271 812//271 813//271
f 814//272 815//272 816//272
f 817//273 818//273 819//273
f 820//274 821//274 822//274
f 823//275 824//275 825//275
f 826//276 827//276 828//276
f 829//277 830//277 831//277
f 832//278 833//278 834//278
f 835//279 836//279 837//279
f 838//280 839//280 840//280
f 841//281 842//281 843//281
f 844//282 845//282 846//282
f 847//283 848//283 849//283
f 850//284 851//284 852//284
f 853//285 854//285 855//285
f 856//286 857//286 858//286
f 859//287 860//287 861//287
f 862//288 863//288 864//288
f 865//289 866//289 867//289
f 868//290 869//290 870//290
f 871//291 872//291 873//291
f 874//292 875//292 876//292
f 877//293 878//293 879//293
f 880//294 881//294 882//294
f 883//295 884//295 885//295
f 886//296 887//296 888//296
