# fossil_claw_rock - original low-poly mesh generated by tools/make_artifact_meshes.py (studs, +Y up, front +Z)
o fossil_claw_rock
v -0.4819 -1.5788 -0.5415
v -1.3622 -1.5560 -0.6500
v 1.0378 -1.5560 -0.6500
vn 0.0000 -0.9786 -0.2059
v -0.7763 -1.5736 -0.1400
v -1.3622 -1.5560 0.6500
v -1.3622 -1.5560 -0.6500
vn -0.0301 -0.9995 0.0000
v -0.7763 -1.5736 -0.1400
v -1.3622 -1.5560 -0.6500
v -0.4819 -1.5788 -0.5415
vn -0.0252 -0.9997 -0.0056
v 0.1618 -1.5695 0.0667
v 1.0378 -1.5560 0.6500
v -1.3622 -1.5560 0.6500
vn 0.0000 -0.9997 0.0232
v 0.1618 -1.5695 0.0667
v -1.3622 -1.5560 0.6500
v -0.7763 -1.5736 -0.1400
vn -0.0005 -0.9998 0.0220
v 0.1618 -1.5695 0.0667
v -0.7763 -1.5736 -0.1400
v -0.4819 -1.5788 -0.5415
vn 0.0013 -0.9999 0.0139
v 0.1618 -1.5695 0.0667
v 1.0378 -1.5560 -0.6500
v 1.0378 -1.5560 0.6500
vn 0.0154 -0.9999 0.0000
v 0.1618 -1.5695 0.0667
v -0.4819 -1.5788 -0.5415
v 1.0378 -1.5560 -0.6500
vn 0.0150 -0.9999 -0.0005
v 1.0378 -0.8560 -0.6500
v -1.3622 -1.5560 -0.6500
v -1.3622 -0.8560 -0.6500
vn -0.0000 0.0000 -1.0000
v 1.0378 -0.8560 -0.6500
v 1.0378 -1.5560 -0.6500
v -1.3622 -1.5560 -0.6500
vn 0.0000 -0.0000 -1.0000
v 1.0378 -1.5560 0.6500
v 1.0378 -1.5560 -0.6500
v 1.0378 -0.8560 -0.6500
vn 1.0000 0.0000 0.0000
v 1.0378 -1.5560 0.6500
v 1.0378 -0.8560 -0.6500
v 1.0378 -0.8560 0.6500
vn 1.0000 -0.0000 0.0000
v -1.3622 -0.8560 0.6500
v -1.3622 -0.8560 -0.6500
v -1.3622 -1.5560 -0.6500
vn -1.0000 0.0000 -0.0000
v -1.3622 -0.8560 0.6500
v -1.3622 -1.5560 -0.6500
v -1.3622 -1.5560 0.6500
vn -1.0000 -0.0000 0.0000
v -1.3622 -0.8560 0.6500
v 1.0378 -0.8560 -0.6500
v -1.3622 -0.8560 -0.6500
vn 0.0000 1.0000 0.0000
v -1.3622 -0.8560 0.6500
v 1.0378 -0.8560 0.6500
v 1.0378 -0.8560 -0.6500
vn -0.0000 1.0000 0.0000
v -1.3622 -0.8560 0.6500
v 1.0378 -1.5560 0.6500
v 1.0378 -0.8560 0.6500
vn -0.0000 0.0000 1.0000
v -1.3622 -0.8560 0.6500
v -1.3622 -1.5560 0.6500
v 1.0378 -1.5560 0.6500
vn 0.0000 0.0000 1.0000
f 1//1 2//1 3//1
f 4//2 5//2 6//2
f 7//3 8//3 9//3
f 10//4 11//4 12//4
f 13//5 14//5 15//5
f 16//6 17//6 18//6
f 19//7 20//7 21//7
f 22//8 23//8 24//8
f 25//9 26//9 27//9
f 28//10 29//10 30//10
f 31//11 32//11 33//11
f 34//12 35//12 36//12
f 37//13 38//13 39//13
f 40//14 41//14 42//14
f 43//15 44//15 45//15
f 46//16 47//16 48//16
f 49//17 50//17 51//17
f 52//18 53//18 54//18
