# fossil_claw_tip - original low-poly mesh generated by tools/make_artifact_meshes.py (studs, +Y up, front +Z)
o fossil_claw_tip
v -0.4771 1.2140 -0.1424
v -0.4958 1.1377 -0.1007
v -0.6415 1.1927 -0.0767
vn -0.2944 -0.4019 -0.8670
v -0.4771 1.2140 -0.1424
v -0.6415 1.1927 -0.0767
v -0.6293 1.2513 -0.1085
vn -0.2928 -0.4080 -0.8648
v -0.4958 1.1377 -0.1007
v -0.5035 1.1061 -0.0000
v -0.6466 1.1685 -0.0000
vn -0.3806 -0.8735 -0.3034
v -0.4958 1.1377 -0.1007
v -0.6466 1.1685 -0.0000
v -0.6415 1.1927 -0.0767
vn -0.3797 -0.8745 -0.3017
v -0.5035 1.1061 -0.0000
v -0.4958 1.1377 0.1007
v -0.6415 1.1927 0.0767
vn -0.3798 -0.8739 0.3034
v -0.5035 1.1061 -0.0000
v -0.6415 1.1927 0.0767
v -0.6466 1.1685 -0.0000
vn -0.3809 -0.8741 0.3016
v -0.4958 1.1377 0.1007
v -0.4771 1.2140 0.1424
v -0.6293 1.2513 0.1085
vn -0.2921 -0.4027 0.8675
v -0.4958 1.1377 0.1007
v -0.6293 1.2513 0.1085
v -0.6415 1.1927 0.0767
vn -0.2959 -0.4070 0.8642
v -0.4771 1.2140 0.1424
v -0.4584 1.2903 0.1007
v -0.6170 1.3099 0.0767
vn -0.0707 0.4918 0.8678
v -0.4771 1.2140 0.1424
v -0.6170 1.3099 0.0767
v -0.6293 1.2513 0.1085
vn -0.0746 0.4875 0.8699
v -0.4584 1.2903 0.1007
v -0.4506 1.3220 0.0000
v -0.6120 1.3342 0.0000
vn 0.0719 0.9501 0.3037
v -0.4584 1.2903 0.1007
v -0.6120 1.3342 0.0000
v -0.6170 1.3099 0.0767
vn 0.0709 0.9497 0.3050
v -0.4506 1.3220 0.0000
v -0.4584 1.2903 -0.1007
v -0.6170 1.3099 -0.0767
vn 0.0711 0.9501 -0.3036
v -0.4506 1.3220 0.0000
v -0.6170 1.3099 -0.0767
v -0.6120 1.3342 0.0000
vn 0.0718 0.9496 -0.3051
v -0.4584 1.2903 -0.1007
v -0.4771 1.2140 -0.1424
v -0.6293 1.2513 -0.1085
vn -0.0729 0.4921 -0.8675
v -0.4584 1.2903 -0.1007
v -0.6293 1.2513 -0.1085
v -0.6170 1.3099 -0.0767
vn -0.0716 0.4872 -0.8704
v -0.6293 1.2513 -0.1085
v -0.6415 1.1927 -0.0767
v -0.7892 1.2381 -0.0518
vn -0.2735 -0.4139 -0.8683
v -0.6293 1.2513 -0.1085
v -0.7892 1.2381 -0.0518
v -0.7837 1.2781 -0.0733
vn -0.2708 -0.4254 -0.8635
v -0.6415 1.1927 -0.0767
v -0.6466 1.1685 -0.0000
v -0.7916 1.2215 -0.0000
vn -0.3273 -0.8945 -0.3045
v -0.6415 1.1927 -0.0767
v -0.7916 1.2215 -0.0000
v -0.7892 1.2381 -0.0518
vn -0.3260 -0.8961 -0.3012
v -0.6466 1.1685 -0.0000
v -0.6415 1.1927 0.0767
v -0.7892 1.2381 0.0518
vn -0.3262 -0.8949 0.3046
v -0.6466 1.1685 -0.0000
v -0.7892 1.2381 0.0518
v -0.7916 1.2215 -0.0000
vn -0.3277 -0.8955 0.3011
v -0.6415 1.1927 0.0767
v -0.6293 1.2513 0.1085
v -0.7837 1.2781 0.0733
vn -0.2702 -0.4149 0.8688
v -0.6415 1.1927 0.0767
v -0.7837 1.2781 0.0733
v -0.7892 1.2381 0.0518
vn -0.2757 -0.4242 0.8626
v -0.6293 1.2513 0.1085
v -0.6170 1.3099 0.0767
v -0.7781 1.3182 0.0518
vn -0.1083 0.4915 0.8641
v -0.6293 1.2513 0.1085
v -0.7781 1.3182 0.0518
v -0.7837 1.2781 0.0733
vn -0.1144 0.4817 0.8688
v -0.6170 1.3099 0.0767
v -0.6120 1.3342 0.0000
v -0.7758 1.3348 0.0000
vn 0.0036 0.9534 0.3017
v -0.6170 1.3099 0.0767
v -0.7758 1.3348 0.0000
v -0.7781 1.3182 0.0518
vn 0.0019 0.9524 0.3049
v -0.6120 1.3342 0.0000
v -0.6170 1.3099 -0.0767
v -0.7781 1.3182 -0.0518
vn 0.0025 0.9534 -0.3017
v -0.6120 1.3342 0.0000
v -0.7781 1.3182 -0.0518
v -0.7758 1.3348 0.0000
vn 0.0036 0.9524 -0.3049
v -0.6170 1.3099 -0.0767
v -0.6293 1.2513 -0.1085
v -0.7837 1.2781 -0.0733
vn -0.1115 0.4918 -0.8635
v -0.6170 1.3099 -0.0767
v -0.7837 1.2781 -0.0733
v -0.7781 1.3182 -0.0518
vn -0.1096 0.4814 -0.8696
v -0.7837 1.2781 -0.0733
v -0.7892 1.2381 -0.0518
v -0.9413 1.2779 -0.0212
vn -0.2840 -0.4221 -0.8609
v -0.7837 1.2781 -0.0733
v -0.9413 1.2779 -0.0212
v -0.9396 1.2944 -0.0300
vn -0.2830 -0.4286 -0.8580
v -0.7892 1.2381 -0.0518
v -0.7916 1.2215 -0.0000
v -0.9420 1.2711 -0.0000
vn -0.2985 -0.9051 -0.3029
v -0.7892 1.2381 -0.0518
v -0.9420 1.2711 -0.0000
v -0.9413 1.2779 -0.0212
vn -0.2980 -0.9058 -0.3011
v -0.7916 1.2215 -0.0000
v -0.7892 1.2381 0.0518
v -0.9413 1.2779 0.0212
vn -0.2982 -0.9052 0.3029
v -0.7916 1.2215 -0.0000
v -0.9413 1.2779 0.0212
v -0.9420 1.2711 -0.0000
vn -0.2986 -0.9056 0.3010
v -0.7892 1.2381 0.0518
v -0.7837 1.2781 0.0733
v -0.9396 1.2944 0.0300
vn -0.2832 -0.4223 0.8611
v -0.7892 1.2381 0.0518
v -0.9396 1.2944 0.0300
v -0.9413 1.2779 0.0212
vn -0.2849 -0.4282 0.8576
v -0.7837 1.2781 0.0733
v -0.7781 1.3182 0.0518
v -0.9378 1.3109 0.0212
vn -0.1861 0.4842 0.8549
v -0.7837 1.2781 0.0733
v -0.9378 1.3109 0.0212
v -0.9396 1.2944 0.0300
vn -0.1885 0.4778 0.8580
v -0.7781 1.3182 0.0518
v -0.7758 1.3348 0.0000
v -0.9371 1.3177 0.0000
vn -0.1006 0.9489 0.2992
v -0.7781 1.3182 0.0518
v -0.9371 1.3177 0.0000
v -0.9378 1.3109 0.0212
vn -0.1013 0.9481 0.3013
v -0.7758 1.3348 0.0000
v -0.7781 1.3182 -0.0518
v -0.9378 1.3109 -0.0212
vn -0.1009 0.9489 -0.2992
v -0.7758 1.3348 0.0000
v -0.9378 1.3109 -0.0212
v -0.9371 1.3177 0.0000
vn -0.1005 0.9482 -0.3013
v -0.7781 1.3182 -0.0518
v -0.7837 1.2781 -0.0733
v -0.9396 1.2944 -0.0300
vn -0.1869 0.4842 -0.8547
v -0.7781 1.3182 -0.0518
v -0.9396 1.2944 -0.0300
v -0.9378 1.3109 -0.0212
vn -0.1865 0.4778 -0.8585
v -0.9396 1.2944 0.0000
v -0.9396 1.2944 -0.0300
v -0.9413 1.2779 -0.0212
vn -0.9946 0.1037 0.0000
v -0.9396 1.2944 0.0000
v -0.9413 1.2779 -0.0212
v -0.9420 1.2711 -0.0000
vn -0.9946 0.1037 0.0000
v -0.9396 1.2944 0.0000
v -0.9420 1.2711 -0.0000
v -0.9413 1.2779 0.0212
vn -0.9946 0.1037 -0.0000
v -0.9396 1.2944 0.0000
v -0.9413 1.2779 0.0212
v -0.9396 1.2944 0.0300
vn -0.9946 0.1037 0.0000
v -0.9396 1.2944 0.0000
v -0.9396 1.2944 0.0300
v -0.9378 1.3109 0.0212
vn -0.9946 0.1037 0.0000
v -0.9396 1.2944 0.0000
v -0.9378 1.3109 0.0212
v -0.9371 1.3177 0.0000
vn -0.9946 0.1037 0.0000
v -0.9396 1.2944 0.0000
v -0.9371 1.3177 0.0000
v -0.9378 1.3109 -0.0212
vn -0.9946 0.1037 -0.0000
v -0.9396 1.2944 0.0000
v -0.9378 1.3109 -0.0212
v -0.9396 1.2944 -0.0300
vn -0.9946 0.1037 0.0000
f 1//1 2//1 3//1
f 4//2 5//2 6//2
f 7//3 8//3 9//3
f 10//4 11//4 12//4
f 13//5 14//5 15//5
f 16//6 17//6 18//6
f 19//7 20//7 21//7
f 22//8 23//8 24//8
f 25//9 26//9 27//9
f 28//10 29//10 30//10
f 31//11 32//11 33//11
f 34//12 35//12 36//12
f 37//13 38//13 39//13
f 40//14 41//14 42//14
f 43//15 44//15 45//15
f 46//16 47//16 48//16
f 49//17 50//17 51//17
f 52//18 53//18 54//18
f 55//19 56//19 57//19
f 58//20 59//20 60//20
f 61//21 62//21 63//21
f 64//22 65//22 66//22
f 67//23 68//23 69//23
f 70//24 71//24 72//24
f 73//25 74//25 75//25
f 76//26 77//26 78//26
f 79//27 80//27 81//27
f 82//28 83//28 84//28
f 85//29 86//29 87//29
f 88//30 89//30 90//30
f 91//31 92//31 93//31
f 94//32 95//32 96//32
f 97//33 98//33 99//33
f 100//34 101//34 102//34
f 103//35 104//35 105//35
f 106//36 107//36 108//36
f 109//37 110//37 111//37
f 112//38 113//38 114//38
f 115//39 116//39 117//39
f 118//40 119//40 120//40
f 121//41 122//41 123//41
f 124//42 125//42 126//42
f 127//43 128//43 129//43
f 130//44 131//44 132//44
f 133//45 134//45 135//45
f 136//46 137//46 138//46
f 139//47 140//47 141//47
f 142//48 143//48 144//48
f 145//49 146//49 147//49
f 148//50 149//50 150//50
f 151//51 152//51 153//51
f 154//52 155//52 156//52
f 157//53 158//53 159//53
f 160//54 161//54 162//54
f 163//55 164//55 165//55
f 166//56 167//56 168//56
