# pottery_shard_band - original low-poly mesh generated by tools/make_artifact_meshes.py (studs, +Y up, front +Z)
o pottery_shard_band
v -1.0156 0.0200 -0.3396
v -0.8373 0.0200 -0.2101
v -0.8373 0.2600 -0.2101
vn -0.5878 0.0000 0.8090
v -1.0156 0.0200 -0.3396
v -0.8373 0.2600 -0.2101
v -1.0156 0.2600 -0.3396
vn -0.5878 0.0000 0.8090
v -0.8373 0.0200 -0.2101
v -0.6426 0.0200 -0.1066
v -0.6426 0.2600 -0.1066
vn -0.4695 0.0000 0.8829
v -0.8373 0.0200 -0.2101
v -0.6426 0.2600 -0.1066
v -0.8373 0.2600 -0.2101
vn -0.4695 0.0000 0.8829
v -0.6426 0.0200 -0.1066
v -0.4355 0.0200 -0.0312
v -0.4355 0.2600 -0.0312
vn -0.3420 0.0000 0.9397
v -0.6426 0.0200 -0.1066
v -0.4355 0.2600 -0.0312
v -0.6426 0.2600 -0.1066
vn -0.3420 0.0000 0.9397
v -0.4355 0.0200 -0.0312
v -0.2199 0.0200 0.0146
v -0.2199 0.2600 0.0146
vn -0.2079 0.0000 0.9781
v -0.4355 0.0200 -0.0312
v -0.2199 0.2600 0.0146
v -0.4355 0.2600 -0.0312
vn -0.2079 0.0000 0.9781
v -0.2199 0.0200 0.0146
v 0.0000 0.0200 0.0300
v 0.0000 0.2600 0.0300
vn -0.0698 0.0000 0.9976
v -0.2199 0.0200 0.0146
v 0.0000 0.2600 0.0300
v -0.2199 0.2600 0.0146
vn -0.0698 0.0000 0.9976
v 0.0000 0.0200 0.0300
v 0.2199 0.0200 0.0146
v 0.2199 0.2600 0.0146
vn 0.0698 0.0000 0.9976
v 0.0000 0.0200 0.0300
v 0.2199 0.2600 0.0146
v 0.0000 0.2600 0.0300
vn 0.0698 -0.0000 0.9976
v 0.2199 0.0200 0.0146
v 0.4355 0.0200 -0.0312
v 0.4355 0.2600 -0.0312
vn 0.2079 0.0000 0.9781
v 0.2199 0.0200 0.0146
v 0.4355 0.2600 -0.0312
v 0.2199 0.2600 0.0146
vn 0.2079 -0.0000 0.9781
v 0.4355 0.0200 -0.0312
v 0.6426 0.0200 -0.1066
v 0.6426 0.2600 -0.1066
vn 0.3420 0.0000 0.9397
v 0.4355 0.0200 -0.0312
v 0.6426 0.2600 -0.1066
v 0.4355 0.2600 -0.0312
vn 0.3420 -0.0000 0.9397
v 0.6426 0.0200 -0.1066
v 0.8373 0.0200 -0.2101
v 0.8373 0.2600 -0.2101
vn 0.4695 0.0000 0.8829
v 0.6426 0.0200 -0.1066
v 0.8373 0.2600 -0.2101
v 0.6426 0.2600 -0.1066
vn 0.4695 -0.0000 0.8829
v 0.8373 0.0200 -0.2101
v 1.0156 0.0200 -0.3396
v 1.0156 0.2600 -0.3396
vn 0.5878 0.0000 0.8090
v 0.8373 0.0200 -0.2101
v 1.0156 0.2600 -0.3396
v 0.8373 0.2600 -0.2101
vn 0.5878 -0.0000 0.8090
f 1//1 2//1 3//1
f 4//2 5//2 6//2
f 7//3 8//3 9//3
f 10//4 11//4 12//4
f 13//5 14//5 15//5
f 16//6 17//6 18//6
f 19//7 20//7 21//7
f 22//8 23//8 24//8
f 25//9 26//9 27//9
f 28//10 29//10 30//10
f 31//11 32//11 33//11
f 34//12 35//12 36//12
f 37//13 38//13 39//13
f 40//14 41//14 42//14
f 43//15 44//15 45//15
f 46//16 47//16 48//16
f 49//17 50//17 51//17
f 52//18 53//18 54//18
f 55//19 56//19 57//19
f 58//20 59//20 60//20
