# pottery_shard_edge - original low-poly mesh generated by tools/make_artifact_meshes.py (studs, +Y up, front +Z)
o pottery_shard_edge
v -1.2850 0.1988 -0.2727
v -1.1519 0.6075 -0.1023
v -0.9289 0.6075 -0.3031
vn -0.5917 0.4668 -0.6572
v -1.2850 0.1988 -0.2727
v -0.9289 0.6075 -0.3031
v -1.0363 0.1988 -0.4405
vn -0.5145 0.3917 -0.7628
v -1.2850 -0.4163 -0.2727
v -0.9289 -0.7659 -0.3031
v -1.1519 -0.7659 -0.1023
vn -0.5694 -0.5251 -0.6324
v -1.2850 -0.4163 -0.2727
v -1.0363 -0.4163 -0.4405
v -0.9289 -0.7659 -0.3031
vn -0.5006 -0.4455 -0.7422
v -1.1519 0.6075 -0.1023
v -0.9963 0.9807 0.0479
v -0.8035 0.9807 -0.1819
vn -0.6632 0.5005 -0.5565
v -1.1519 0.6075 -0.1023
v -0.8035 0.9807 -0.1819
v -0.9289 0.6075 -0.3031
vn -0.6065 0.4225 -0.6736
v -1.1519 -0.7659 -0.1023
v -0.8035 -1.0002 -0.1819
v -0.9963 -1.0002 0.0479
vn -0.5636 -0.6773 -0.4729
v -1.1519 -0.7659 -0.1023
v -0.9289 -0.7659 -0.3031
v -0.8035 -1.0002 -0.1819
vn -0.5372 -0.5961 -0.5967
v -0.9963 0.9807 0.0479
v -0.8214 1.0073 0.1750
v -0.6624 1.0073 -0.0794
vn -0.1041 0.9924 -0.0650
v -0.9963 0.9807 0.0479
v -0.6624 1.0073 -0.0794
v -0.8035 0.9807 -0.1819
vn -0.1161 0.9884 -0.0974
v -0.9963 -1.0002 0.0479
v -0.6624 -0.9400 -0.0794
v -0.8214 -0.9400 0.1750
vn 0.2279 -0.9632 0.1424
v -0.9963 -1.0002 0.0479
v -0.8035 -1.0002 -0.1819
v -0.6624 -0.9400 -0.0794
vn 0.2504 -0.9451 0.2101
v -0.8214 1.0073 0.1750
v -0.6304 0.9902 0.2765
v -0.5084 0.9902 0.0024
vn 0.0725 0.9968 0.0323
v -0.8214 1.0073 0.1750
v -0.5084 0.9902 0.0024
v -0.6624 1.0073 -0.0794
vn 0.0833 0.9952 0.0520
v -0.8214 -0.9400 0.1750
v -0.5084 -0.8771 0.0024
v -0.6304 -0.8771 0.2765
vn 0.2558 -0.9600 0.1139
v -0.8214 -0.9400 0.1750
v -0.6624 -0.9400 -0.0794
v -0.5084 -0.8771 0.0024
vn 0.2884 -0.9404 0.1802
v -0.6304 0.9902 0.2765
v -0.4272 0.9448 0.3505
v -0.3445 0.9448 0.0621
vn 0.1980 0.9786 0.0568
v -0.6304 0.9902 0.2765
v -0.3445 0.9448 0.0621
v -0.5084 0.9902 0.0024
vn 0.2307 0.9676 0.1027
v -0.6304 -0.8771 0.2765
v -0.3445 -0.8545 0.0621
v -0.4272 -0.8545 0.3505
vn 0.1003 -0.9945 0.0287
v -0.6304 -0.8771 0.2765
v -0.5084 -0.8771 0.0024
v -0.3445 -0.8545 0.0621
vn 0.1178 -0.9917 0.0525
v -0.4272 0.9448 0.3505
v -0.2157 0.8950 0.3954
v -0.1740 0.8950 0.0983
vn 0.2224 0.9744 0.0313
v -0.4272 0.9448 0.3505
v -0.1740 0.8950 0.0983
v -0.3445 0.9448 0.0621
vn 0.2642 0.9615 0.0757
v -0.4272 -0.8545 0.3505
v -0.1740 -0.8962 0.0983
v -0.2157 -0.8962 0.3954
vn -0.1881 -0.9818 -0.0264
v -0.4272 -0.8545 0.3505
v -0.3445 -0.8545 0.0621
v -0.1740 -0.8962 0.0983
vn -0.2243 -0.9724 -0.0643
v -0.2157 0.8950 0.3954
v 0.0000 0.8662 0.4105
v 0.0000 0.8662 0.1105
vn 0.1325 0.9912 0.0000
v -0.2157 0.8950 0.3954
v 0.0000 0.8662 0.1105
v -0.1740 0.8950 0.0983
vn 0.1620 0.9865 0.0228
v -0.2157 -0.8962 0.3954
v 0.0000 -0.9961 0.1105
v 0.0000 -0.9961 0.4105
vn -0.4203 -0.9074 0.0000
v -0.2157 -0.8962 0.3954
v -0.1740 -0.8962 0.0983
v 0.0000 -0.9961 0.1105
vn -0.4932 -0.8672 -0.0693
v 0.0000 0.8662 0.4105
v 0.2157 0.8773 0.3954
v 0.1740 0.8773 0.0983
vn -0.0508 0.9987 0.0071
v 0.0000 0.8662 0.4105
v 0.1740 0.8773 0.0983
v 0.0000 0.8662 0.1105
vn -0.0636 0.9980 0.0000
v 0.0000 -0.9961 0.4105
v 0.1740 -1.1206 0.0983
v 0.2157 -1.1206 0.3954
vn -0.4951 -0.8661 0.0696
v 0.0000 -0.9961 0.4105
v 0.0000 -0.9961 0.1105
v 0.1740 -1.1206 0.0983
vn -0.5821 -0.8131 -0.0000
v 0.2157 0.8773 0.3954
v 0.4272 0.9356 0.3505
v 0.3445 0.9356 0.0621
vn -0.2507 0.9654 0.0719
v 0.2157 0.8773 0.3954
v 0.3445 0.9356 0.0621
v 0.1740 0.8773 0.0983
vn -0.3145 0.9482 0.0442
v 0.2157 -1.1206 0.3954
v 0.3445 -1.2247 0.0621
v 0.4272 -1.2247 0.3505
vn -0.4175 -0.9008 0.1197
v 0.2157 -1.1206 0.3954
v 0.1740 -1.1206 0.0983
v 0.3445 -1.2247 0.0621
vn -0.5082 -0.8583 0.0714
v 0.4272 0.9356 0.3505
v 0.6304 1.0344 0.2765
v 0.5084 1.0344 0.0024
vn -0.3804 0.9092 0.1694
v 0.4272 0.9356 0.3505
v 0.5084 1.0344 0.0024
v 0.3445 0.9356 0.0621
vn -0.4747 0.8695 0.1361
v 0.4272 -1.2247 0.3505
v 0.5084 -1.2727 0.0024
v 0.6304 -1.2727 0.2765
vn -0.1985 -0.9761 0.0884
v 0.4272 -1.2247 0.3505
v 0.3445 -1.2247 0.0621
v 0.5084 -1.2727 0.0024
vn -0.2558 -0.9640 0.0733
v 0.6304 1.0344 0.2765
v 0.8214 1.1551 0.1750
v 0.6624 1.1551 -0.0794
vn -0.4142 0.8726 0.2588
v 0.6304 1.0344 0.2765
v 0.6624 1.1551 -0.0794
v 0.5084 1.0344 0.0024
vn -0.5209 0.8215 0.2319
v 0.6304 -1.2727 0.2765
v 0.6624 -1.2556 -0.0794
v 0.8214 -1.2556 0.1750
vn 0.0671 -0.9969 -0.0419
v 0.6304 -1.2727 0.2765
v 0.5084 -1.2727 0.0024
v 0.6624 -1.2556 -0.0794
vn 0.0895 -0.9952 -0.0398
v 0.8214 1.1551 0.1750
v 0.9963 1.2727 0.0479
v 0.8035 1.2727 -0.1819
vn -0.3666 0.8780 0.3076
v 0.8214 1.1551 0.1750
v 0.8035 1.2727 -0.1819
v 0.6624 1.1551 -0.0794
vn -0.4749 0.8285 0.2967
v 0.8214 -1.2556 0.1750
v 0.8035 -1.1948 -0.1819
v 0.9963 -1.1948 0.0479
vn 0.2077 -0.9625 -0.1743
v 0.8214 -1.2556 0.1750
v 0.6624 -1.2556 -0.0794
v 0.8035 -1.1948 -0.1819
vn 0.2797 -0.9440 -0.1748
v 0.9963 1.2727 0.0479
v 1.1519 1.2430 -0.1023
v 0.9289 1.2430 -0.3031
vn 0.0913 0.9906 -0.1014
v 0.9963 1.2727 0.0479
v 0.9289 1.2430 -0.3031
v 0.8035 1.2727 -0.1819
vn 0.1290 0.9857 -0.1082
v 0.9963 -1.1948 0.0479
v 0.9289 -1.1324 -0.3031
v 1.1519 -1.1324 -0.1023
vn 0.1860 -0.9606 -0.2065
v 0.9963 -1.1948 0.0479
v 0.8035 -1.1948 -0.1819
v 0.9289 -1.1324 -0.3031
vn 0.2587 -0.9413 -0.2170
v 1.1519 1.2430 -0.1023
v 1.2850 1.0598 -0.2727
v 1.0363 1.0598 -0.4405
vn 0.3619 0.7624 -0.5365
v 1.1519 1.2430 -0.1023
v 1.0363 1.0598 -0.4405
v 0.9289 1.2430 -0.3031
vn 0.4851 0.6888 -0.5388
v 1.1519 -1.1324 -0.1023
v 1.0363 -0.8111 -0.4405
v 1.2850 -0.8111 -0.2727
vn 0.4642 -0.5575 -0.6883
v 1.1519 -1.1324 -0.1023
v 0.9289 -1.1324 -0.3031
v 1.0363 -0.8111 -0.4405
vn 0.5884 -0.4762 -0.6535
v -1.2850 -0.4163 -0.2727
v -1.2850 -0.3137 -0.2727
v -1.0363 -0.3137 -0.4405
vn -0.5592 0.0000 -0.8290
v -1.2850 -0.4163 -0.2727
v -1.0363 -0.3137 -0.4405
v -1.0363 -0.4163 -0.4405
vn -0.5592 0.0000 -0.8290
v -1.2850 -0.3137 -0.2727
v -1.2850 -0.2112 -0.2727
v -1.0363 -0.2112 -0.4405
vn -0.5592 0.0000 -0.8290
v -1.2850 -0.3137 -0.2727
v -1.0363 -0.2112 -0.4405
v -1.0363 -0.3137 -0.4405
vn -0.5592 0.0000 -0.8290
v -1.2850 -0.2112 -0.2727
v -1.2850 -0.1087 -0.2727
v -1.0363 -0.1087 -0.4405
vn -0.5592 0.0000 -0.8290
v -1.2850 -0.2112 -0.2727
v -1.0363 -0.1087 -0.4405
v -1.0363 -0.2112 -0.4405
vn -0.5592 0.0000 -0.8290
v -1.2850 -0.1087 -0.2727
v -1.2850 -0.0062 -0.2727
v -1.0363 -0.0062 -0.4405
vn -0.5592 0.0000 -0.8290
v -1.2850 -0.1087 -0.2727
v -1.0363 -0.0062 -0.4405
v -1.0363 -0.1087 -0.4405
vn -0.5592 0.0000 -0.8290
v -1.2850 -0.0062 -0.2727
v -1.2850 0.0963 -0.2727
v -1.0363 0.0963 -0.4405
vn -0.5592 0.0000 -0.8290
v -1.2850 -0.0062 -0.2727
v -1.0363 0.0963 -0.4405
v -1.0363 -0.0062 -0.4405
vn -0.5592 0.0000 -0.8290
v -1.2850 0.0963 -0.2727
v -1.2850 0.1988 -0.2727
v -1.0363 0.1988 -0.4405
vn -0.5592 0.0000 -0.8290
v -1.2850 0.0963 -0.2727
v -1.0363 0.1988 -0.4405
v -1.0363 0.0963 -0.4405
vn -0.5592 0.0000 -0.8290
v 1.2850 -0.8111 -0.2727
v 1.0363 -0.4993 -0.4405
v 1.2850 -0.4993 -0.2727
vn 0.5592 0.0000 -0.8290
v 1.2850 -0.8111 -0.2727
v 1.0363 -0.8111 -0.4405
v 1.0363 -0.4993 -0.4405
vn 0.5592 0.0000 -0.8290
v 1.2850 -0.4993 -0.2727
v 1.0363 -0.1875 -0.4405
v 1.2850 -0.1875 -0.2727
vn 0.5592 0.0000 -0.8290
v 1.2850 -0.4993 -0.2727
v 1.0363 -0.4993 -0.4405
v 1.0363 -0.1875 -0.4405
vn 0.5592 0.0000 -0.8290
v 1.2850 -0.1875 -0.2727
v 1.0363 0.1244 -0.4405
v 1.2850 0.1244 -0.2727
vn 0.5592 0.0000 -0.8290
v 1.2850 -0.1875 -0.2727
v 1.0363 -0.1875 -0.4405
v 1.0363 0.1244 -0.4405
vn 0.5592 0.0000 -0.8290
v 1.2850 0.1244 -0.2727
v 1.0363 0.4362 -0.4405
v 1.2850 0.4362 -0.2727
vn 0.5592 0.0000 -0.8290
v 1.2850 0.1244 -0.2727
v 1.0363 0.1244 -0.4405
v 1.0363 0.4362 -0.4405
vn 0.5592 0.0000 -0.8290
v 1.2850 0.4362 -0.2727
v 1.0363 0.7480 -0.4405
v 1.2850 0.7480 -0.2727
vn 0.5592 0.0000 -0.8290
v 1.2850 0.4362 -0.2727
v 1.0363 0.4362 -0.4405
v 1.0363 0.7480 -0.4405
vn 0.5592 0.0000 -0.8290
v 1.2850 0.7480 -0.2727
v 1.0363 1.0598 -0.4405
v 1.2850 1.0598 -0.2727
vn 0.5592 0.0000 -0.8290
v 1.2850 0.7480 -0.2727
v 1.0363 0.7480 -0.4405
v 1.0363 1.0598 -0.4405
vn 0.5592 0.0000 -0.8290
f 1//1 2//1 3//1
f 4//2 5//2 6//2
f 7//3 8//3 9//3
f 10//4 11//4 12//4
f 13//5 14//5 15//5
f 16//6 17//6 18//6
f 19//7 20//7 21//7
f 22//8 23//8 24//8
f 25//9 26//9 27//9
f 28//10 29//10 30//10
f 31//11 32//11 33//11
f 34//12 35//12 36//12
f 37//13 38//13 39//13
f 40//14 41//14 42//14
f 43//15 44//15 45//15
f 46//16 47//16 48//16
f 49//17 50//17 51//17
f 52//18 53//18 54//18
f 55//19 56//19 57//19
f 58//20 59//20 60//20
f 61//21 62//21 63//21
f 64//22 65//22 66//22
f 67//23 68//23 69//23
f 70//24 71//24 72//24
f 73//25 74//25 75//25
f 76//26 77//26 78//26
f 79//27 80//27 81//27
f 82//28 83//28 84//28
f 85//29 86//29 87//29
f 88//30 89//30 90//30
f 91//31 92//31 93//31
f 94//32 95//32 96//32
f 97//33 98//33 99//33
f 100//34 101//34 102//34
f 103//35 104//35 105//35
f 106//36 107//36 108//36
f 109//37 110//37 111//37
f 112//38 113//38 114//38
f 115//39 116//39 117//39
f 118//40 119//40 120//40
f 121//41 122//41 123//41
f 124//42 125//42 126//42
f 127//43 128//43 129//43
f 130//44 131//44 132//44
f 133//45 134//45 135//45
f 136//46 137//46 138//46
f 139//47 140//47 141//47
f 142//48 143//48 144//48
f 145//49 146//49 147//49
f 148//50 149//50 150//50
f 151//51 152//51 153//51
f 154//52 155//52 156//52
f 157//53 158//53 159//53
f 160//54 161//54 162//54
f 163//55 164//55 165//55
f 166//56 167//56 168//56
f 169//57 170//57 171//57
f 172//58 173//58 174//58
f 175//59 176//59 177//59
f 178//60 179//60 180//60
f 181//61 182//61 183//61
f 184//62 185//62 186//62
f 187//63 188//63 189//63
f 190//64 191//64 192//64
f 193//65 194//65 195//65
f 196//66 197//66 198//66
f 199//67 200//67 201//67
f 202//68 203//68 204//68
f 205//69 206//69 207//69
f 208//70 209//70 210//70
f 211//71 212//71 213//71
f 214//72 215//72 216//72
f 217//73 218//73 219//73
f 220//74 221//74 222//74
f 223//75 224//75 225//75
f 226//76 227//76 228//76
f 229//77 230//77 231//77
f 232//78 233//78 234//78
f 235//79 236//79 237//79
f 238//80 239//80 240//80
