# pottery_shard_inner - original low-poly mesh generated by tools/make_artifact_meshes.py (studs, +Y up, front +Z)
o pottery_shard_inner
v -1.0363 -0.3678 -0.8510
v -0.9289 -0.4885 -0.7136
v -0.9289 -0.7174 -0.7136
vn 0.7880 0.0000 -0.6157
v -1.0363 -0.3678 -0.8510
v -1.0363 -0.2653 -0.8510
v -0.9289 -0.4885 -0.7136
vn 0.7880 0.0000 -0.6157
v -1.0363 -0.2653 -0.8510
v -0.9289 -0.2596 -0.7136
v -0.9289 -0.4885 -0.7136
vn 0.7880 0.0000 -0.6157
v -1.0363 -0.2653 -0.8510
v -1.0363 -0.1628 -0.8510
v -0.9289 -0.2596 -0.7136
vn 0.7880 0.0000 -0.6157
v -1.0363 -0.1628 -0.8510
v -0.9289 -0.0307 -0.7136
v -0.9289 -0.2596 -0.7136
vn 0.7880 0.0000 -0.6157
v -1.0363 -0.1628 -0.8510
v -1.0363 -0.0603 -0.8510
v -0.9289 -0.0307 -0.7136
vn 0.7880 0.0000 -0.6157
v -1.0363 -0.0603 -0.8510
v -0.9289 0.1981 -0.7136
v -0.9289 -0.0307 -0.7136
vn 0.7880 0.0000 -0.6157
v -1.0363 -0.0603 -0.8510
v -1.0363 0.0423 -0.8510
v -0.9289 0.1981 -0.7136
vn 0.7880 0.0000 -0.6157
v -1.0363 0.0423 -0.8510
v -0.9289 0.4270 -0.7136
v -0.9289 0.1981 -0.7136
vn 0.7880 0.0000 -0.6157
v -1.0363 0.0423 -0.8510
v -1.0363 0.1448 -0.8510
v -0.9289 0.4270 -0.7136
vn 0.7880 0.0000 -0.6157
v -1.0363 0.1448 -0.8510
v -0.9289 0.6559 -0.7136
v -0.9289 0.4270 -0.7136
vn 0.7880 0.0000 -0.6157
v -1.0363 0.1448 -0.8510
v -1.0363 0.2473 -0.8510
v -0.9289 0.6559 -0.7136
vn 0.7880 0.0000 -0.6157
v -0.9289 -0.7174 -0.7136
v -0.8035 -0.6216 -0.5924
v -0.8035 -0.9517 -0.5924
vn 0.6947 0.0000 -0.7193
v -0.9289 -0.7174 -0.7136
v -0.9289 -0.4885 -0.7136
v -0.8035 -0.6216 -0.5924
vn 0.6947 0.0000 -0.7193
v -0.9289 -0.4885 -0.7136
v -0.8035 -0.2914 -0.5924
v -0.8035 -0.6216 -0.5924
vn 0.6947 0.0000 -0.7193
v -0.9289 -0.4885 -0.7136
v -0.9289 -0.2596 -0.7136
v -0.8035 -0.2914 -0.5924
vn 0.6947 0.0000 -0.7193
v -0.9289 -0.2596 -0.7136
v -0.8035 0.0387 -0.5924
v -0.8035 -0.2914 -0.5924
vn 0.6947 0.0000 -0.7193
v -0.9289 -0.2596 -0.7136
v -0.9289 -0.0307 -0.7136
v -0.8035 0.0387 -0.5924
vn 0.6947 0.0000 -0.7193
v -0.9289 -0.0307 -0.7136
v -0.8035 0.3688 -0.5924
v -0.8035 0.0387 -0.5924
vn 0.6947 0.0000 -0.7193
v -0.9289 -0.0307 -0.7136
v -0.9289 0.1981 -0.7136
v -0.8035 0.3688 -0.5924
vn 0.6947 0.0000 -0.7193
v -0.9289 0.1981 -0.7136
v -0.8035 0.6990 -0.5924
v -0.8035 0.3688 -0.5924
vn 0.6947 0.0000 -0.7193
v -0.9289 0.1981 -0.7136
v -0.9289 0.4270 -0.7136
v -0.8035 0.6990 -0.5924
vn 0.6947 0.0000 -0.7193
v -0.9289 0.4270 -0.7136
v -0.8035 1.0291 -0.5924
v -0.8035 0.6990 -0.5924
vn 0.6947 0.0000 -0.7193
v -0.9289 0.4270 -0.7136
v -0.9289 0.6559 -0.7136
v -0.8035 1.0291 -0.5924
vn 0.6947 0.0000 -0.7193
v -0.8035 -0.9517 -0.5924
v -0.6624 -0.5670 -0.4899
v -0.6624 -0.8915 -0.4899
vn 0.5878 0.0000 -0.8090
v -0.8035 -0.9517 -0.5924
v -0.8035 -0.6216 -0.5924
v -0.6624 -0.5670 -0.4899
vn 0.5878 0.0000 -0.8090
v -0.8035 -0.6216 -0.5924
v -0.6624 -0.2424 -0.4899
v -0.6624 -0.5670 -0.4899
vn 0.5878 0.0000 -0.8090
v -0.8035 -0.6216 -0.5924
v -0.8035 -0.2914 -0.5924
v -0.6624 -0.2424 -0.4899
vn 0.5878 0.0000 -0.8090
v -0.8035 -0.2914 -0.5924
v -0.6624 0.0821 -0.4899
v -0.6624 -0.2424 -0.4899
vn 0.5878 0.0000 -0.8090
v -0.8035 -0.2914 -0.5924
v -0.8035 0.0387 -0.5924
v -0.6624 0.0821 -0.4899
vn 0.5878 0.0000 -0.8090
v -0.8035 0.0387 -0.5924
v -0.6624 0.4067 -0.4899
v -0.6624 0.0821 -0.4899
vn 0.5878 0.0000 -0.8090
v -0.8035 0.0387 -0.5924
v -0.8035 0.3688 -0.5924
v -0.6624 0.4067 -0.4899
vn 0.5878 0.0000 -0.8090
v -0.8035 0.3688 -0.5924
v -0.6624 0.7312 -0.4899
v -0.6624 0.4067 -0.4899
vn 0.5878 0.0000 -0.8090
v -0.8035 0.3688 -0.5924
v -0.8035 0.6990 -0.5924
v -0.6624 0.7312 -0.4899
vn 0.5878 0.0000 -0.8090
v -0.8035 0.6990 -0.5924
v -0.6624 1.0558 -0.4899
v -0.6624 0.7312 -0.4899
vn 0.5878 0.0000 -0.8090
v -0.8035 0.6990 -0.5924
v -0.8035 1.0291 -0.5924
v -0.6624 1.0558 -0.4899
vn 0.5878 0.0000 -0.8090
v -0.6624 -0.8915 -0.4899
v -0.5084 -0.5174 -0.4081
v -0.5084 -0.8286 -0.4081
vn 0.4695 0.0000 -0.8829
v -0.6624 -0.8915 -0.4899
v -0.6624 -0.5670 -0.4899
v -0.5084 -0.5174 -0.4081
vn 0.4695 0.0000 -0.8829
v -0.6624 -0.5670 -0.4899
v -0.5084 -0.2062 -0.4081
v -0.5084 -0.5174 -0.4081
vn 0.4695 0.0000 -0.8829
v -0.6624 -0.5670 -0.4899
v -0.6624 -0.2424 -0.4899
v -0.5084 -0.2062 -0.4081
vn 0.4695 0.0000 -0.8829
v -0.6624 -0.2424 -0.4899
v -0.5084 0.1050 -0.4081
v -0.5084 -0.2062 -0.4081
vn 0.4695 0.0000 -0.8829
v -0.6624 -0.2424 -0.4899
v -0.6624 0.0821 -0.4899
v -0.5084 0.1050 -0.4081
vn 0.4695 0.0000 -0.8829
v -0.6624 0.0821 -0.4899
v -0.5084 0.4162 -0.4081
v -0.5084 0.1050 -0.4081
vn 0.4695 0.0000 -0.8829
v -0.6624 0.0821 -0.4899
v -0.6624 0.4067 -0.4899
v -0.5084 0.4162 -0.4081
vn 0.4695 0.0000 -0.8829
v -0.6624 0.4067 -0.4899
v -0.5084 0.7274 -0.4081
v -0.5084 0.4162 -0.4081
vn 0.4695 0.0000 -0.8829
v -0.6624 0.4067 -0.4899
v -0.6624 0.7312 -0.4899
v -0.5084 0.7274 -0.4081
vn 0.4695 0.0000 -0.8829
v -0.6624 0.7312 -0.4899
v -0.5084 1.0386 -0.4081
v -0.5084 0.7274 -0.4081
vn 0.4695 0.0000 -0.8829
v -0.6624 0.7312 -0.4899
v -0.6624 1.0558 -0.4899
v -0.5084 1.0386 -0.4081
vn 0.4695 0.0000 -0.8829
v -0.5084 -0.8286 -0.4081
v -0.3445 -0.5061 -0.3484
v -0.3445 -0.8060 -0.3484
vn 0.3420 0.0000 -0.9397
v -0.5084 -0.8286 -0.4081
v -0.5084 -0.5174 -0.4081
v -0.3445 -0.5061 -0.3484
vn 0.3420 0.0000 -0.9397
v -0.5084 -0.5174 -0.4081
v -0.3445 -0.2063 -0.3484
v -0.3445 -0.5061 -0.3484
vn 0.3420 0.0000 -0.9397
v -0.5084 -0.5174 -0.4081
v -0.5084 -0.2062 -0.4081
v -0.3445 -0.2063 -0.3484
vn 0.3420 0.0000 -0.9397
v -0.5084 -0.2062 -0.4081
v -0.3445 0.0936 -0.3484
v -0.3445 -0.2063 -0.3484
vn 0.3420 0.0000 -0.9397
v -0.5084 -0.2062 -0.4081
v -0.5084 0.1050 -0.4081
v -0.3445 0.0936 -0.3484
vn 0.3420 0.0000 -0.9397
v -0.5084 0.1050 -0.4081
v -0.3445 0.3935 -0.3484
v -0.3445 0.0936 -0.3484
vn 0.3420 0.0000 -0.9397
v -0.5084 0.1050 -0.4081
v -0.5084 0.4162 -0.4081
v -0.3445 0.3935 -0.3484
vn 0.3420 0.0000 -0.9397
v -0.5084 0.4162 -0.4081
v -0.3445 0.6933 -0.3484
v -0.3445 0.3935 -0.3484
vn 0.3420 0.0000 -0.9397
v -0.5084 0.4162 -0.4081
v -0.5084 0.7274 -0.4081
v -0.3445 0.6933 -0.3484
vn 0.3420 0.0000 -0.9397
v -0.5084 0.7274 -0.4081
v -0.3445 0.9932 -0.3484
v -0.3445 0.6933 -0.3484
vn 0.3420 0.0000 -0.9397
v -0.5084 0.7274 -0.4081
v -0.5084 1.0386 -0.4081
v -0.3445 0.9932 -0.3484
vn 0.3420 0.0000 -0.9397
v -0.3445 -0.8060 -0.3484
v -0.1740 -0.5492 -0.3122
v -0.1740 -0.8477 -0.3122
vn 0.2079 0.0000 -0.9781
v -0.3445 -0.8060 -0.3484
v -0.3445 -0.5061 -0.3484
v -0.1740 -0.5492 -0.3122
vn 0.2079 0.0000 -0.9781
v -0.3445 -0.5061 -0.3484
v -0.1740 -0.2507 -0.3122
v -0.1740 -0.5492 -0.3122
vn 0.2079 0.0000 -0.9781
v -0.3445 -0.5061 -0.3484
v -0.3445 -0.2063 -0.3484
v -0.1740 -0.2507 -0.3122
vn 0.2079 0.0000 -0.9781
v -0.3445 -0.2063 -0.3484
v -0.1740 0.0479 -0.3122
v -0.1740 -0.2507 -0.3122
vn 0.2079 0.0000 -0.9781
v -0.3445 -0.2063 -0.3484
v -0.3445 0.0936 -0.3484
v -0.1740 0.0479 -0.3122
vn 0.2079 0.0000 -0.9781
v -0.3445 0.0936 -0.3484
v -0.1740 0.3464 -0.3122
v -0.1740 0.0479 -0.3122
vn 0.2079 0.0000 -0.9781
v -0.3445 0.0936 -0.3484
v -0.3445 0.3935 -0.3484
v -0.1740 0.3464 -0.3122
vn 0.2079 0.0000 -0.9781
v -0.3445 0.3935 -0.3484
v -0.1740 0.6449 -0.3122
v -0.1740 0.3464 -0.3122
vn 0.2079 0.0000 -0.9781
v -0.3445 0.3935 -0.3484
v -0.3445 0.6933 -0.3484
v -0.1740 0.6449 -0.3122
vn 0.2079 0.0000 -0.9781
v -0.3445 0.6933 -0.3484
v -0.1740 0.9435 -0.3122
v -0.1740 0.6449 -0.3122
vn 0.2079 0.0000 -0.9781
v -0.3445 0.6933 -0.3484
v -0.3445 0.9932 -0.3484
v -0.1740 0.9435 -0.3122
vn 0.2079 0.0000 -0.9781
v -0.1740 -0.8477 -0.3122
v 0.0000 -0.6373 -0.3000
v 0.0000 -0.9477 -0.3000
vn 0.0698 0.0000 -0.9976
v -0.1740 -0.8477 -0.3122
v -0.1740 -0.5492 -0.3122
v 0.0000 -0.6373 -0.3000
vn 0.0698 0.0000 -0.9976
v -0.1740 -0.5492 -0.3122
v 0.0000 -0.3269 -0.3000
v 0.0000 -0.6373 -0.3000
vn 0.0698 0.0000 -0.9976
v -0.1740 -0.5492 -0.3122
v -0.1740 -0.2507 -0.3122
v 0.0000 -0.3269 -0.3000
vn 0.0698 0.0000 -0.9976
v -0.1740 -0.2507 -0.3122
v 0.0000 -0.0165 -0.3000
v 0.0000 -0.3269 -0.3000
vn 0.0698 0.0000 -0.9976
v -0.1740 -0.2507 -0.3122
v -0.1740 0.0479 -0.3122
v 0.0000 -0.0165 -0.3000
vn 0.0698 0.0000 -0.9976
v -0.1740 0.0479 -0.3122
v 0.0000 0.2939 -0.3000
v 0.0000 -0.0165 -0.3000
vn 0.0698 0.0000 -0.9976
v -0.1740 0.0479 -0.3122
v -0.1740 0.3464 -0.3122
v 0.0000 0.2939 -0.3000
vn 0.0698 0.0000 -0.9976
v -0.1740 0.3464 -0.3122
v 0.0000 0.6043 -0.3000
v 0.0000 0.2939 -0.3000
vn 0.0698 0.0000 -0.9976
v -0.1740 0.3464 -0.3122
v -0.1740 0.6449 -0.3122
v 0.0000 0.6043 -0.3000
vn 0.0698 0.0000 -0.9976
v -0.1740 0.6449 -0.3122
v 0.0000 0.9146 -0.3000
v 0.0000 0.6043 -0.3000
vn 0.0698 0.0000 -0.9976
v -0.1740 0.6449 -0.3122
v -0.1740 0.9435 -0.3122
v 0.0000 0.9146 -0.3000
vn 0.0698 0.0000 -0.9976
v 0.0000 -0.9477 -0.3000
v 0.1740 -0.7392 -0.3122
v 0.1740 -1.0722 -0.3122
vn -0.0698 0.0000 -0.9976
v 0.0000 -0.9477 -0.3000
v 0.0000 -0.6373 -0.3000
v 0.1740 -0.7392 -0.3122
vn -0.0698 0.0000 -0.9976
v 0.0000 -0.6373 -0.3000
v 0.1740 -0.4062 -0.3122
v 0.1740 -0.7392 -0.3122
vn -0.0698 0.0000 -0.9976
v 0.0000 -0.6373 -0.3000
v 0.0000 -0.3269 -0.3000
v 0.1740 -0.4062 -0.3122
vn -0.0698 0.0000 -0.9976
v 0.0000 -0.3269 -0.3000
v 0.1740 -0.0732 -0.3122
v 0.1740 -0.4062 -0.3122
vn -0.0698 0.0000 -0.9976
v 0.0000 -0.3269 -0.3000
v 0.0000 -0.0165 -0.3000
v 0.1740 -0.0732 -0.3122
vn -0.0698 0.0000 -0.9976
v 0.0000 -0.0165 -0.3000
v 0.1740 0.2598 -0.3122
v 0.1740 -0.0732 -0.3122
vn -0.0698 0.0000 -0.9976
v 0.0000 -0.0165 -0.3000
v 0.0000 0.2939 -0.3000
v 0.1740 0.2598 -0.3122
vn -0.0698 0.0000 -0.9976
v 0.0000 0.2939 -0.3000
v 0.1740 0.5927 -0.3122
v 0.1740 0.2598 -0.3122
vn -0.0698 0.0000 -0.9976
v 0.0000 0.2939 -0.3000
v 0.0000 0.6043 -0.3000
v 0.1740 0.5927 -0.3122
vn -0.0698 0.0000 -0.9976
v 0.0000 0.6043 -0.3000
v 0.1740 0.9257 -0.3122
v 0.1740 0.5927 -0.3122
vn -0.0698 0.0000 -0.9976
v 0.0000 0.6043 -0.3000
v 0.0000 0.9146 -0.3000
v 0.1740 0.9257 -0.3122
vn -0.0698 0.0000 -0.9976
v 0.1740 -1.0722 -0.3122
v 0.3445 -0.8162 -0.3484
v 0.3445 -1.1762 -0.3484
vn -0.2079 0.0000 -0.9781
v 0.1740 -1.0722 -0.3122
v 0.1740 -0.7392 -0.3122
v 0.3445 -0.8162 -0.3484
vn -0.2079 0.0000 -0.9781
v 0.1740 -0.7392 -0.3122
v 0.3445 -0.4561 -0.3484
v 0.3445 -0.8162 -0.3484
vn -0.2079 0.0000 -0.9781
v 0.1740 -0.7392 -0.3122
v 0.1740 -0.4062 -0.3122
v 0.3445 -0.4561 -0.3484
vn -0.2079 0.0000 -0.9781
v 0.1740 -0.4062 -0.3122
v 0.3445 -0.0961 -0.3484
v 0.3445 -0.4561 -0.3484
vn -0.2079 0.0000 -0.9781
v 0.1740 -0.4062 -0.3122
v 0.1740 -0.0732 -0.3122
v 0.3445 -0.0961 -0.3484
vn -0.2079 0.0000 -0.9781
v 0.1740 -0.0732 -0.3122
v 0.3445 0.2639 -0.3484
v 0.3445 -0.0961 -0.3484
vn -0.2079 0.0000 -0.9781
v 0.1740 -0.0732 -0.3122
v 0.1740 0.2598 -0.3122
v 0.3445 0.2639 -0.3484
vn -0.2079 0.0000 -0.9781
v 0.1740 0.2598 -0.3122
v 0.3445 0.6240 -0.3484
v 0.3445 0.2639 -0.3484
vn -0.2079 0.0000 -0.9781
v 0.1740 0.2598 -0.3122
v 0.1740 0.5927 -0.3122
v 0.3445 0.6240 -0.3484
vn -0.2079 0.0000 -0.9781
v 0.1740 0.5927 -0.3122
v 0.3445 0.9840 -0.3484
v 0.3445 0.6240 -0.3484
vn -0.2079 0.0000 -0.9781
v 0.1740 0.5927 -0.3122
v 0.1740 0.9257 -0.3122
v 0.3445 0.9840 -0.3484
vn -0.2079 0.0000 -0.9781
v 0.3445 -1.1762 -0.3484
v 0.5084 -0.8397 -0.4081
v 0.5084 -1.2242 -0.4081
vn -0.3420 0.0000 -0.9397
v 0.3445 -1.1762 -0.3484
v 0.3445 -0.8162 -0.3484
v 0.5084 -0.8397 -0.4081
vn -0.3420 0.0000 -0.9397
v 0.3445 -0.8162 -0.3484
v 0.5084 -0.4552 -0.4081
v 0.5084 -0.8397 -0.4081
vn -0.3420 0.0000 -0.9397
v 0.3445 -0.8162 -0.3484
v 0.3445 -0.4561 -0.3484
v 0.5084 -0.4552 -0.4081
vn -0.3420 0.0000 -0.9397
v 0.3445 -0.4561 -0.3484
v 0.5084 -0.0707 -0.4081
v 0.5084 -0.4552 -0.4081
vn -0.3420 0.0000 -0.9397
v 0.3445 -0.4561 -0.3484
v 0.3445 -0.0961 -0.3484
v 0.5084 -0.0707 -0.4081
vn -0.3420 0.0000 -0.9397
v 0.3445 -0.0961 -0.3484
v 0.5084 0.3138 -0.4081
v 0.5084 -0.0707 -0.4081
vn -0.3420 0.0000 -0.9397
v 0.3445 -0.0961 -0.3484
v 0.3445 0.2639 -0.3484
v 0.5084 0.3138 -0.4081
vn -0.3420 0.0000 -0.9397
v 0.3445 0.2639 -0.3484
v 0.5084 0.6983 -0.4081
v 0.5084 0.3138 -0.4081
vn -0.3420 0.0000 -0.9397
v 0.3445 0.2639 -0.3484
v 0.3445 0.6240 -0.3484
v 0.5084 0.6983 -0.4081
vn -0.3420 0.0000 -0.9397
v 0.3445 0.6240 -0.3484
v 0.5084 1.0828 -0.4081
v 0.5084 0.6983 -0.4081
vn -0.3420 0.0000 -0.9397
v 0.3445 0.6240 -0.3484
v 0.3445 0.9840 -0.3484
v 0.5084 1.0828 -0.4081
vn -0.3420 0.0000 -0.9397
v 0.5084 -1.2242 -0.4081
v 0.6624 -0.8053 -0.4899
v 0.6624 -1.2071 -0.4899
vn -0.4695 0.0000 -0.8829
v 0.5084 -1.2242 -0.4081
v 0.5084 -0.8397 -0.4081
v 0.6624 -0.8053 -0.4899
vn -0.4695 0.0000 -0.8829
v 0.5084 -0.8397 -0.4081
v 0.6624 -0.4036 -0.4899
v 0.6624 -0.8053 -0.4899
vn -0.4695 0.0000 -0.8829
v 0.5084 -0.8397 -0.4081
v 0.5084 -0.4552 -0.4081
v 0.6624 -0.4036 -0.4899
vn -0.4695 0.0000 -0.8829
v 0.5084 -0.4552 -0.4081
v 0.6624 -0.0018 -0.4899
v 0.6624 -0.4036 -0.4899
vn -0.4695 0.0000 -0.8829
v 0.5084 -0.4552 -0.4081
v 0.5084 -0.0707 -0.4081
v 0.6624 -0.0018 -0.4899
vn -0.4695 0.0000 -0.8829
v 0.5084 -0.0707 -0.4081
v 0.6624 0.4000 -0.4899
v 0.6624 -0.0018 -0.4899
vn -0.4695 0.0000 -0.8829
v 0.5084 -0.0707 -0.4081
v 0.5084 0.3138 -0.4081
v 0.6624 0.4000 -0.4899
vn -0.4695 0.0000 -0.8829
v 0.5084 0.3138 -0.4081
v 0.6624 0.8018 -0.4899
v 0.6624 0.4000 -0.4899
vn -0.4695 0.0000 -0.8829
v 0.5084 0.3138 -0.4081
v 0.5084 0.6983 -0.4081
v 0.6624 0.8018 -0.4899
vn -0.4695 0.0000 -0.8829
v 0.5084 0.6983 -0.4081
v 0.6624 1.2035 -0.4899
v 0.6624 0.8018 -0.4899
vn -0.4695 0.0000 -0.8829
v 0.5084 0.6983 -0.4081
v 0.5084 1.0828 -0.4081
v 0.6624 1.2035 -0.4899
vn -0.4695 0.0000 -0.8829
v 0.6624 -1.2071 -0.4899
v 0.8035 -0.7351 -0.5924
v 0.8035 -1.1463 -0.5924
vn -0.5878 0.0000 -0.8090
v 0.6624 -1.2071 -0.4899
v 0.6624 -0.8053 -0.4899
v 0.8035 -0.7351 -0.5924
vn -0.5878 0.0000 -0.8090
v 0.6624 -0.8053 -0.4899
v 0.8035 -0.3238 -0.5924
v 0.8035 -0.7351 -0.5924
vn -0.5878 0.0000 -0.8090
v 0.6624 -0.8053 -0.4899
v 0.6624 -0.4036 -0.4899
v 0.8035 -0.3238 -0.5924
vn -0.5878 0.0000 -0.8090
v 0.6624 -0.4036 -0.4899
v 0.8035 0.0874 -0.5924
v 0.8035 -0.3238 -0.5924
vn -0.5878 0.0000 -0.8090
v 0.6624 -0.4036 -0.4899
v 0.6624 -0.0018 -0.4899
v 0.8035 0.0874 -0.5924
vn -0.5878 0.0000 -0.8090
v 0.6624 -0.0018 -0.4899
v 0.8035 0.4986 -0.5924
v 0.8035 0.0874 -0.5924
vn -0.5878 0.0000 -0.8090
v 0.6624 -0.0018 -0.4899
v 0.6624 0.4000 -0.4899
v 0.8035 0.4986 -0.5924
vn -0.5878 0.0000 -0.8090
v 0.6624 0.4000 -0.4899
v 0.8035 0.9099 -0.5924
v 0.8035 0.4986 -0.5924
vn -0.5878 0.0000 -0.8090
v 0.6624 0.4000 -0.4899
v 0.6624 0.8018 -0.4899
v 0.8035 0.9099 -0.5924
vn -0.5878 0.0000 -0.8090
v 0.6624 0.8018 -0.4899
v 0.8035 1.3211 -0.5924
v 0.8035 0.9099 -0.5924
vn -0.5878 0.0000 -0.8090
v 0.6624 0.8018 -0.4899
v 0.6624 1.2035 -0.4899
v 0.8035 1.3211 -0.5924
vn -0.5878 0.0000 -0.8090
v 0.8035 -1.1463 -0.5924
v 0.9289 -0.6880 -0.7136
v 0.9289 -1.0839 -0.7136
vn -0.6947 0.0000 -0.7193
v 0.8035 -1.1463 -0.5924
v 0.8035 -0.7351 -0.5924
v 0.9289 -0.6880 -0.7136
vn -0.6947 0.0000 -0.7193
v 0.8035 -0.7351 -0.5924
v 0.9289 -0.2921 -0.7136
v 0.9289 -0.6880 -0.7136
vn -0.6947 0.0000 -0.7193
v 0.8035 -0.7351 -0.5924
v 0.8035 -0.3238 -0.5924
v 0.9289 -0.2921 -0.7136
vn -0.6947 0.0000 -0.7193
v 0.8035 -0.3238 -0.5924
v 0.9289 0.1037 -0.7136
v 0.9289 -0.2921 -0.7136
vn -0.6947 0.0000 -0.7193
v 0.8035 -0.3238 -0.5924
v 0.8035 0.0874 -0.5924
v 0.9289 0.1037 -0.7136
vn -0.6947 0.0000 -0.7193
v 0.8035 0.0874 -0.5924
v 0.9289 0.4996 -0.7136
v 0.9289 0.1037 -0.7136
vn -0.6947 0.0000 -0.7193
v 0.8035 0.0874 -0.5924
v 0.8035 0.4986 -0.5924
v 0.9289 0.4996 -0.7136
vn -0.6947 0.0000 -0.7193
v 0.8035 0.4986 -0.5924
v 0.9289 0.8955 -0.7136
v 0.9289 0.4996 -0.7136
vn -0.6947 0.0000 -0.7193
v 0.8035 0.4986 -0.5924
v 0.8035 0.9099 -0.5924
v 0.9289 0.8955 -0.7136
vn -0.6947 0.0000 -0.7193
v 0.8035 0.9099 -0.5924
v 0.9289 1.2914 -0.7136
v 0.9289 0.8955 -0.7136
vn -0.6947 0.0000 -0.7193
v 0.8035 0.9099 -0.5924
v 0.8035 1.3211 -0.5924
v 0.9289 1.2914 -0.7136
vn -0.6947 0.0000 -0.7193
v 0.9289 -1.0839 -0.7136
v 1.0363 -0.4508 -0.8510
v 1.0363 -0.7627 -0.8510
vn -0.7880 0.0000 -0.6157
v 0.9289 -1.0839 -0.7136
v 0.9289 -0.6880 -0.7136
v 1.0363 -0.4508 -0.8510
vn -0.7880 0.0000 -0.6157
v 0.9289 -0.6880 -0.7136
v 1.0363 -0.1390 -0.8510
v 1.0363 -0.4508 -0.8510
vn -0.7880 0.0000 -0.6157
v 0.9289 -0.6880 -0.7136
v 0.9289 -0.2921 -0.7136
v 1.0363 -0.1390 -0.8510
vn -0.7880 0.0000 -0.6157
v 0.9289 -0.2921 -0.7136
v 1.0363 0.1728 -0.8510
v 1.0363 -0.1390 -0.8510
vn -0.7880 0.0000 -0.6157
v 0.9289 -0.2921 -0.7136
v 0.9289 0.1037 -0.7136
v 1.0363 0.1728 -0.8510
vn -0.7880 0.0000 -0.6157
v 0.9289 0.1037 -0.7136
v 1.0363 0.4846 -0.8510
v 1.0363 0.1728 -0.8510
vn -0.7880 0.0000 -0.6157
v 0.9289 0.1037 -0.7136
v 0.9289 0.4996 -0.7136
v 1.0363 0.4846 -0.8510
vn -0.7880 0.0000 -0.6157
v 0.9289 0.4996 -0.7136
v 1.0363 0.7965 -0.8510
v 1.0363 0.4846 -0.8510
vn -0.7880 0.0000 -0.6157
v 0.9289 0.4996 -0.7136
v 0.9289 0.8955 -0.7136
v 1.0363 0.7965 -0.8510
vn -0.7880 0.0000 -0.6157
v 0.9289 0.8955 -0.7136
v 1.0363 1.1083 -0.8510
v 1.0363 0.7965 -0.8510
vn -0.7880 0.0000 -0.6157
v 0.9289 0.8955 -0.7136
v 0.9289 1.2914 -0.7136
v 1.0363 1.1083 -0.8510
vn -0.7880 0.0000 -0.6157
f 1//1 2//1 3//1
f 4//2 5//2 6//2
f 7//3 8//3 9//3
f 10//4 11//4 12//4
f 13//5 14//5 15//5
f 16//6 17//6 18//6
f 19//7 20//7 21//7
f 22//8 23//8 24//8
f 25//9 26//9 27//9
f 28//10 29//10 30//10
f 31//11 32//11 33//11
f 34//12 35//12 36//12
f 37//13 38//13 39//13
f 40//14 41//14 42//14
f 43//15 44//15 45//15
f 46//16 47//16 48//16
f 49//17 50//17 51//17
f 52//18 53//18 54//18
f 55//19 56//19 57//19
f 58//20 59//20 60//20
f 61//21 62//21 63//21
f 64//22 65//22 66//22
f 67//23 68//23 69//23
f 70//24 71//24 72//24
f 73//25 74//25 75//25
f 76//26 77//26 78//26
f 79//27 80//27 81//27
f 82//28 83//28 84//28
f 85//29 86//29 87//29
f 88//30 89//30 90//30
f 91//31 92//31 93//31
f 94//32 95//32 96//32
f 97//33 98//33 99//33
f 100//34 101//34 102//34
f 103//35 104//35 105//35
f 106//36 107//36 108//36
f 109//37 110//37 111//37
f 112//38 113//38 114//38
f 115//39 116//39 117//39
f 118//40 119//40 120//40
f 121//41 122//41 123//41
f 124//42 125//42 126//42
f 127//43 128//43 129//43
f 130//44 131//44 132//44
f 133//45 134//45 135//45
f 136//46 137//46 138//46
f 139//47 140//47 141//47
f 142//48 143//48 144//48
f 145//49 146//49 147//49
f 148//50 149//50 150//50
f 151//51 152//51 153//51
f 154//52 155//52 156//52
f 157//53 158//53 159//53
f 160//54 161//54 162//54
f 163//55 164//55 165//55
f 166//56 167//56 168//56
f 169//57 170//57 171//57
f 172//58 173//58 174//58
f 175//59 176//59 177//59
f 178//60 179//60 180//60
f 181//61 182//61 183//61
f 184//62 185//62 186//62
f 187//63 188//63 189//63
f 190//64 191//64 192//64
f 193//65 194//65 195//65
f 196//66 197//66 198//66
f 199//67 200//67 201//67
f 202//68 203//68 204//68
f 205//69 206//69 207//69
f 208//70 209//70 210//70
f 211//71 212//71 213//71
f 214//72 215//72 216//72
f 217//73 218//73 219//73
f 220//74 221//74 222//74
f 223//75 224//75 225//75
f 226//76 227//76 228//76
f 229//77 230//77 231//77
f 232//78 233//78 234//78
f 235//79 236//79 237//79
f 238//80 239//80 240//80
f 241//81 242//81 243//81
f 244//82 245//82 246//82
f 247//83 248//83 249//83
f 250//84 251//84 252//84
f 253//85 254//85 255//85
f 256//86 257//86 258//86
f 259//87 260//87 261//87
f 262//88 263//88 264//88
f 265//89 266//89 267//89
f 268//90 269//90 270//90
f 271//91 272//91 273//91
f 274//92 275//92 276//92
f 277//93 278//93 279//93
f 280//94 281//94 282//94
f 283//95 284//95 285//95
f 286//96 287//96 288//96
f 289//97 290//97 291//97
f 292//98 293//98 294//98
f 295//99 296//99 297//99
f 298//100 299//100 300//100
f 301//101 302//101 303//101
f 304//102 305//102 306//102
f 307//103 308//103 309//103
f 310//104 311//104 312//104
f 313//105 314//105 315//105
f 316//106 317//106 318//106
f 319//107 320//107 321//107
f 322//108 323//108 324//108
f 325//109 326//109 327//109
f 328//110 329//110 330//110
f 331//111 332//111 333//111
f 334//112 335//112 336//112
f 337//113 338//113 339//113
f 340//114 341//114 342//114
f 343//115 344//115 345//115
f 346//116 347//116 348//116
f 349//117 350//117 351//117
f 352//118 353//118 354//118
f 355//119 356//119 357//119
f 358//120 359//120 360//120
f 361//121 362//121 363//121
f 364//122 365//122 366//122
f 367//123 368//123 369//123
f 370//124 371//124 372//124
f 373//125 374//125 375//125
f 376//126 377//126 378//126
f 379//127 380//127 381//127
f 382//128 383//128 384//128
f 385//129 386//129 387//129
f 388//130 389//130 390//130
f 391//131 392//131 393//131
f 394//132 395//132 396//132
f 397//133 398//133 399//133
f 400//134 401//134 402//134
f 403//135 404//135 405//135
f 406//136 407//136 408//136
f 409//137 410//137 411//137
f 412//138 413//138 414//138
f 415//139 416//139 417//139
f 418//140 419//140 420//140
f 421//141 422//141 423//141
f 424//142 425//142 426//142
f 427//143 428//143 429//143
f 430//144 431//144 432//144
f 433//145 434//145 435//145
f 436//146 437//146 438//146
f 439//147 440//147 441//147
f 442//148 443//148 444//148
f 445//149 446//149 447//149
f 448//150 449//150 450//150
f 451//151 452//151 453//151
f 454//152 455//152 456//152
f 457//153 458//153 459//153
f 460//154 461//154 462//154
f 463//155 464//155 465//155
f 466//156 467//156 468//156
f 469//157 470//157 471//157
f 472//158 473//158 474//158
f 475//159 476//159 477//159
f 478//160 479//160 480//160
f 481//161 482//161 483//161
f 484//162 485//162 486//162
f 487//163 488//163 489//163
f 490//164 491//164 492//164
f 493//165 494//165 495//165
f 496//166 497//166 498//166
f 499//167 500//167 501//167
f 502//168 503//168 504//168
